<?xml version="1.0" encoding="utf-8" standalone="no"?>
<!DOCTYPE svg PUBLIC "-//W3C//DTD SVG 1.1//EN"
  "http://www.w3.org/Graphics/SVG/1.1/DTD/svg11.dtd">
<!-- Created with matplotlib (http://matplotlib.org/) -->
<svg height="432pt" version="1.1" viewBox="0 0 576 432" width="576pt" xmlns="http://www.w3.org/2000/svg" xmlns:xlink="http://www.w3.org/1999/xlink">
 <defs>
  <style type="text/css">
*{stroke-linecap:butt;stroke-linejoin:round;stroke-miterlimit:100000;}
  </style>
 </defs>
 <g id="figure_1">
  <g id="patch_1">
   <path d="M 0 432 
L 576 432 
L 576 0 
L 0 0 
z
" style="fill:#ffffff;"/>
  </g>
  <g id="axes_1">
   <g id="patch_2">
    <path d="M 72 388.8 
L 518.4 388.8 
L 518.4 43.2 
L 72 43.2 
z
" style="fill:#ffffff;"/>
   </g>
   <g id="PathCollection_1">
    <defs>
     <path d="M 0 2.236068 
C 0.593012 2.236068 1.161816 2.000462 1.581139 1.581139 
C 2.000462 1.161816 2.236068 0.593012 2.236068 0 
C 2.236068 -0.593012 2.000462 -1.161816 1.581139 -1.581139 
C 1.161816 -2.000462 0.593012 -2.236068 0 -2.236068 
C -0.593012 -2.236068 -1.161816 -2.000462 -1.581139 -1.581139 
C -2.000462 -1.161816 -2.236068 -0.593012 -2.236068 0 
C -2.236068 0.593012 -2.000462 1.161816 -1.581139 1.581139 
C -1.161816 2.000462 -0.593012 2.236068 0 2.236068 
z
" id="mc7021d70f4" style="stroke:#000000;"/>
    </defs>
    <g clip-path="url(#p2538944f81)">
     <use style="fill:#0000ff;stroke:#000000;" x="146.4" xlink:href="#mc7021d70f4" y="345.6"/>
     <use style="fill:#0000ff;stroke:#000000;" x="220.8" xlink:href="#mc7021d70f4" y="324.0"/>
     <use style="fill:#0000ff;stroke:#000000;" x="295.2" xlink:href="#mc7021d70f4" y="291.6"/>
     <use style="fill:#0000ff;stroke:#000000;" x="369.6" xlink:href="#mc7021d70f4" y="243.0"/>
     <use style="fill:#0000ff;stroke:#000000;" x="444.0" xlink:href="#mc7021d70f4" y="170.1"/>
    </g>
   </g>
   <g id="line2d_1">
    <path clip-path="url(#p2538944f81)" d="M 146.4 345.6 
L 149.406061 344.718398 
L 152.412121 343.818804 
L 155.418182 342.900852 
L 158.424242 341.964167 
L 161.430303 341.008366 
L 164.436364 340.03306 
L 167.442424 339.037851 
L 170.448485 338.022332 
L 173.454545 336.986088 
L 176.460606 335.928698 
L 179.466667 334.849729 
L 182.472727 333.748741 
L 185.478788 332.625284 
L 188.484848 331.478901 
L 191.490909 330.309123 
L 194.49697 329.115472 
L 197.50303 327.897463 
L 200.509091 326.654596 
L 203.515152 325.386366 
L 206.521212 324.092255 
L 209.527273 322.771734 
L 212.533333 321.424265 
L 215.539394 320.049297 
L 218.545455 318.64627 
L 221.551515 317.21461 
L 224.557576 315.753734 
L 227.563636 314.263045 
L 230.569697 312.741935 
L 233.575758 311.189783 
L 236.581818 309.605955 
L 239.587879 307.989806 
L 242.593939 306.340675 
L 245.6 304.657889 
L 248.606061 302.940762 
L 251.612121 301.188593 
L 254.618182 299.400667 
L 257.624242 297.576253 
L 260.630303 295.714608 
L 263.636364 293.814972 
L 266.642424 291.876568 
L 269.648485 289.898607 
L 272.654545 287.880281 
L 275.660606 285.820765 
L 278.666667 283.71922 
L 281.672727 281.574788 
L 284.678788 279.386594 
L 287.684848 277.153744 
L 290.690909 274.875327 
L 293.69697 272.550414 
L 296.70303 270.178055 
L 299.709091 267.757282 
L 302.715152 265.287107 
L 305.721212 262.766523 
L 308.727273 260.194499 
L 311.733333 257.569987 
L 314.739394 254.891916 
L 317.745455 252.159192 
L 320.751515 249.370699 
L 323.757576 246.525301 
L 326.763636 243.621836 
L 329.769697 240.659118 
L 332.775758 237.635938 
L 335.781818 234.551064 
L 338.787879 231.403234 
L 341.793939 228.191166 
L 344.8 224.913547 
L 347.806061 221.56904 
L 350.812121 218.156281 
L 353.818182 214.673876 
L 356.824242 211.120403 
L 359.830303 207.494414 
L 362.836364 203.794427 
L 365.842424 200.018933 
L 368.848485 196.16639 
L 371.854545 192.235227 
L 374.860606 188.223839 
L 377.866667 184.130588 
L 380.872727 179.953805 
L 383.878788 175.691784 
L 386.884848 171.342787 
L 389.890909 166.905037 
L 392.89697 162.376724 
L 395.90303 157.755999 
L 398.909091 153.040978 
L 401.915152 148.229734 
L 404.921212 143.320306 
L 407.927273 138.310688 
L 410.933333 133.198837 
L 413.939394 127.982666 
L 416.945455 122.660046 
L 419.951515 117.228805 
L 422.957576 111.686726 
L 425.963636 106.031547 
L 428.969697 100.260961 
L 431.975758 94.372611 
L 434.981818 88.364096 
L 437.987879 82.232961 
L 440.993939 75.976706 
L 444 69.592777 
" style="fill:none;stroke:#0000ff;stroke-linecap:square;stroke-width:2.0;"/>
   </g>
   <g id="line2d_2">
    <path clip-path="url(#p2538944f81)" d="M 146.4 345.6 
L 220.8 324 
L 295.2 291.6 
L 369.6 243 
L 444 170.1 
" style="fill:none;stroke:#008000;stroke-linecap:square;"/>
   </g>
   <g id="line2d_3">
    <path clip-path="url(#p2538944f81)" d="M 146.4 349.496813 
L 149.406061 348.694735 
L 152.412121 347.876288 
L 155.418182 347.041139 
L 158.424242 346.188947 
L 161.430303 345.319363 
L 164.436364 344.432034 
L 167.442424 343.526596 
L 170.448485 342.602681 
L 173.454545 341.659911 
L 176.460606 340.697901 
L 179.466667 339.71626 
L 182.472727 338.714585 
L 185.478788 337.692469 
L 188.484848 336.649494 
L 191.490909 335.585234 
L 194.49697 334.499256 
L 197.50303 333.391116 
L 200.509091 332.260361 
L 203.515152 331.10653 
L 206.521212 329.929153 
L 209.527273 328.727749 
L 212.533333 327.501826 
L 215.539394 326.250886 
L 218.545455 324.974418 
L 221.551515 323.671899 
L 224.557576 322.3428 
L 227.563636 320.986577 
L 230.569697 319.602678 
L 233.575758 318.190536 
L 236.581818 316.749576 
L 239.587879 315.27921 
L 242.593939 313.778837 
L 245.6 312.247845 
L 248.606061 310.68561 
L 251.612121 309.091494 
L 254.618182 307.464845 
L 257.624242 305.805001 
L 260.630303 304.111284 
L 263.636364 302.383002 
L 266.642424 300.619451 
L 269.648485 298.819909 
L 272.654545 296.983644 
L 275.660606 295.109905 
L 278.666667 293.197928 
L 281.672727 291.246932 
L 284.678788 289.256122 
L 287.684848 287.224684 
L 290.690909 285.15179 
L 293.69697 283.036593 
L 296.70303 280.87823 
L 299.709091 278.67582 
L 302.715152 276.428465 
L 305.721212 274.135248 
L 308.727273 271.795231 
L 311.733333 269.407461 
L 314.739394 266.970962 
L 317.745455 264.48474 
L 320.751515 261.947781 
L 323.757576 259.35905 
L 326.763636 256.717488 
L 329.769697 254.02202 
L 332.775758 251.271543 
L 335.781818 248.464936 
L 338.787879 245.601054 
L 341.793939 242.678727 
L 344.8 239.696762 
L 347.806061 236.653944 
L 350.812121 233.549029 
L 353.818182 230.38075 
L 356.824242 227.147816 
L 359.830303 223.848905 
L 362.836364 220.482671 
L 365.842424 217.047742 
L 368.848485 213.542714 
L 371.854545 209.966158 
L 374.860606 206.316613 
L 377.866667 202.59259 
L 380.872727 198.79257 
L 383.878788 194.915 
L 386.884848 190.958299 
L 389.890909 186.920852 
L 392.89697 182.801011 
L 395.90303 178.597095 
L 398.909091 174.307387 
L 401.915152 169.930137 
L 404.921212 165.463559 
L 407.927273 160.905829 
L 410.933333 156.255087 
L 413.939394 151.509435 
L 416.945455 146.666937 
L 419.951515 141.725616 
L 422.957576 136.683455 
L 425.963636 131.538396 
L 428.969697 126.288339 
L 431.975758 120.931143 
L 434.981818 115.464619 
L 437.987879 109.886538 
L 440.993939 104.194622 
L 444 98.386548 
" style="fill:none;stroke:#ff0000;stroke-dasharray:6.000000,6.000000;stroke-dashoffset:0.0;"/>
   </g>
   <g id="line2d_4">
    <path clip-path="url(#p2538944f81)" d="M 146.4 353.042118 
L 149.406061 352.312391 
L 152.412121 351.567771 
L 155.418182 350.807956 
L 158.424242 350.032635 
L 161.430303 349.241491 
L 164.436364 348.434202 
L 167.442424 347.610439 
L 170.448485 346.769864 
L 173.454545 345.912136 
L 176.460606 345.036904 
L 179.466667 344.14381 
L 182.472727 343.23249 
L 185.478788 342.302573 
L 188.484848 341.353679 
L 191.490909 340.38542 
L 194.49697 339.397401 
L 197.50303 338.389219 
L 200.509091 337.360463 
L 203.515152 336.310713 
L 206.521212 335.23954 
L 209.527273 334.146507 
L 212.533333 333.031168 
L 215.539394 331.893067 
L 218.545455 330.731741 
L 221.551515 329.546715 
L 224.557576 328.337506 
L 227.563636 327.10362 
L 230.569697 325.844554 
L 233.575758 324.559793 
L 236.581818 323.248813 
L 239.587879 321.91108 
L 242.593939 320.546047 
L 245.6 319.153157 
L 248.606061 317.731841 
L 251.612121 316.281521 
L 254.618182 314.801602 
L 257.624242 313.291483 
L 260.630303 311.750546 
L 263.636364 310.178162 
L 266.642424 308.57369 
L 269.648485 306.936474 
L 272.654545 305.265848 
L 275.660606 303.561127 
L 278.666667 301.821618 
L 281.672727 300.04661 
L 284.678788 298.235379 
L 287.684848 296.387185 
L 290.690909 294.501274 
L 293.69697 292.576876 
L 296.70303 290.613206 
L 299.709091 288.609463 
L 302.715152 286.564829 
L 305.721212 284.478468 
L 308.727273 282.34953 
L 311.733333 280.177147 
L 314.739394 277.96043 
L 317.745455 275.698475 
L 320.751515 273.39036 
L 323.757576 271.035142 
L 326.763636 268.631861 
L 329.769697 266.179534 
L 332.775758 263.677161 
L 335.781818 261.123722 
L 338.787879 258.518173 
L 341.793939 255.859451 
L 344.8 253.146472 
L 347.806061 250.378128 
L 350.812121 247.553289 
L 353.818182 244.670802 
L 356.824242 241.729491 
L 359.830303 238.728155 
L 362.836364 235.66557 
L 365.842424 232.540484 
L 368.848485 229.351624 
L 371.854545 226.097688 
L 374.860606 222.777346 
L 377.866667 219.389245 
L 380.872727 215.932002 
L 383.878788 212.404205 
L 386.884848 208.804414 
L 389.890909 205.131161 
L 392.89697 201.382946 
L 395.90303 197.55824 
L 398.909091 193.655481 
L 401.915152 189.673076 
L 404.921212 185.609401 
L 407.927273 181.462797 
L 410.933333 177.231571 
L 413.939394 172.913996 
L 416.945455 168.50831 
L 419.951515 164.012716 
L 422.957576 159.425378 
L 425.963636 154.744424 
L 428.969697 149.967944 
L 431.975758 145.093988 
L 434.981818 140.120567 
L 437.987879 135.045651 
L 440.993939 129.867168 
L 444 124.583006 
" style="fill:none;stroke:#00bfbf;stroke-dasharray:6.000000,6.000000;stroke-dashoffset:0.0;"/>
   </g>
   <g id="line2d_5">
    <path clip-path="url(#p2538944f81)" d="M 146.4 356.267623 
L 149.406061 355.603719 
L 152.412121 354.926268 
L 155.418182 354.234991 
L 158.424242 353.529607 
L 161.430303 352.809827 
L 164.436364 352.075359 
L 167.442424 351.325902 
L 170.448485 350.561151 
L 173.454545 349.780793 
L 176.460606 348.98451 
L 179.466667 348.171977 
L 182.472727 347.342863 
L 185.478788 346.496828 
L 188.484848 345.633527 
L 191.490909 344.752609 
L 194.49697 343.853714 
L 197.50303 342.936474 
L 200.509091 342.000516 
L 203.515152 341.045457 
L 206.521212 340.070908 
L 209.527273 339.076471 
L 212.533333 338.06174 
L 215.539394 337.026301 
L 218.545455 335.969731 
L 221.551515 334.891599 
L 224.557576 333.791466 
L 227.563636 332.668881 
L 230.569697 331.523387 
L 233.575758 330.354517 
L 236.581818 329.161793 
L 239.587879 327.944729 
L 242.593939 326.702827 
L 245.6 325.435581 
L 248.606061 324.142474 
L 251.612121 322.822978 
L 254.618182 321.476555 
L 257.624242 320.102654 
L 260.630303 318.700715 
L 263.636364 317.270167 
L 266.642424 315.810425 
L 269.648485 314.320893 
L 272.654545 312.800963 
L 275.660606 311.250016 
L 278.666667 309.667417 
L 281.672727 308.052522 
L 284.678788 306.404671 
L 287.684848 304.723191 
L 290.690909 303.007397 
L 293.69697 301.256588 
L 296.70303 299.470049 
L 299.709091 297.647051 
L 302.715152 295.786851 
L 305.721212 293.888689 
L 308.727273 291.95179 
L 311.733333 289.975364 
L 314.739394 287.958604 
L 317.745455 285.900687 
L 320.751515 283.800773 
L 323.757576 281.658005 
L 326.763636 279.471509 
L 329.769697 277.240392 
L 332.775758 274.963743 
L 335.781818 272.640634 
L 338.787879 270.270116 
L 341.793939 267.851222 
L 344.8 265.382965 
L 347.806061 262.864336 
L 350.812121 260.294309 
L 353.818182 257.671834 
L 356.824242 254.995841 
L 359.830303 252.265237 
L 362.836364 249.478909 
L 365.842424 246.635719 
L 368.848485 243.734507 
L 371.854545 240.774089 
L 374.860606 237.753256 
L 377.866667 234.670775 
L 380.872727 231.525388 
L 383.878788 228.315813 
L 386.884848 225.040738 
L 389.890909 221.698827 
L 392.89697 218.288716 
L 395.90303 214.809013 
L 398.909091 211.258299 
L 401.915152 207.635123 
L 404.921212 203.938008 
L 407.927273 200.165444 
L 410.933333 196.315891 
L 413.939394 192.387779 
L 416.945455 188.379504 
L 419.951515 184.289431 
L 422.957576 180.115889 
L 425.963636 175.857176 
L 428.969697 171.511553 
L 431.975758 167.077248 
L 434.981818 162.552449 
L 437.987879 157.93531 
L 440.993939 153.223948 
L 444 148.416439 
" style="fill:none;stroke:#bf00bf;stroke-dasharray:6.000000,6.000000;stroke-dashoffset:0.0;"/>
   </g>
   <g id="patch_3">
    <path d="M 72 43.2 
L 518.4 43.2 
" style="fill:none;stroke:#000000;stroke-linecap:square;stroke-linejoin:miter;"/>
   </g>
   <g id="patch_4">
    <path d="M 518.4 388.8 
L 518.4 43.2 
" style="fill:none;stroke:#000000;stroke-linecap:square;stroke-linejoin:miter;"/>
   </g>
   <g id="patch_5">
    <path d="M 72 388.8 
L 518.4 388.8 
" style="fill:none;stroke:#000000;stroke-linecap:square;stroke-linejoin:miter;"/>
   </g>
   <g id="patch_6">
    <path d="M 72 388.8 
L 72 43.2 
" style="fill:none;stroke:#000000;stroke-linecap:square;stroke-linejoin:miter;"/>
   </g>
   <g id="matplotlib.axis_1">
    <g id="xtick_1">
     <g id="line2d_6">
      <defs>
       <path d="M 0 0 
L 0 -4 
" id="m1555ad4d17" style="stroke:#000000;stroke-width:0.5;"/>
      </defs>
      <g>
       <use style="stroke:#000000;stroke-width:0.5;" x="72.0" xlink:href="#m1555ad4d17" y="388.8"/>
      </g>
     </g>
     <g id="line2d_7">
      <defs>
       <path d="M 0 0 
L 0 4 
" id="mf31d17697b" style="stroke:#000000;stroke-width:0.5;"/>
      </defs>
      <g>
       <use style="stroke:#000000;stroke-width:0.5;" x="72.0" xlink:href="#mf31d17697b" y="43.2"/>
      </g>
     </g>
     <g id="text_1">
      <!-- −0.5 -->
      <defs>
       <path d="M 10.59375 35.5 
L 73.1875 35.5 
L 73.1875 27.203125 
L 10.59375 27.203125 
z
" id="BitstreamVeraSans-Roman-2212"/>
       <path d="M 31.78125 66.40625 
Q 24.171875 66.40625 20.328125 58.90625 
Q 16.5 51.421875 16.5 36.375 
Q 16.5 21.390625 20.328125 13.890625 
Q 24.171875 6.390625 31.78125 6.390625 
Q 39.453125 6.390625 43.28125 13.890625 
Q 47.125 21.390625 47.125 36.375 
Q 47.125 51.421875 43.28125 58.90625 
Q 39.453125 66.40625 31.78125 66.40625 
M 31.78125 74.21875 
Q 44.046875 74.21875 50.515625 64.515625 
Q 56.984375 54.828125 56.984375 36.375 
Q 56.984375 17.96875 50.515625 8.265625 
Q 44.046875 -1.421875 31.78125 -1.421875 
Q 19.53125 -1.421875 13.0625 8.265625 
Q 6.59375 17.96875 6.59375 36.375 
Q 6.59375 54.828125 13.0625 64.515625 
Q 19.53125 74.21875 31.78125 74.21875 
" id="BitstreamVeraSans-Roman-30"/>
       <path d="M 10.6875 12.40625 
L 21 12.40625 
L 21 0 
L 10.6875 0 
z
" id="BitstreamVeraSans-Roman-2e"/>
       <path d="M 10.796875 72.90625 
L 49.515625 72.90625 
L 49.515625 64.59375 
L 19.828125 64.59375 
L 19.828125 46.734375 
Q 21.96875 47.46875 24.109375 47.828125 
Q 26.265625 48.1875 28.421875 48.1875 
Q 40.625 48.1875 47.75 41.5 
Q 54.890625 34.8125 54.890625 23.390625 
Q 54.890625 11.625 47.5625 5.09375 
Q 40.234375 -1.421875 26.90625 -1.421875 
Q 22.3125 -1.421875 17.546875 -0.640625 
Q 12.796875 0.140625 7.71875 1.703125 
L 7.71875 11.625 
Q 12.109375 9.234375 16.796875 8.0625 
Q 21.484375 6.890625 26.703125 6.890625 
Q 35.15625 6.890625 40.078125 11.328125 
Q 45.015625 15.765625 45.015625 23.390625 
Q 45.015625 31 40.078125 35.4375 
Q 35.15625 39.890625 26.703125 39.890625 
Q 22.75 39.890625 18.8125 39.015625 
Q 14.890625 38.140625 10.796875 36.28125 
z
" id="BitstreamVeraSans-Roman-35"/>
      </defs>
      <g transform="translate(57.4303125 401.918125)scale(0.12 -0.12)">
       <use xlink:href="#BitstreamVeraSans-Roman-2212"/>
       <use x="83.7890625" xlink:href="#BitstreamVeraSans-Roman-30"/>
       <use x="147.412109375" xlink:href="#BitstreamVeraSans-Roman-2e"/>
       <use x="179.19921875" xlink:href="#BitstreamVeraSans-Roman-35"/>
      </g>
     </g>
    </g>
    <g id="xtick_2">
     <g id="line2d_8">
      <g>
       <use style="stroke:#000000;stroke-width:0.5;" x="146.4" xlink:href="#m1555ad4d17" y="388.8"/>
      </g>
     </g>
     <g id="line2d_9">
      <g>
       <use style="stroke:#000000;stroke-width:0.5;" x="146.4" xlink:href="#mf31d17697b" y="43.2"/>
      </g>
     </g>
     <g id="text_2">
      <!-- 0.0 -->
      <g transform="translate(136.858125 401.918125)scale(0.12 -0.12)">
       <use xlink:href="#BitstreamVeraSans-Roman-30"/>
       <use x="63.623046875" xlink:href="#BitstreamVeraSans-Roman-2e"/>
       <use x="95.41015625" xlink:href="#BitstreamVeraSans-Roman-30"/>
      </g>
     </g>
    </g>
    <g id="xtick_3">
     <g id="line2d_10">
      <g>
       <use style="stroke:#000000;stroke-width:0.5;" x="220.8" xlink:href="#m1555ad4d17" y="388.8"/>
      </g>
     </g>
     <g id="line2d_11">
      <g>
       <use style="stroke:#000000;stroke-width:0.5;" x="220.8" xlink:href="#mf31d17697b" y="43.2"/>
      </g>
     </g>
     <g id="text_3">
      <!-- 0.5 -->
      <g transform="translate(211.258125 401.918125)scale(0.12 -0.12)">
       <use xlink:href="#BitstreamVeraSans-Roman-30"/>
       <use x="63.623046875" xlink:href="#BitstreamVeraSans-Roman-2e"/>
       <use x="95.41015625" xlink:href="#BitstreamVeraSans-Roman-35"/>
      </g>
     </g>
    </g>
    <g id="xtick_4">
     <g id="line2d_12">
      <g>
       <use style="stroke:#000000;stroke-width:0.5;" x="295.2" xlink:href="#m1555ad4d17" y="388.8"/>
      </g>
     </g>
     <g id="line2d_13">
      <g>
       <use style="stroke:#000000;stroke-width:0.5;" x="295.2" xlink:href="#mf31d17697b" y="43.2"/>
      </g>
     </g>
     <g id="text_4">
      <!-- 1.0 -->
      <defs>
       <path d="M 12.40625 8.296875 
L 28.515625 8.296875 
L 28.515625 63.921875 
L 10.984375 60.40625 
L 10.984375 69.390625 
L 28.421875 72.90625 
L 38.28125 72.90625 
L 38.28125 8.296875 
L 54.390625 8.296875 
L 54.390625 0 
L 12.40625 0 
z
" id="BitstreamVeraSans-Roman-31"/>
      </defs>
      <g transform="translate(285.658125 401.918125)scale(0.12 -0.12)">
       <use xlink:href="#BitstreamVeraSans-Roman-31"/>
       <use x="63.623046875" xlink:href="#BitstreamVeraSans-Roman-2e"/>
       <use x="95.41015625" xlink:href="#BitstreamVeraSans-Roman-30"/>
      </g>
     </g>
    </g>
    <g id="xtick_5">
     <g id="line2d_14">
      <g>
       <use style="stroke:#000000;stroke-width:0.5;" x="369.6" xlink:href="#m1555ad4d17" y="388.8"/>
      </g>
     </g>
     <g id="line2d_15">
      <g>
       <use style="stroke:#000000;stroke-width:0.5;" x="369.6" xlink:href="#mf31d17697b" y="43.2"/>
      </g>
     </g>
     <g id="text_5">
      <!-- 1.5 -->
      <g transform="translate(360.058125 401.918125)scale(0.12 -0.12)">
       <use xlink:href="#BitstreamVeraSans-Roman-31"/>
       <use x="63.623046875" xlink:href="#BitstreamVeraSans-Roman-2e"/>
       <use x="95.41015625" xlink:href="#BitstreamVeraSans-Roman-35"/>
      </g>
     </g>
    </g>
    <g id="xtick_6">
     <g id="line2d_16">
      <g>
       <use style="stroke:#000000;stroke-width:0.5;" x="444.0" xlink:href="#m1555ad4d17" y="388.8"/>
      </g>
     </g>
     <g id="line2d_17">
      <g>
       <use style="stroke:#000000;stroke-width:0.5;" x="444.0" xlink:href="#mf31d17697b" y="43.2"/>
      </g>
     </g>
     <g id="text_6">
      <!-- 2.0 -->
      <defs>
       <path d="M 19.1875 8.296875 
L 53.609375 8.296875 
L 53.609375 0 
L 7.328125 0 
L 7.328125 8.296875 
Q 12.9375 14.109375 22.625 23.890625 
Q 32.328125 33.6875 34.8125 36.53125 
Q 39.546875 41.84375 41.421875 45.53125 
Q 43.3125 49.21875 43.3125 52.78125 
Q 43.3125 58.59375 39.234375 62.25 
Q 35.15625 65.921875 28.609375 65.921875 
Q 23.96875 65.921875 18.8125 64.3125 
Q 13.671875 62.703125 7.8125 59.421875 
L 7.8125 69.390625 
Q 13.765625 71.78125 18.9375 73 
Q 24.125 74.21875 28.421875 74.21875 
Q 39.75 74.21875 46.484375 68.546875 
Q 53.21875 62.890625 53.21875 53.421875 
Q 53.21875 48.921875 51.53125 44.890625 
Q 49.859375 40.875 45.40625 35.40625 
Q 44.1875 33.984375 37.640625 27.21875 
Q 31.109375 20.453125 19.1875 8.296875 
" id="BitstreamVeraSans-Roman-32"/>
      </defs>
      <g transform="translate(434.458125 401.918125)scale(0.12 -0.12)">
       <use xlink:href="#BitstreamVeraSans-Roman-32"/>
       <use x="63.623046875" xlink:href="#BitstreamVeraSans-Roman-2e"/>
       <use x="95.41015625" xlink:href="#BitstreamVeraSans-Roman-30"/>
      </g>
     </g>
    </g>
    <g id="xtick_7">
     <g id="line2d_18">
      <g>
       <use style="stroke:#000000;stroke-width:0.5;" x="518.4" xlink:href="#m1555ad4d17" y="388.8"/>
      </g>
     </g>
     <g id="line2d_19">
      <g>
       <use style="stroke:#000000;stroke-width:0.5;" x="518.4" xlink:href="#mf31d17697b" y="43.2"/>
      </g>
     </g>
     <g id="text_7">
      <!-- 2.5 -->
      <g transform="translate(508.858125 401.918125)scale(0.12 -0.12)">
       <use xlink:href="#BitstreamVeraSans-Roman-32"/>
       <use x="63.623046875" xlink:href="#BitstreamVeraSans-Roman-2e"/>
       <use x="95.41015625" xlink:href="#BitstreamVeraSans-Roman-35"/>
      </g>
     </g>
    </g>
   </g>
   <g id="matplotlib.axis_2">
    <g id="ytick_1">
     <g id="line2d_20">
      <defs>
       <path d="M 0 0 
L 4 0 
" id="m9b2f9b7399" style="stroke:#000000;stroke-width:0.5;"/>
      </defs>
      <g>
       <use style="stroke:#000000;stroke-width:0.5;" x="72.0" xlink:href="#m9b2f9b7399" y="388.8"/>
      </g>
     </g>
     <g id="line2d_21">
      <defs>
       <path d="M 0 0 
L -4 0 
" id="m3a9700d029" style="stroke:#000000;stroke-width:0.5;"/>
      </defs>
      <g>
       <use style="stroke:#000000;stroke-width:0.5;" x="518.4" xlink:href="#m3a9700d029" y="388.8"/>
      </g>
     </g>
     <g id="text_8">
      <!-- 0 -->
      <g transform="translate(60.365 392.11125)scale(0.12 -0.12)">
       <use xlink:href="#BitstreamVeraSans-Roman-30"/>
      </g>
     </g>
    </g>
    <g id="ytick_2">
     <g id="line2d_22">
      <g>
       <use style="stroke:#000000;stroke-width:0.5;" x="72.0" xlink:href="#m9b2f9b7399" y="345.6"/>
      </g>
     </g>
     <g id="line2d_23">
      <g>
       <use style="stroke:#000000;stroke-width:0.5;" x="518.4" xlink:href="#m3a9700d029" y="345.6"/>
      </g>
     </g>
     <g id="text_9">
      <!-- 1 -->
      <g transform="translate(60.365 348.91125)scale(0.12 -0.12)">
       <use xlink:href="#BitstreamVeraSans-Roman-31"/>
      </g>
     </g>
    </g>
    <g id="ytick_3">
     <g id="line2d_24">
      <g>
       <use style="stroke:#000000;stroke-width:0.5;" x="72.0" xlink:href="#m9b2f9b7399" y="302.4"/>
      </g>
     </g>
     <g id="line2d_25">
      <g>
       <use style="stroke:#000000;stroke-width:0.5;" x="518.4" xlink:href="#m3a9700d029" y="302.4"/>
      </g>
     </g>
     <g id="text_10">
      <!-- 2 -->
      <g transform="translate(60.365 305.71125)scale(0.12 -0.12)">
       <use xlink:href="#BitstreamVeraSans-Roman-32"/>
      </g>
     </g>
    </g>
    <g id="ytick_4">
     <g id="line2d_26">
      <g>
       <use style="stroke:#000000;stroke-width:0.5;" x="72.0" xlink:href="#m9b2f9b7399" y="259.2"/>
      </g>
     </g>
     <g id="line2d_27">
      <g>
       <use style="stroke:#000000;stroke-width:0.5;" x="518.4" xlink:href="#m3a9700d029" y="259.2"/>
      </g>
     </g>
     <g id="text_11">
      <!-- 3 -->
      <defs>
       <path d="M 40.578125 39.3125 
Q 47.65625 37.796875 51.625 33 
Q 55.609375 28.21875 55.609375 21.1875 
Q 55.609375 10.40625 48.1875 4.484375 
Q 40.765625 -1.421875 27.09375 -1.421875 
Q 22.515625 -1.421875 17.65625 -0.515625 
Q 12.796875 0.390625 7.625 2.203125 
L 7.625 11.71875 
Q 11.71875 9.328125 16.59375 8.109375 
Q 21.484375 6.890625 26.8125 6.890625 
Q 36.078125 6.890625 40.9375 10.546875 
Q 45.796875 14.203125 45.796875 21.1875 
Q 45.796875 27.640625 41.28125 31.265625 
Q 36.765625 34.90625 28.71875 34.90625 
L 20.21875 34.90625 
L 20.21875 43.015625 
L 29.109375 43.015625 
Q 36.375 43.015625 40.234375 45.921875 
Q 44.09375 48.828125 44.09375 54.296875 
Q 44.09375 59.90625 40.109375 62.90625 
Q 36.140625 65.921875 28.71875 65.921875 
Q 24.65625 65.921875 20.015625 65.03125 
Q 15.375 64.15625 9.8125 62.3125 
L 9.8125 71.09375 
Q 15.4375 72.65625 20.34375 73.4375 
Q 25.25 74.21875 29.59375 74.21875 
Q 40.828125 74.21875 47.359375 69.109375 
Q 53.90625 64.015625 53.90625 55.328125 
Q 53.90625 49.265625 50.4375 45.09375 
Q 46.96875 40.921875 40.578125 39.3125 
" id="BitstreamVeraSans-Roman-33"/>
      </defs>
      <g transform="translate(60.365 262.51125)scale(0.12 -0.12)">
       <use xlink:href="#BitstreamVeraSans-Roman-33"/>
      </g>
     </g>
    </g>
    <g id="ytick_5">
     <g id="line2d_28">
      <g>
       <use style="stroke:#000000;stroke-width:0.5;" x="72.0" xlink:href="#m9b2f9b7399" y="216.0"/>
      </g>
     </g>
     <g id="line2d_29">
      <g>
       <use style="stroke:#000000;stroke-width:0.5;" x="518.4" xlink:href="#m3a9700d029" y="216.0"/>
      </g>
     </g>
     <g id="text_12">
      <!-- 4 -->
      <defs>
       <path d="M 37.796875 64.3125 
L 12.890625 25.390625 
L 37.796875 25.390625 
z
M 35.203125 72.90625 
L 47.609375 72.90625 
L 47.609375 25.390625 
L 58.015625 25.390625 
L 58.015625 17.1875 
L 47.609375 17.1875 
L 47.609375 0 
L 37.796875 0 
L 37.796875 17.1875 
L 4.890625 17.1875 
L 4.890625 26.703125 
z
" id="BitstreamVeraSans-Roman-34"/>
      </defs>
      <g transform="translate(60.365 219.31125)scale(0.12 -0.12)">
       <use xlink:href="#BitstreamVeraSans-Roman-34"/>
      </g>
     </g>
    </g>
    <g id="ytick_6">
     <g id="line2d_30">
      <g>
       <use style="stroke:#000000;stroke-width:0.5;" x="72.0" xlink:href="#m9b2f9b7399" y="172.8"/>
      </g>
     </g>
     <g id="line2d_31">
      <g>
       <use style="stroke:#000000;stroke-width:0.5;" x="518.4" xlink:href="#m3a9700d029" y="172.8"/>
      </g>
     </g>
     <g id="text_13">
      <!-- 5 -->
      <g transform="translate(60.365 176.11125)scale(0.12 -0.12)">
       <use xlink:href="#BitstreamVeraSans-Roman-35"/>
      </g>
     </g>
    </g>
    <g id="ytick_7">
     <g id="line2d_32">
      <g>
       <use style="stroke:#000000;stroke-width:0.5;" x="72.0" xlink:href="#m9b2f9b7399" y="129.6"/>
      </g>
     </g>
     <g id="line2d_33">
      <g>
       <use style="stroke:#000000;stroke-width:0.5;" x="518.4" xlink:href="#m3a9700d029" y="129.6"/>
      </g>
     </g>
     <g id="text_14">
      <!-- 6 -->
      <defs>
       <path d="M 33.015625 40.375 
Q 26.375 40.375 22.484375 35.828125 
Q 18.609375 31.296875 18.609375 23.390625 
Q 18.609375 15.53125 22.484375 10.953125 
Q 26.375 6.390625 33.015625 6.390625 
Q 39.65625 6.390625 43.53125 10.953125 
Q 47.40625 15.53125 47.40625 23.390625 
Q 47.40625 31.296875 43.53125 35.828125 
Q 39.65625 40.375 33.015625 40.375 
M 52.59375 71.296875 
L 52.59375 62.3125 
Q 48.875 64.0625 45.09375 64.984375 
Q 41.3125 65.921875 37.59375 65.921875 
Q 27.828125 65.921875 22.671875 59.328125 
Q 17.53125 52.734375 16.796875 39.40625 
Q 19.671875 43.65625 24.015625 45.921875 
Q 28.375 48.1875 33.59375 48.1875 
Q 44.578125 48.1875 50.953125 41.515625 
Q 57.328125 34.859375 57.328125 23.390625 
Q 57.328125 12.15625 50.6875 5.359375 
Q 44.046875 -1.421875 33.015625 -1.421875 
Q 20.359375 -1.421875 13.671875 8.265625 
Q 6.984375 17.96875 6.984375 36.375 
Q 6.984375 53.65625 15.1875 63.9375 
Q 23.390625 74.21875 37.203125 74.21875 
Q 40.921875 74.21875 44.703125 73.484375 
Q 48.484375 72.75 52.59375 71.296875 
" id="BitstreamVeraSans-Roman-36"/>
      </defs>
      <g transform="translate(60.365 132.91125)scale(0.12 -0.12)">
       <use xlink:href="#BitstreamVeraSans-Roman-36"/>
      </g>
     </g>
    </g>
    <g id="ytick_8">
     <g id="line2d_34">
      <g>
       <use style="stroke:#000000;stroke-width:0.5;" x="72.0" xlink:href="#m9b2f9b7399" y="86.4"/>
      </g>
     </g>
     <g id="line2d_35">
      <g>
       <use style="stroke:#000000;stroke-width:0.5;" x="518.4" xlink:href="#m3a9700d029" y="86.4"/>
      </g>
     </g>
     <g id="text_15">
      <!-- 7 -->
      <defs>
       <path d="M 8.203125 72.90625 
L 55.078125 72.90625 
L 55.078125 68.703125 
L 28.609375 0 
L 18.3125 0 
L 43.21875 64.59375 
L 8.203125 64.59375 
z
" id="BitstreamVeraSans-Roman-37"/>
      </defs>
      <g transform="translate(60.365 89.71125)scale(0.12 -0.12)">
       <use xlink:href="#BitstreamVeraSans-Roman-37"/>
      </g>
     </g>
    </g>
    <g id="ytick_9">
     <g id="line2d_36">
      <g>
       <use style="stroke:#000000;stroke-width:0.5;" x="72.0" xlink:href="#m9b2f9b7399" y="43.2"/>
      </g>
     </g>
     <g id="line2d_37">
      <g>
       <use style="stroke:#000000;stroke-width:0.5;" x="518.4" xlink:href="#m3a9700d029" y="43.2"/>
      </g>
     </g>
     <g id="text_16">
      <!-- 8 -->
      <defs>
       <path d="M 31.78125 34.625 
Q 24.75 34.625 20.71875 30.859375 
Q 16.703125 27.09375 16.703125 20.515625 
Q 16.703125 13.921875 20.71875 10.15625 
Q 24.75 6.390625 31.78125 6.390625 
Q 38.8125 6.390625 42.859375 10.171875 
Q 46.921875 13.96875 46.921875 20.515625 
Q 46.921875 27.09375 42.890625 30.859375 
Q 38.875 34.625 31.78125 34.625 
M 21.921875 38.8125 
Q 15.578125 40.375 12.03125 44.71875 
Q 8.5 49.078125 8.5 55.328125 
Q 8.5 64.0625 14.71875 69.140625 
Q 20.953125 74.21875 31.78125 74.21875 
Q 42.671875 74.21875 48.875 69.140625 
Q 55.078125 64.0625 55.078125 55.328125 
Q 55.078125 49.078125 51.53125 44.71875 
Q 48 40.375 41.703125 38.8125 
Q 48.828125 37.15625 52.796875 32.3125 
Q 56.78125 27.484375 56.78125 20.515625 
Q 56.78125 9.90625 50.3125 4.234375 
Q 43.84375 -1.421875 31.78125 -1.421875 
Q 19.734375 -1.421875 13.25 4.234375 
Q 6.78125 9.90625 6.78125 20.515625 
Q 6.78125 27.484375 10.78125 32.3125 
Q 14.796875 37.15625 21.921875 38.8125 
M 18.3125 54.390625 
Q 18.3125 48.734375 21.84375 45.5625 
Q 25.390625 42.390625 31.78125 42.390625 
Q 38.140625 42.390625 41.71875 45.5625 
Q 45.3125 48.734375 45.3125 54.390625 
Q 45.3125 60.0625 41.71875 63.234375 
Q 38.140625 66.40625 31.78125 66.40625 
Q 25.390625 66.40625 21.84375 63.234375 
Q 18.3125 60.0625 18.3125 54.390625 
" id="BitstreamVeraSans-Roman-38"/>
      </defs>
      <g transform="translate(60.365 46.51125)scale(0.12 -0.12)">
       <use xlink:href="#BitstreamVeraSans-Roman-38"/>
      </g>
     </g>
    </g>
   </g>
  </g>
 </g>
 <defs>
  <clipPath id="p2538944f81">
   <rect height="345.6" width="446.4" x="72.0" y="43.2"/>
  </clipPath>
 </defs>
</svg>
