<?xml version="1.0" encoding="utf-8" standalone="no"?>
<!DOCTYPE svg PUBLIC "-//W3C//DTD SVG 1.1//EN"
  "http://www.w3.org/Graphics/SVG/1.1/DTD/svg11.dtd">
<!-- Created with matplotlib (http://matplotlib.org/) -->
<svg height="432pt" version="1.1" viewBox="0 0 576 432" width="576pt" xmlns="http://www.w3.org/2000/svg" xmlns:xlink="http://www.w3.org/1999/xlink">
 <defs>
  <style type="text/css">
*{stroke-linecap:butt;stroke-linejoin:round;stroke-miterlimit:100000;}
  </style>
 </defs>
 <g id="figure_1">
  <g id="patch_1">
   <path d="M 0 432 
L 576 432 
L 576 0 
L 0 0 
z
" style="fill:#ffffff;"/>
  </g>
  <g id="axes_1">
   <g id="patch_2">
    <path d="M 72 388.8 
L 518.4 388.8 
L 518.4 43.2 
L 72 43.2 
z
" style="fill:#ffffff;"/>
   </g>
   <g id="line2d_1">
    <path clip-path="url(#p3aafc046d4)" d="M 82.628571 345.6 
L 86.922944 344.718398 
L 91.217316 343.818804 
L 95.511688 342.900852 
L 99.806061 341.964167 
L 104.100433 341.008366 
L 108.394805 340.03306 
L 112.689177 339.037851 
L 116.98355 338.022332 
L 121.277922 336.986088 
L 125.572294 335.928698 
L 129.866667 334.849729 
L 134.161039 333.748741 
L 138.455411 332.625284 
L 142.749784 331.478901 
L 147.044156 330.309123 
L 151.338528 329.115472 
L 155.6329 327.897463 
L 159.927273 326.654596 
L 164.221645 325.386366 
L 168.516017 324.092255 
L 172.81039 322.771734 
L 177.104762 321.424265 
L 181.399134 320.049297 
L 185.693506 318.64627 
L 189.987879 317.21461 
L 194.282251 315.753734 
L 198.576623 314.263045 
L 202.870996 312.741935 
L 207.165368 311.189783 
L 211.45974 309.605955 
L 215.754113 307.989806 
L 220.048485 306.340675 
L 224.342857 304.657889 
L 228.637229 302.940762 
L 232.931602 301.188593 
L 237.225974 299.400667 
L 241.520346 297.576253 
L 245.814719 295.714608 
L 250.109091 293.814972 
L 254.403463 291.876568 
L 258.697835 289.898607 
L 262.992208 287.880281 
L 267.28658 285.820765 
L 271.580952 283.71922 
L 275.875325 281.574788 
L 280.169697 279.386594 
L 284.464069 277.153744 
L 288.758442 274.875327 
L 293.052814 272.550414 
L 297.347186 270.178055 
L 301.641558 267.757282 
L 305.935931 265.287107 
L 310.230303 262.766523 
L 314.524675 260.194499 
L 318.819048 257.569987 
L 323.11342 254.891916 
L 327.407792 252.159192 
L 331.702165 249.370699 
L 335.996537 246.525301 
L 340.290909 243.621836 
L 344.585281 240.659118 
L 348.879654 237.635938 
L 353.174026 234.551064 
L 357.468398 231.403234 
L 361.762771 228.191166 
L 366.057143 224.913547 
L 370.351515 221.56904 
L 374.645887 218.156281 
L 378.94026 214.673876 
L 383.234632 211.120403 
L 387.529004 207.494414 
L 391.823377 203.794427 
L 396.117749 200.018933 
L 400.412121 196.16639 
L 404.706494 192.235227 
L 409.000866 188.223839 
L 413.295238 184.130588 
L 417.58961 179.953805 
L 421.883983 175.691784 
L 426.178355 171.342787 
L 430.472727 166.905037 
L 434.7671 162.376724 
L 439.061472 157.755999 
L 443.355844 153.040978 
L 447.650216 148.229734 
L 451.944589 143.320306 
L 456.238961 138.310688 
L 460.533333 133.198837 
L 464.827706 127.982666 
L 469.122078 122.660046 
L 473.41645 117.228805 
L 477.710823 111.686726 
L 482.005195 106.031547 
L 486.299567 100.260961 
L 490.593939 94.372611 
L 494.888312 88.364096 
L 499.182684 82.232961 
L 503.477056 75.976706 
L 507.771429 69.592777 
" style="fill:none;stroke:#0000ff;stroke-linecap:square;stroke-width:2.0;"/>
   </g>
   <g id="line2d_2">
    <path clip-path="url(#p3aafc046d4)" d="M 82.628571 345.6 
L 188.914286 324 
L 295.2 291.6 
L 401.485714 243 
L 507.771429 170.1 
" style="fill:none;stroke:#008000;stroke-linecap:square;"/>
    <defs>
     <path d="M 0 2.5 
C 0.663008 2.5 1.29895 2.236584 1.767767 1.767767 
C 2.236584 1.29895 2.5 0.663008 2.5 0 
C 2.5 -0.663008 2.236584 -1.29895 1.767767 -1.767767 
C 1.29895 -2.236584 0.663008 -2.5 0 -2.5 
C -0.663008 -2.5 -1.29895 -2.236584 -1.767767 -1.767767 
C -2.236584 -1.29895 -2.5 -0.663008 -2.5 0 
C -2.5 0.663008 -2.236584 1.29895 -1.767767 1.767767 
C -1.29895 2.236584 -0.663008 2.5 0 2.5 
z
" id="m95d143ff3a" style="stroke:#008000;stroke-width:0.5;"/>
    </defs>
    <g clip-path="url(#p3aafc046d4)">
     <use style="fill:#008000;stroke:#008000;stroke-width:0.5;" x="82.6285714286" xlink:href="#m95d143ff3a" y="345.6"/>
     <use style="fill:#008000;stroke:#008000;stroke-width:0.5;" x="188.914285714" xlink:href="#m95d143ff3a" y="324.0"/>
     <use style="fill:#008000;stroke:#008000;stroke-width:0.5;" x="295.2" xlink:href="#m95d143ff3a" y="291.6"/>
     <use style="fill:#008000;stroke:#008000;stroke-width:0.5;" x="401.485714286" xlink:href="#m95d143ff3a" y="243.0"/>
     <use style="fill:#008000;stroke:#008000;stroke-width:0.5;" x="507.771428571" xlink:href="#m95d143ff3a" y="170.1"/>
    </g>
   </g>
   <g id="line2d_3">
    <path clip-path="url(#p3aafc046d4)" d="M 82.628571 349.496813 
L 86.922944 348.694735 
L 91.217316 347.876288 
L 95.511688 347.041139 
L 99.806061 346.188947 
L 104.100433 345.319363 
L 108.394805 344.432034 
L 112.689177 343.526596 
L 116.98355 342.602681 
L 121.277922 341.659911 
L 125.572294 340.697901 
L 129.866667 339.71626 
L 134.161039 338.714585 
L 138.455411 337.692469 
L 142.749784 336.649494 
L 147.044156 335.585234 
L 151.338528 334.499256 
L 155.6329 333.391116 
L 159.927273 332.260361 
L 164.221645 331.10653 
L 168.516017 329.929153 
L 172.81039 328.727749 
L 177.104762 327.501826 
L 181.399134 326.250886 
L 185.693506 324.974418 
L 189.987879 323.671899 
L 194.282251 322.3428 
L 198.576623 320.986577 
L 202.870996 319.602678 
L 207.165368 318.190536 
L 211.45974 316.749576 
L 215.754113 315.27921 
L 220.048485 313.778837 
L 224.342857 312.247845 
L 228.637229 310.68561 
L 232.931602 309.091494 
L 237.225974 307.464845 
L 241.520346 305.805001 
L 245.814719 304.111284 
L 250.109091 302.383002 
L 254.403463 300.619451 
L 258.697835 298.819909 
L 262.992208 296.983644 
L 267.28658 295.109905 
L 271.580952 293.197928 
L 275.875325 291.246932 
L 280.169697 289.256122 
L 284.464069 287.224684 
L 288.758442 285.15179 
L 293.052814 283.036593 
L 297.347186 280.87823 
L 301.641558 278.67582 
L 305.935931 276.428465 
L 310.230303 274.135248 
L 314.524675 271.795231 
L 318.819048 269.407461 
L 323.11342 266.970962 
L 327.407792 264.48474 
L 331.702165 261.947781 
L 335.996537 259.35905 
L 340.290909 256.717488 
L 344.585281 254.02202 
L 348.879654 251.271543 
L 353.174026 248.464936 
L 357.468398 245.601054 
L 361.762771 242.678727 
L 366.057143 239.696762 
L 370.351515 236.653944 
L 374.645887 233.549029 
L 378.94026 230.38075 
L 383.234632 227.147816 
L 387.529004 223.848905 
L 391.823377 220.482671 
L 396.117749 217.047742 
L 400.412121 213.542714 
L 404.706494 209.966158 
L 409.000866 206.316613 
L 413.295238 202.59259 
L 417.58961 198.79257 
L 421.883983 194.915 
L 426.178355 190.958299 
L 430.472727 186.920852 
L 434.7671 182.801011 
L 439.061472 178.597095 
L 443.355844 174.307387 
L 447.650216 169.930137 
L 451.944589 165.463559 
L 456.238961 160.905829 
L 460.533333 156.255087 
L 464.827706 151.509435 
L 469.122078 146.666937 
L 473.41645 141.725616 
L 477.710823 136.683455 
L 482.005195 131.538396 
L 486.299567 126.288339 
L 490.593939 120.931143 
L 494.888312 115.464619 
L 499.182684 109.886538 
L 503.477056 104.194622 
L 507.771429 98.386548 
" style="fill:none;stroke:#ff0000;stroke-dasharray:6.000000,6.000000;stroke-dashoffset:0.0;"/>
   </g>
   <g id="line2d_4">
    <path clip-path="url(#p3aafc046d4)" d="M 82.628571 353.042118 
L 86.922944 352.312391 
L 91.217316 351.567771 
L 95.511688 350.807956 
L 99.806061 350.032635 
L 104.100433 349.241491 
L 108.394805 348.434202 
L 112.689177 347.610439 
L 116.98355 346.769864 
L 121.277922 345.912136 
L 125.572294 345.036904 
L 129.866667 344.14381 
L 134.161039 343.23249 
L 138.455411 342.302573 
L 142.749784 341.353679 
L 147.044156 340.38542 
L 151.338528 339.397401 
L 155.6329 338.389219 
L 159.927273 337.360463 
L 164.221645 336.310713 
L 168.516017 335.23954 
L 172.81039 334.146507 
L 177.104762 333.031168 
L 181.399134 331.893067 
L 185.693506 330.731741 
L 189.987879 329.546715 
L 194.282251 328.337506 
L 198.576623 327.10362 
L 202.870996 325.844554 
L 207.165368 324.559793 
L 211.45974 323.248813 
L 215.754113 321.91108 
L 220.048485 320.546047 
L 224.342857 319.153157 
L 228.637229 317.731841 
L 232.931602 316.281521 
L 237.225974 314.801602 
L 241.520346 313.291483 
L 245.814719 311.750546 
L 250.109091 310.178162 
L 254.403463 308.57369 
L 258.697835 306.936474 
L 262.992208 305.265848 
L 267.28658 303.561127 
L 271.580952 301.821618 
L 275.875325 300.04661 
L 280.169697 298.235379 
L 284.464069 296.387185 
L 288.758442 294.501274 
L 293.052814 292.576876 
L 297.347186 290.613206 
L 301.641558 288.609463 
L 305.935931 286.564829 
L 310.230303 284.478468 
L 314.524675 282.34953 
L 318.819048 280.177147 
L 323.11342 277.96043 
L 327.407792 275.698475 
L 331.702165 273.39036 
L 335.996537 271.035142 
L 340.290909 268.631861 
L 344.585281 266.179534 
L 348.879654 263.677161 
L 353.174026 261.123722 
L 357.468398 258.518173 
L 361.762771 255.859451 
L 366.057143 253.146472 
L 370.351515 250.378128 
L 374.645887 247.553289 
L 378.94026 244.670802 
L 383.234632 241.729491 
L 387.529004 238.728155 
L 391.823377 235.66557 
L 396.117749 232.540484 
L 400.412121 229.351624 
L 404.706494 226.097688 
L 409.000866 222.777346 
L 413.295238 219.389245 
L 417.58961 215.932002 
L 421.883983 212.404205 
L 426.178355 208.804414 
L 430.472727 205.131161 
L 434.7671 201.382946 
L 439.061472 197.55824 
L 443.355844 193.655481 
L 447.650216 189.673076 
L 451.944589 185.609401 
L 456.238961 181.462797 
L 460.533333 177.231571 
L 464.827706 172.913996 
L 469.122078 168.50831 
L 473.41645 164.012716 
L 477.710823 159.425378 
L 482.005195 154.744424 
L 486.299567 149.967944 
L 490.593939 145.093988 
L 494.888312 140.120567 
L 499.182684 135.045651 
L 503.477056 129.867168 
L 507.771429 124.583006 
" style="fill:none;stroke:#00bfbf;stroke-dasharray:6.000000,6.000000;stroke-dashoffset:0.0;"/>
   </g>
   <g id="line2d_5">
    <path clip-path="url(#p3aafc046d4)" d="M 82.628571 356.267623 
L 86.922944 355.603719 
L 91.217316 354.926268 
L 95.511688 354.234991 
L 99.806061 353.529607 
L 104.100433 352.809827 
L 108.394805 352.075359 
L 112.689177 351.325902 
L 116.98355 350.561151 
L 121.277922 349.780793 
L 125.572294 348.98451 
L 129.866667 348.171977 
L 134.161039 347.342863 
L 138.455411 346.496828 
L 142.749784 345.633527 
L 147.044156 344.752609 
L 151.338528 343.853714 
L 155.6329 342.936474 
L 159.927273 342.000516 
L 164.221645 341.045457 
L 168.516017 340.070908 
L 172.81039 339.076471 
L 177.104762 338.06174 
L 181.399134 337.026301 
L 185.693506 335.969731 
L 189.987879 334.891599 
L 194.282251 333.791466 
L 198.576623 332.668881 
L 202.870996 331.523387 
L 207.165368 330.354517 
L 211.45974 329.161793 
L 215.754113 327.944729 
L 220.048485 326.702827 
L 224.342857 325.435581 
L 228.637229 324.142474 
L 232.931602 322.822978 
L 237.225974 321.476555 
L 241.520346 320.102654 
L 245.814719 318.700715 
L 250.109091 317.270167 
L 254.403463 315.810425 
L 258.697835 314.320893 
L 262.992208 312.800963 
L 267.28658 311.250016 
L 271.580952 309.667417 
L 275.875325 308.052522 
L 280.169697 306.404671 
L 284.464069 304.723191 
L 288.758442 303.007397 
L 293.052814 301.256588 
L 297.347186 299.470049 
L 301.641558 297.647051 
L 305.935931 295.786851 
L 310.230303 293.888689 
L 314.524675 291.95179 
L 318.819048 289.975364 
L 323.11342 287.958604 
L 327.407792 285.900687 
L 331.702165 283.800773 
L 335.996537 281.658005 
L 340.290909 279.471509 
L 344.585281 277.240392 
L 348.879654 274.963743 
L 353.174026 272.640634 
L 357.468398 270.270116 
L 361.762771 267.851222 
L 366.057143 265.382965 
L 370.351515 262.864336 
L 374.645887 260.294309 
L 378.94026 257.671834 
L 383.234632 254.995841 
L 387.529004 252.265237 
L 391.823377 249.478909 
L 396.117749 246.635719 
L 400.412121 243.734507 
L 404.706494 240.774089 
L 409.000866 237.753256 
L 413.295238 234.670775 
L 417.58961 231.525388 
L 421.883983 228.315813 
L 426.178355 225.040738 
L 430.472727 221.698827 
L 434.7671 218.288716 
L 439.061472 214.809013 
L 443.355844 211.258299 
L 447.650216 207.635123 
L 451.944589 203.938008 
L 456.238961 200.165444 
L 460.533333 196.315891 
L 464.827706 192.387779 
L 469.122078 188.379504 
L 473.41645 184.289431 
L 477.710823 180.115889 
L 482.005195 175.857176 
L 486.299567 171.511553 
L 490.593939 167.077248 
L 494.888312 162.552449 
L 499.182684 157.93531 
L 503.477056 153.223948 
L 507.771429 148.416439 
" style="fill:none;stroke:#bf00bf;stroke-dasharray:6.000000,6.000000;stroke-dashoffset:0.0;"/>
   </g>
   <g id="patch_3">
    <path d="M 82.628571 388.8 
L 507.771429 388.8 
" style="fill:none;stroke:#000000;stroke-linecap:square;stroke-linejoin:miter;"/>
   </g>
   <g id="patch_4">
    <path d="M 72 388.8 
L 72 43.2 
" style="fill:none;stroke:#000000;stroke-linecap:square;stroke-linejoin:miter;"/>
   </g>
   <g id="matplotlib.axis_1">
    <g id="xtick_1">
     <g id="line2d_6">
      <defs>
       <path d="M 0 0 
L 0 -4 
" id="mf51655a267" style="stroke:#000000;stroke-width:0.5;"/>
      </defs>
      <g>
       <use style="stroke:#000000;stroke-width:0.5;" x="82.6285714286" xlink:href="#mf51655a267" y="388.8"/>
      </g>
     </g>
     <g id="text_1">
      <!-- $t_0$ -->
      <defs>
       <path d="M 25 -2.203125 
Q 12.75 -2.203125 8.328125 7.875 
Q 3.90625 17.96875 3.90625 31.890625 
Q 3.90625 40.578125 5.484375 48.234375 
Q 7.078125 55.90625 11.78125 61.25 
Q 16.5 66.609375 25 66.609375 
Q 31.59375 66.609375 35.78125 63.375 
Q 39.984375 60.15625 42.1875 55.046875 
Q 44.390625 49.953125 45.1875 44.109375 
Q 46 38.28125 46 31.890625 
Q 46 23.296875 44.40625 15.796875 
Q 42.828125 8.296875 38.1875 3.046875 
Q 33.546875 -2.203125 25 -2.203125 
M 25 0.390625 
Q 30.5625 0.390625 33.296875 6.09375 
Q 36.03125 11.8125 36.671875 18.75 
Q 37.3125 25.6875 37.3125 33.5 
Q 37.3125 41.015625 36.671875 47.359375 
Q 36.03125 53.71875 33.3125 58.859375 
Q 30.609375 64.015625 25 64.015625 
Q 19.34375 64.015625 16.609375 58.828125 
Q 13.875 53.65625 13.234375 47.328125 
Q 12.59375 41.015625 12.59375 33.5 
Q 12.59375 27.9375 12.859375 23 
Q 13.140625 18.0625 14.3125 12.8125 
Q 15.484375 7.5625 18.09375 3.96875 
Q 20.703125 0.390625 25 0.390625 
" id="Cmr10-30"/>
       <path d="M 6.203125 8.109375 
Q 6.203125 9.578125 6.5 10.890625 
L 13.71875 39.59375 
L 3.21875 39.59375 
Q 2.203125 39.59375 2.203125 40.921875 
Q 2.59375 43.109375 3.515625 43.109375 
L 14.59375 43.109375 
L 18.609375 59.421875 
Q 19 60.75 20.171875 61.671875 
Q 21.34375 62.59375 22.796875 62.59375 
Q 24.078125 62.59375 24.921875 61.828125 
Q 25.78125 61.078125 25.78125 59.8125 
Q 25.78125 59.515625 25.75 59.34375 
Q 25.734375 59.1875 25.6875 58.984375 
L 21.6875 43.109375 
L 31.984375 43.109375 
Q 33.015625 43.109375 33.015625 41.796875 
Q 32.953125 41.546875 32.8125 40.953125 
Q 32.671875 40.375 32.421875 39.984375 
Q 32.171875 39.59375 31.6875 39.59375 
L 20.796875 39.59375 
L 13.625 10.6875 
Q 12.890625 7.859375 12.890625 5.8125 
Q 12.890625 1.515625 15.828125 1.515625 
Q 20.21875 1.515625 23.609375 5.640625 
Q 27 9.765625 28.8125 14.703125 
Q 29.203125 15.28125 29.59375 15.28125 
L 30.8125 15.28125 
Q 31.203125 15.28125 31.4375 15.015625 
Q 31.6875 14.75 31.6875 14.40625 
Q 31.6875 14.203125 31.59375 14.109375 
Q 29.390625 8.0625 25.1875 3.46875 
Q 21 -1.125 15.578125 -1.125 
Q 11.625 -1.125 8.90625 1.453125 
Q 6.203125 4.046875 6.203125 8.109375 
" id="Cmmi10-74"/>
      </defs>
      <g transform="translate(77.9485714286 401.918125)scale(0.12 -0.12)">
       <use transform="translate(0.0 0.40625)" xlink:href="#Cmmi10-74"/>
       <use transform="translate(36.083984375 -16.6)scale(0.7)" xlink:href="#Cmr10-30"/>
      </g>
     </g>
    </g>
    <g id="xtick_2">
     <g id="line2d_7">
      <g>
       <use style="stroke:#000000;stroke-width:0.5;" x="188.914285714" xlink:href="#mf51655a267" y="388.8"/>
      </g>
     </g>
     <g id="text_2">
      <!-- $t_1$ -->
      <defs>
       <path d="M 9.28125 0 
L 9.28125 3.515625 
Q 21.78125 3.515625 21.78125 6.6875 
L 21.78125 59.1875 
Q 16.609375 56.6875 8.6875 56.6875 
L 8.6875 60.203125 
Q 20.953125 60.203125 27.203125 66.609375 
L 28.609375 66.609375 
Q 28.953125 66.609375 29.265625 66.328125 
Q 29.59375 66.0625 29.59375 65.71875 
L 29.59375 6.6875 
Q 29.59375 3.515625 42.09375 3.515625 
L 42.09375 0 
z
" id="Cmr10-31"/>
      </defs>
      <g transform="translate(184.234285714 401.918125)scale(0.12 -0.12)">
       <use transform="translate(0.0 0.40625)" xlink:href="#Cmmi10-74"/>
       <use transform="translate(36.083984375 -16.6)scale(0.7)" xlink:href="#Cmr10-31"/>
      </g>
     </g>
    </g>
    <g id="xtick_3">
     <g id="line2d_8">
      <g>
       <use style="stroke:#000000;stroke-width:0.5;" x="295.2" xlink:href="#mf51655a267" y="388.8"/>
      </g>
     </g>
     <g id="text_3">
      <!-- $t_2$ -->
      <defs>
       <path d="M 4.984375 0 
L 4.984375 2.6875 
Q 4.984375 2.9375 5.171875 3.21875 
L 20.703125 20.40625 
Q 24.21875 24.21875 26.40625 26.796875 
Q 28.609375 29.390625 30.75 32.765625 
Q 32.90625 36.140625 34.15625 39.625 
Q 35.40625 43.109375 35.40625 47.015625 
Q 35.40625 51.125 33.890625 54.859375 
Q 32.375 58.59375 29.375 60.84375 
Q 26.375 63.09375 22.125 63.09375 
Q 17.78125 63.09375 14.3125 60.46875 
Q 10.84375 57.859375 9.421875 53.71875 
Q 9.8125 53.8125 10.5 53.8125 
Q 12.75 53.8125 14.328125 52.296875 
Q 15.921875 50.78125 15.921875 48.390625 
Q 15.921875 46.09375 14.328125 44.5 
Q 12.75 42.921875 10.5 42.921875 
Q 8.15625 42.921875 6.5625 44.546875 
Q 4.984375 46.1875 4.984375 48.390625 
Q 4.984375 52.15625 6.390625 55.4375 
Q 7.8125 58.734375 10.46875 61.296875 
Q 13.140625 63.875 16.484375 65.234375 
Q 19.828125 66.609375 23.578125 66.609375 
Q 29.296875 66.609375 34.21875 64.1875 
Q 39.15625 61.765625 42.03125 57.34375 
Q 44.921875 52.9375 44.921875 47.015625 
Q 44.921875 42.671875 43.015625 38.765625 
Q 41.109375 34.859375 38.125 31.65625 
Q 35.15625 28.46875 30.515625 24.40625 
Q 25.875 20.359375 24.421875 19 
L 13.09375 8.109375 
L 22.703125 8.109375 
Q 29.78125 8.109375 34.546875 8.21875 
Q 39.3125 8.34375 39.59375 8.59375 
Q 40.765625 9.859375 42 17.828125 
L 44.921875 17.828125 
L 42.09375 0 
z
" id="Cmr10-32"/>
      </defs>
      <g transform="translate(290.52 401.918125)scale(0.12 -0.12)">
       <use transform="translate(0.0 0.40625)" xlink:href="#Cmmi10-74"/>
       <use transform="translate(36.083984375 -16.6)scale(0.7)" xlink:href="#Cmr10-32"/>
      </g>
     </g>
    </g>
    <g id="xtick_4">
     <g id="line2d_9">
      <g>
       <use style="stroke:#000000;stroke-width:0.5;" x="401.485714286" xlink:href="#mf51655a267" y="388.8"/>
      </g>
     </g>
     <g id="text_4">
      <!-- $t_3$ -->
      <defs>
       <path d="M 9.515625 7.71875 
Q 11.859375 4.296875 15.8125 2.640625 
Q 19.78125 0.984375 24.3125 0.984375 
Q 30.125 0.984375 32.5625 5.9375 
Q 35.015625 10.890625 35.015625 17.1875 
Q 35.015625 20.015625 34.5 22.84375 
Q 33.984375 25.6875 32.765625 28.125 
Q 31.546875 30.5625 29.421875 32.03125 
Q 27.296875 33.5 24.21875 33.5 
L 17.578125 33.5 
Q 16.703125 33.5 16.703125 34.421875 
L 16.703125 35.296875 
Q 16.703125 36.078125 17.578125 36.078125 
L 23.09375 36.53125 
Q 26.609375 36.53125 28.921875 39.15625 
Q 31.25 41.796875 32.328125 45.578125 
Q 33.40625 49.359375 33.40625 52.78125 
Q 33.40625 57.5625 31.15625 60.640625 
Q 28.90625 63.71875 24.3125 63.71875 
Q 20.515625 63.71875 17.046875 62.28125 
Q 13.578125 60.84375 11.53125 57.90625 
Q 11.71875 57.953125 11.859375 57.984375 
Q 12.015625 58.015625 12.203125 58.015625 
Q 14.453125 58.015625 15.96875 56.453125 
Q 17.484375 54.890625 17.484375 52.6875 
Q 17.484375 50.53125 15.96875 48.96875 
Q 14.453125 47.40625 12.203125 47.40625 
Q 10.015625 47.40625 8.453125 48.96875 
Q 6.890625 50.53125 6.890625 52.6875 
Q 6.890625 56.984375 9.46875 60.15625 
Q 12.0625 63.328125 16.140625 64.96875 
Q 20.21875 66.609375 24.3125 66.609375 
Q 27.34375 66.609375 30.703125 65.703125 
Q 34.078125 64.796875 36.8125 63.109375 
Q 39.546875 61.421875 41.28125 58.78125 
Q 43.015625 56.15625 43.015625 52.78125 
Q 43.015625 48.578125 41.140625 45.015625 
Q 39.265625 41.453125 35.984375 38.859375 
Q 32.71875 36.28125 28.8125 35.015625 
Q 33.15625 34.1875 37.0625 31.734375 
Q 40.96875 29.296875 43.328125 25.484375 
Q 45.703125 21.6875 45.703125 17.28125 
Q 45.703125 11.765625 42.671875 7.296875 
Q 39.65625 2.828125 34.71875 0.3125 
Q 29.78125 -2.203125 24.3125 -2.203125 
Q 19.625 -2.203125 14.90625 -0.40625 
Q 10.203125 1.375 7.203125 4.9375 
Q 4.203125 8.5 4.203125 13.484375 
Q 4.203125 15.96875 5.859375 17.625 
Q 7.515625 19.28125 10.015625 19.28125 
Q 11.625 19.28125 12.96875 18.53125 
Q 14.3125 17.78125 15.0625 16.40625 
Q 15.828125 15.046875 15.828125 13.484375 
Q 15.828125 11.03125 14.109375 9.375 
Q 12.40625 7.71875 10.015625 7.71875 
z
" id="Cmr10-33"/>
      </defs>
      <g transform="translate(396.805714286 401.918125)scale(0.12 -0.12)">
       <use transform="translate(0.0 0.40625)" xlink:href="#Cmmi10-74"/>
       <use transform="translate(36.083984375 -16.6)scale(0.7)" xlink:href="#Cmr10-33"/>
      </g>
     </g>
    </g>
    <g id="xtick_5">
     <g id="line2d_10">
      <g>
       <use style="stroke:#000000;stroke-width:0.5;" x="507.771428571" xlink:href="#mf51655a267" y="388.8"/>
      </g>
     </g>
     <g id="text_5">
      <!-- $t_4$ -->
      <defs>
       <path d="M 2.78125 16.5 
L 2.78125 20.015625 
L 33.6875 66.109375 
Q 34.03125 66.609375 34.71875 66.609375 
L 36.1875 66.609375 
Q 37.3125 66.609375 37.3125 65.484375 
L 37.3125 20.015625 
L 47.125 20.015625 
L 47.125 16.5 
L 37.3125 16.5 
L 37.3125 6.6875 
Q 37.3125 4.640625 40.234375 4.078125 
Q 43.171875 3.515625 47.015625 3.515625 
L 47.015625 0 
L 19.484375 0 
L 19.484375 3.515625 
Q 23.34375 3.515625 26.265625 4.078125 
Q 29.203125 4.640625 29.203125 6.6875 
L 29.203125 16.5 
z
M 6.109375 20.015625 
L 29.78125 20.015625 
L 29.78125 55.421875 
z
" id="Cmr10-34"/>
      </defs>
      <g transform="translate(503.091428571 401.918125)scale(0.12 -0.12)">
       <use transform="translate(0.0 0.40625)" xlink:href="#Cmmi10-74"/>
       <use transform="translate(36.083984375 -16.6)scale(0.7)" xlink:href="#Cmr10-34"/>
      </g>
     </g>
    </g>
   </g>
   <g id="matplotlib.axis_2">
    <g id="ytick_1">
     <g id="line2d_11">
      <defs>
       <path d="M 0 0 
L 4 0 
" id="mce51b65e7e" style="stroke:#000000;stroke-width:0.5;"/>
      </defs>
      <g>
       <use style="stroke:#000000;stroke-width:0.5;" x="72.0" xlink:href="#mce51b65e7e" y="388.8"/>
      </g>
     </g>
    </g>
    <g id="ytick_2">
     <g id="line2d_12">
      <g>
       <use style="stroke:#000000;stroke-width:0.5;" x="72.0" xlink:href="#mce51b65e7e" y="345.6"/>
      </g>
     </g>
    </g>
    <g id="ytick_3">
     <g id="line2d_13">
      <g>
       <use style="stroke:#000000;stroke-width:0.5;" x="72.0" xlink:href="#mce51b65e7e" y="302.4"/>
      </g>
     </g>
    </g>
    <g id="ytick_4">
     <g id="line2d_14">
      <g>
       <use style="stroke:#000000;stroke-width:0.5;" x="72.0" xlink:href="#mce51b65e7e" y="259.2"/>
      </g>
     </g>
    </g>
    <g id="ytick_5">
     <g id="line2d_15">
      <g>
       <use style="stroke:#000000;stroke-width:0.5;" x="72.0" xlink:href="#mce51b65e7e" y="216.0"/>
      </g>
     </g>
    </g>
    <g id="ytick_6">
     <g id="line2d_16">
      <g>
       <use style="stroke:#000000;stroke-width:0.5;" x="72.0" xlink:href="#mce51b65e7e" y="172.8"/>
      </g>
     </g>
    </g>
    <g id="ytick_7">
     <g id="line2d_17">
      <g>
       <use style="stroke:#000000;stroke-width:0.5;" x="72.0" xlink:href="#mce51b65e7e" y="129.6"/>
      </g>
     </g>
    </g>
    <g id="ytick_8">
     <g id="line2d_18">
      <g>
       <use style="stroke:#000000;stroke-width:0.5;" x="72.0" xlink:href="#mce51b65e7e" y="86.4"/>
      </g>
     </g>
    </g>
    <g id="ytick_9">
     <g id="line2d_19">
      <g>
       <use style="stroke:#000000;stroke-width:0.5;" x="72.0" xlink:href="#mce51b65e7e" y="43.2"/>
      </g>
     </g>
    </g>
    <g id="text_6">
     <!-- $x$ -->
     <defs>
      <path d="M 7.8125 2.875 
Q 9.578125 1.515625 12.796875 1.515625 
Q 15.921875 1.515625 18.3125 4.515625 
Q 20.703125 7.515625 21.578125 11.078125 
L 26.125 28.8125 
Q 27.203125 33.640625 27.203125 35.40625 
Q 27.203125 37.890625 25.8125 39.75 
Q 24.421875 41.609375 21.921875 41.609375 
Q 18.75 41.609375 15.96875 39.625 
Q 13.1875 37.640625 11.28125 34.59375 
Q 9.375 31.546875 8.59375 28.421875 
Q 8.40625 27.78125 7.8125 27.78125 
L 6.59375 27.78125 
Q 5.8125 27.78125 5.8125 28.71875 
L 5.8125 29 
Q 6.78125 32.71875 9.125 36.25 
Q 11.46875 39.796875 14.859375 41.984375 
Q 18.265625 44.1875 22.125 44.1875 
Q 25.78125 44.1875 28.734375 42.234375 
Q 31.6875 40.28125 32.90625 36.921875 
Q 34.625 39.984375 37.28125 42.078125 
Q 39.9375 44.1875 43.109375 44.1875 
Q 45.265625 44.1875 47.5 43.421875 
Q 49.75 42.671875 51.171875 41.109375 
Q 52.59375 39.546875 52.59375 37.203125 
Q 52.59375 34.671875 50.953125 32.828125 
Q 49.3125 31 46.78125 31 
Q 45.171875 31 44.09375 32.03125 
Q 43.015625 33.0625 43.015625 34.625 
Q 43.015625 36.71875 44.453125 38.296875 
Q 45.90625 39.890625 47.90625 40.1875 
Q 46.09375 41.609375 42.921875 41.609375 
Q 39.703125 41.609375 37.328125 38.625 
Q 34.96875 35.640625 33.984375 31.984375 
L 29.59375 14.3125 
Q 28.515625 10.296875 28.515625 7.71875 
Q 28.515625 5.171875 29.953125 3.34375 
Q 31.390625 1.515625 33.796875 1.515625 
Q 38.484375 1.515625 42.15625 5.640625 
Q 45.84375 9.765625 47.015625 14.703125 
Q 47.21875 15.28125 47.796875 15.28125 
L 49.03125 15.28125 
Q 49.421875 15.28125 49.65625 15.015625 
Q 49.90625 14.75 49.90625 14.40625 
Q 49.90625 14.3125 49.8125 14.109375 
Q 48.390625 8.15625 43.84375 3.515625 
Q 39.3125 -1.125 33.59375 -1.125 
Q 29.9375 -1.125 26.984375 0.84375 
Q 24.03125 2.828125 22.796875 6.203125 
Q 21.234375 3.265625 18.46875 1.0625 
Q 15.71875 -1.125 12.59375 -1.125 
Q 10.453125 -1.125 8.171875 -0.359375 
Q 5.90625 0.390625 4.484375 1.953125 
Q 3.078125 3.515625 3.078125 5.90625 
Q 3.078125 8.25 4.703125 10.171875 
Q 6.34375 12.109375 8.796875 12.109375 
Q 10.453125 12.109375 11.578125 11.109375 
Q 12.703125 10.109375 12.703125 8.5 
Q 12.703125 6.390625 11.296875 4.828125 
Q 9.90625 3.265625 7.8125 2.875 
" id="Cmmi10-78"/>
     </defs>
     <g transform="translate(57.36 40.704375)scale(0.12 -0.12)">
      <use transform="translate(0.0 0.8125)" xlink:href="#Cmmi10-78"/>
     </g>
    </g>
   </g>
   <g id="legend_1">
    <g id="line2d_20">
     <path d="M 89.28 62.06175 
L 109.44 62.06175 
" style="fill:none;stroke:#0000ff;stroke-linecap:square;stroke-width:2.0;"/>
    </g>
    <g id="line2d_21"/>
    <g id="text_7">
     <!-- $x(t)$ -->
     <defs>
      <path d="M 31 -24.8125 
Q 25.4375 -20.40625 21.40625 -14.71875 
Q 17.390625 -9.03125 14.8125 -2.578125 
Q 12.25 3.859375 10.984375 10.890625 
Q 9.71875 17.921875 9.71875 25 
Q 9.71875 32.171875 10.984375 39.203125 
Q 12.25 46.234375 14.859375 52.734375 
Q 17.484375 59.234375 21.53125 64.890625 
Q 25.59375 70.5625 31 74.8125 
Q 31 75 31.5 75 
L 32.421875 75 
Q 32.71875 75 32.953125 74.734375 
Q 33.203125 74.46875 33.203125 74.125 
Q 33.203125 73.6875 33.015625 73.484375 
Q 28.125 68.703125 24.875 63.234375 
Q 21.625 57.765625 19.640625 51.578125 
Q 17.671875 45.40625 16.796875 38.78125 
Q 15.921875 32.171875 15.921875 25 
Q 15.921875 -6.78125 32.90625 -23.296875 
Q 33.203125 -23.578125 33.203125 -24.125 
Q 33.203125 -24.359375 32.9375 -24.671875 
Q 32.671875 -25 32.421875 -25 
L 31.5 -25 
Q 31 -25 31 -24.8125 
" id="Cmr10-28"/>
      <path d="M 6.5 -25 
Q 5.609375 -25 5.609375 -24.125 
Q 5.609375 -23.6875 5.8125 -23.484375 
Q 22.90625 -6.78125 22.90625 25 
Q 22.90625 56.78125 6 73.296875 
Q 5.609375 73.53125 5.609375 74.125 
Q 5.609375 74.46875 5.875 74.734375 
Q 6.15625 75 6.5 75 
L 7.421875 75 
Q 7.71875 75 7.90625 74.8125 
Q 15.09375 69.140625 19.875 61.03125 
Q 24.65625 52.9375 26.875 43.75 
Q 29.109375 34.578125 29.109375 25 
Q 29.109375 17.921875 27.90625 11.0625 
Q 26.703125 4.203125 24.09375 -2.453125 
Q 21.484375 -9.125 17.484375 -14.765625 
Q 13.484375 -20.40625 7.90625 -24.8125 
Q 7.71875 -25 7.421875 -25 
z
" id="Cmr10-29"/>
     </defs>
     <g transform="translate(125.28 67.10175)scale(0.144 -0.144)">
      <use xlink:href="#Cmmi10-78"/>
      <use transform="translate(57.080078125 0.0)" xlink:href="#Cmr10-28"/>
      <use transform="translate(95.8984375 0.0)" xlink:href="#Cmmi10-74"/>
      <use transform="translate(131.982421875 0.0)" xlink:href="#Cmr10-29"/>
     </g>
    </g>
    <g id="line2d_22">
     <path d="M 89.28 83.8035 
L 109.44 83.8035 
" style="fill:none;stroke:#008000;stroke-linecap:square;"/>
    </g>
    <g id="line2d_23">
     <g>
      <use style="fill:#008000;stroke:#008000;stroke-width:0.5;" x="89.28" xlink:href="#m95d143ff3a" y="83.8035"/>
      <use style="fill:#008000;stroke:#008000;stroke-width:0.5;" x="109.44" xlink:href="#m95d143ff3a" y="83.8035"/>
     </g>
    </g>
    <g id="text_8">
     <!-- $x_i$ -->
     <defs>
      <path d="M 7.8125 7.171875 
Q 7.8125 9.03125 8.59375 11.078125 
L 16.703125 32.625 
Q 18.015625 36.28125 18.015625 38.625 
Q 18.015625 41.609375 15.828125 41.609375 
Q 11.859375 41.609375 9.296875 37.53125 
Q 6.734375 33.453125 5.515625 28.421875 
Q 5.328125 27.78125 4.6875 27.78125 
L 3.515625 27.78125 
Q 2.6875 27.78125 2.6875 28.71875 
L 2.6875 29 
Q 4.296875 34.96875 7.609375 39.578125 
Q 10.9375 44.1875 16.015625 44.1875 
Q 19.578125 44.1875 22.046875 41.84375 
Q 24.515625 39.5 24.515625 35.890625 
Q 24.515625 34.03125 23.6875 31.984375 
L 15.578125 10.5 
Q 14.203125 7.171875 14.203125 4.5 
Q 14.203125 1.515625 16.5 1.515625 
Q 20.40625 1.515625 23.015625 5.6875 
Q 25.640625 9.859375 26.703125 14.703125 
Q 26.90625 15.28125 27.484375 15.28125 
L 28.71875 15.28125 
Q 29.109375 15.28125 29.34375 15.015625 
Q 29.59375 14.75 29.59375 14.40625 
Q 29.59375 14.3125 29.5 14.109375 
Q 28.125 8.453125 24.734375 3.65625 
Q 21.34375 -1.125 16.3125 -1.125 
Q 12.796875 -1.125 10.296875 1.296875 
Q 7.8125 3.71875 7.8125 7.171875 
M 19.09375 60.59375 
Q 19.09375 62.703125 20.84375 64.40625 
Q 22.609375 66.109375 24.703125 66.109375 
Q 26.421875 66.109375 27.515625 65.0625 
Q 28.609375 64.015625 28.609375 62.40625 
Q 28.609375 60.15625 26.828125 58.46875 
Q 25.046875 56.78125 22.90625 56.78125 
Q 21.296875 56.78125 20.1875 57.875 
Q 19.09375 58.984375 19.09375 60.59375 
" id="Cmmi10-69"/>
     </defs>
     <g transform="translate(125.28 88.8435)scale(0.144 -0.144)">
      <use transform="translate(0.0 0.8125)" xlink:href="#Cmmi10-78"/>
      <use transform="translate(57.080078125 -16.19375)scale(0.7)" xlink:href="#Cmmi10-69"/>
     </g>
    </g>
   </g>
  </g>
 </g>
 <defs>
  <clipPath id="p3aafc046d4">
   <rect height="345.6" width="446.4" x="72.0" y="43.2"/>
  </clipPath>
 </defs>
</svg>
