<?xml version="1.0" encoding="utf-8" standalone="no"?>
<!DOCTYPE svg PUBLIC "-//W3C//DTD SVG 1.1//EN"
  "http://www.w3.org/Graphics/SVG/1.1/DTD/svg11.dtd">
<!-- Created with matplotlib (http://matplotlib.org/) -->
<svg height="432pt" version="1.1" viewBox="0 0 576 432" width="576pt" xmlns="http://www.w3.org/2000/svg" xmlns:xlink="http://www.w3.org/1999/xlink">
 <defs>
  <style type="text/css">
*{stroke-linecap:butt;stroke-linejoin:round;stroke-miterlimit:100000;}
  </style>
 </defs>
 <g id="figure_1">
  <g id="patch_1">
   <path d="M 0 432 
L 576 432 
L 576 0 
L 0 0 
z
" style="fill:#ffffff;"/>
  </g>
  <g id="axes_1">
   <g id="patch_2">
    <path d="M 72 388.8 
L 518.4 388.8 
L 518.4 43.2 
L 72 43.2 
z
" style="fill:#ffffff;"/>
   </g>
   <g id="PathCollection_1">
    <defs>
     <path d="M -2.236068 0 
L 2.236068 0 
M 0 2.236068 
L 0 -2.236068 
" id="mf3f4452552" style="stroke:#0000ff;"/>
    </defs>
    <g clip-path="url(#p599cc61b4c)">
     <use style="fill:#0000ff;stroke:#0000ff;" x="92.2909090909" xlink:href="#mf3f4452552" y="370.285714286"/>
     <use style="fill:#0000ff;stroke:#0000ff;" x="92.2909090909" xlink:href="#mf3f4452552" y="308.571428571"/>
     <use style="fill:#0000ff;stroke:#0000ff;" x="92.2909090909" xlink:href="#mf3f4452552" y="246.857142857"/>
     <use style="fill:#0000ff;stroke:#0000ff;" x="92.2909090909" xlink:href="#mf3f4452552" y="185.142857143"/>
     <use style="fill:#0000ff;stroke:#0000ff;" x="92.2909090909" xlink:href="#mf3f4452552" y="123.428571429"/>
     <use style="fill:#0000ff;stroke:#0000ff;" x="92.2909090909" xlink:href="#mf3f4452552" y="61.7142857143"/>
     <use style="fill:#0000ff;stroke:#0000ff;" x="159.927272727" xlink:href="#mf3f4452552" y="370.285714286"/>
     <use style="fill:#0000ff;stroke:#0000ff;" x="159.927272727" xlink:href="#mf3f4452552" y="308.571428571"/>
     <use style="fill:#0000ff;stroke:#0000ff;" x="159.927272727" xlink:href="#mf3f4452552" y="246.857142857"/>
     <use style="fill:#0000ff;stroke:#0000ff;" x="159.927272727" xlink:href="#mf3f4452552" y="185.142857143"/>
     <use style="fill:#0000ff;stroke:#0000ff;" x="159.927272727" xlink:href="#mf3f4452552" y="123.428571429"/>
     <use style="fill:#0000ff;stroke:#0000ff;" x="159.927272727" xlink:href="#mf3f4452552" y="61.7142857143"/>
     <use style="fill:#0000ff;stroke:#0000ff;" x="227.563636364" xlink:href="#mf3f4452552" y="370.285714286"/>
     <use style="fill:#0000ff;stroke:#0000ff;" x="227.563636364" xlink:href="#mf3f4452552" y="308.571428571"/>
     <use style="fill:#0000ff;stroke:#0000ff;" x="227.563636364" xlink:href="#mf3f4452552" y="246.857142857"/>
     <use style="fill:#0000ff;stroke:#0000ff;" x="227.563636364" xlink:href="#mf3f4452552" y="185.142857143"/>
     <use style="fill:#0000ff;stroke:#0000ff;" x="227.563636364" xlink:href="#mf3f4452552" y="123.428571429"/>
     <use style="fill:#0000ff;stroke:#0000ff;" x="227.563636364" xlink:href="#mf3f4452552" y="61.7142857143"/>
     <use style="fill:#0000ff;stroke:#0000ff;" x="295.2" xlink:href="#mf3f4452552" y="370.285714286"/>
     <use style="fill:#0000ff;stroke:#0000ff;" x="295.2" xlink:href="#mf3f4452552" y="308.571428571"/>
     <use style="fill:#0000ff;stroke:#0000ff;" x="295.2" xlink:href="#mf3f4452552" y="246.857142857"/>
     <use style="fill:#0000ff;stroke:#0000ff;" x="295.2" xlink:href="#mf3f4452552" y="185.142857143"/>
     <use style="fill:#0000ff;stroke:#0000ff;" x="295.2" xlink:href="#mf3f4452552" y="123.428571429"/>
     <use style="fill:#0000ff;stroke:#0000ff;" x="295.2" xlink:href="#mf3f4452552" y="61.7142857143"/>
     <use style="fill:#0000ff;stroke:#0000ff;" x="362.836363636" xlink:href="#mf3f4452552" y="370.285714286"/>
     <use style="fill:#0000ff;stroke:#0000ff;" x="362.836363636" xlink:href="#mf3f4452552" y="308.571428571"/>
     <use style="fill:#0000ff;stroke:#0000ff;" x="362.836363636" xlink:href="#mf3f4452552" y="246.857142857"/>
     <use style="fill:#0000ff;stroke:#0000ff;" x="362.836363636" xlink:href="#mf3f4452552" y="185.142857143"/>
     <use style="fill:#0000ff;stroke:#0000ff;" x="362.836363636" xlink:href="#mf3f4452552" y="123.428571429"/>
     <use style="fill:#0000ff;stroke:#0000ff;" x="362.836363636" xlink:href="#mf3f4452552" y="61.7142857143"/>
     <use style="fill:#0000ff;stroke:#0000ff;" x="430.472727273" xlink:href="#mf3f4452552" y="370.285714286"/>
     <use style="fill:#0000ff;stroke:#0000ff;" x="430.472727273" xlink:href="#mf3f4452552" y="308.571428571"/>
     <use style="fill:#0000ff;stroke:#0000ff;" x="430.472727273" xlink:href="#mf3f4452552" y="246.857142857"/>
     <use style="fill:#0000ff;stroke:#0000ff;" x="430.472727273" xlink:href="#mf3f4452552" y="185.142857143"/>
     <use style="fill:#0000ff;stroke:#0000ff;" x="430.472727273" xlink:href="#mf3f4452552" y="123.428571429"/>
     <use style="fill:#0000ff;stroke:#0000ff;" x="430.472727273" xlink:href="#mf3f4452552" y="61.7142857143"/>
     <use style="fill:#0000ff;stroke:#0000ff;" x="498.109090909" xlink:href="#mf3f4452552" y="370.285714286"/>
     <use style="fill:#0000ff;stroke:#0000ff;" x="498.109090909" xlink:href="#mf3f4452552" y="308.571428571"/>
     <use style="fill:#0000ff;stroke:#0000ff;" x="498.109090909" xlink:href="#mf3f4452552" y="246.857142857"/>
     <use style="fill:#0000ff;stroke:#0000ff;" x="498.109090909" xlink:href="#mf3f4452552" y="185.142857143"/>
     <use style="fill:#0000ff;stroke:#0000ff;" x="498.109090909" xlink:href="#mf3f4452552" y="123.428571429"/>
     <use style="fill:#0000ff;stroke:#0000ff;" x="498.109090909" xlink:href="#mf3f4452552" y="61.7142857143"/>
    </g>
   </g>
   <g id="PathCollection_2">
    <defs>
     <path d="M 0 2.236068 
C 0.593012 2.236068 1.161816 2.000462 1.581139 1.581139 
C 2.000462 1.161816 2.236068 0.593012 2.236068 0 
C 2.236068 -0.593012 2.000462 -1.161816 1.581139 -1.581139 
C 1.161816 -2.000462 0.593012 -2.236068 0 -2.236068 
C -0.593012 -2.236068 -1.161816 -2.000462 -1.581139 -1.581139 
C -2.000462 -1.161816 -2.236068 -0.593012 -2.236068 0 
C -2.236068 0.593012 -2.000462 1.161816 -1.581139 1.581139 
C -1.161816 2.000462 -0.593012 2.236068 0 2.236068 
z
" id="m5572070dc0" style="stroke:#000000;"/>
    </defs>
    <g clip-path="url(#p599cc61b4c)">
     <use style="fill:#0000ff;stroke:#000000;" x="227.563636364" xlink:href="#m5572070dc0" y="246.857142857"/>
     <use style="fill:#0000ff;stroke:#000000;" x="159.927272727" xlink:href="#m5572070dc0" y="308.571428571"/>
     <use style="fill:#0000ff;stroke:#000000;" x="227.563636364" xlink:href="#m5572070dc0" y="308.571428571"/>
     <use style="fill:#0000ff;stroke:#000000;" x="295.2" xlink:href="#m5572070dc0" y="308.571428571"/>
    </g>
   </g>
   <g id="PathCollection_3">
    <defs>
     <path d="M -2.236068 2.236068 
L 2.236068 2.236068 
L 2.236068 -2.236068 
L -2.236068 -2.236068 
z
" id="m20759dc2a9" style="stroke:#000000;"/>
    </defs>
    <g clip-path="url(#p599cc61b4c)">
     <use style="fill:#0000ff;stroke:#000000;" x="92.2909090909" xlink:href="#m20759dc2a9" y="308.571428571"/>
     <use style="fill:#0000ff;stroke:#000000;" x="92.2909090909" xlink:href="#m20759dc2a9" y="246.857142857"/>
     <use style="fill:#0000ff;stroke:#000000;" x="92.2909090909" xlink:href="#m20759dc2a9" y="185.142857143"/>
     <use style="fill:#0000ff;stroke:#000000;" x="92.2909090909" xlink:href="#m20759dc2a9" y="123.428571429"/>
     <use style="fill:#0000ff;stroke:#000000;" x="92.2909090909" xlink:href="#m20759dc2a9" y="61.7142857143"/>
     <use style="fill:#0000ff;stroke:#000000;" x="498.109090909" xlink:href="#m20759dc2a9" y="308.571428571"/>
     <use style="fill:#0000ff;stroke:#000000;" x="498.109090909" xlink:href="#m20759dc2a9" y="246.857142857"/>
     <use style="fill:#0000ff;stroke:#000000;" x="498.109090909" xlink:href="#m20759dc2a9" y="185.142857143"/>
     <use style="fill:#0000ff;stroke:#000000;" x="498.109090909" xlink:href="#m20759dc2a9" y="123.428571429"/>
     <use style="fill:#0000ff;stroke:#000000;" x="498.109090909" xlink:href="#m20759dc2a9" y="61.7142857143"/>
    </g>
   </g>
   <g id="PathCollection_4">
    <defs>
     <path d="M -0 3.162278 
L 3.162278 0 
L 0 -3.162278 
L -3.162278 -0 
z
" id="mec69222b2f" style="stroke:#000000;"/>
    </defs>
    <g clip-path="url(#p599cc61b4c)">
     <use style="fill:#0000ff;stroke:#000000;" x="92.2909090909" xlink:href="#mec69222b2f" y="370.285714286"/>
     <use style="fill:#0000ff;stroke:#000000;" x="159.927272727" xlink:href="#mec69222b2f" y="370.285714286"/>
     <use style="fill:#0000ff;stroke:#000000;" x="227.563636364" xlink:href="#mec69222b2f" y="370.285714286"/>
     <use style="fill:#0000ff;stroke:#000000;" x="295.2" xlink:href="#mec69222b2f" y="370.285714286"/>
     <use style="fill:#0000ff;stroke:#000000;" x="362.836363636" xlink:href="#mec69222b2f" y="370.285714286"/>
     <use style="fill:#0000ff;stroke:#000000;" x="430.472727273" xlink:href="#mec69222b2f" y="370.285714286"/>
     <use style="fill:#0000ff;stroke:#000000;" x="498.109090909" xlink:href="#mec69222b2f" y="370.285714286"/>
    </g>
   </g>
   <g id="patch_3">
    <path clip-path="url(#p599cc61b4c)" d="M 218.818977 254.836141 
L 215.232017 260.290965 
L 214.179842 259.330916 
L 166.834387 302.530916 
L 166.547431 302.269084 
L 213.892885 259.069084 
L 212.84071 258.109035 
z
" style="stroke:#000000;stroke-linejoin:miter;"/>
   </g>
   <g id="patch_4">
    <path clip-path="url(#p599cc61b4c)" d="M 227.563636 253.028571 
L 229.254545 259.2 
L 227.766545 259.2 
L 227.766545 302.4 
L 227.360727 302.4 
L 227.360727 259.2 
L 225.872727 259.2 
z
" style="stroke:#000000;stroke-linejoin:miter;"/>
   </g>
   <g id="patch_5">
    <path clip-path="url(#p599cc61b4c)" d="M 236.308296 254.836141 
L 242.286562 258.109035 
L 241.234387 259.069084 
L 288.579842 302.269084 
L 288.292885 302.530916 
L 240.947431 259.330916 
L 239.895256 260.290965 
z
" style="stroke:#000000;stroke-linejoin:miter;"/>
   </g>
   <g id="patch_6">
    <path d="M 88.232727 370.285714 
L 502.167273 370.285714 
" style="fill:none;stroke:#000000;stroke-linecap:square;stroke-linejoin:miter;"/>
   </g>
   <g id="patch_7">
    <path d="M 92.290909 373.988571 
L 92.290909 58.011429 
" style="fill:none;stroke:#000000;stroke-linecap:square;stroke-linejoin:miter;"/>
   </g>
   <g id="matplotlib.axis_1">
    <g id="xtick_1">
     <g id="text_1">
      <!-- $x_0$ -->
      <defs>
       <path d="M 7.8125 2.875 
Q 9.578125 1.515625 12.796875 1.515625 
Q 15.921875 1.515625 18.3125 4.515625 
Q 20.703125 7.515625 21.578125 11.078125 
L 26.125 28.8125 
Q 27.203125 33.640625 27.203125 35.40625 
Q 27.203125 37.890625 25.8125 39.75 
Q 24.421875 41.609375 21.921875 41.609375 
Q 18.75 41.609375 15.96875 39.625 
Q 13.1875 37.640625 11.28125 34.59375 
Q 9.375 31.546875 8.59375 28.421875 
Q 8.40625 27.78125 7.8125 27.78125 
L 6.59375 27.78125 
Q 5.8125 27.78125 5.8125 28.71875 
L 5.8125 29 
Q 6.78125 32.71875 9.125 36.25 
Q 11.46875 39.796875 14.859375 41.984375 
Q 18.265625 44.1875 22.125 44.1875 
Q 25.78125 44.1875 28.734375 42.234375 
Q 31.6875 40.28125 32.90625 36.921875 
Q 34.625 39.984375 37.28125 42.078125 
Q 39.9375 44.1875 43.109375 44.1875 
Q 45.265625 44.1875 47.5 43.421875 
Q 49.75 42.671875 51.171875 41.109375 
Q 52.59375 39.546875 52.59375 37.203125 
Q 52.59375 34.671875 50.953125 32.828125 
Q 49.3125 31 46.78125 31 
Q 45.171875 31 44.09375 32.03125 
Q 43.015625 33.0625 43.015625 34.625 
Q 43.015625 36.71875 44.453125 38.296875 
Q 45.90625 39.890625 47.90625 40.1875 
Q 46.09375 41.609375 42.921875 41.609375 
Q 39.703125 41.609375 37.328125 38.625 
Q 34.96875 35.640625 33.984375 31.984375 
L 29.59375 14.3125 
Q 28.515625 10.296875 28.515625 7.71875 
Q 28.515625 5.171875 29.953125 3.34375 
Q 31.390625 1.515625 33.796875 1.515625 
Q 38.484375 1.515625 42.15625 5.640625 
Q 45.84375 9.765625 47.015625 14.703125 
Q 47.21875 15.28125 47.796875 15.28125 
L 49.03125 15.28125 
Q 49.421875 15.28125 49.65625 15.015625 
Q 49.90625 14.75 49.90625 14.40625 
Q 49.90625 14.3125 49.8125 14.109375 
Q 48.390625 8.15625 43.84375 3.515625 
Q 39.3125 -1.125 33.59375 -1.125 
Q 29.9375 -1.125 26.984375 0.84375 
Q 24.03125 2.828125 22.796875 6.203125 
Q 21.234375 3.265625 18.46875 1.0625 
Q 15.71875 -1.125 12.59375 -1.125 
Q 10.453125 -1.125 8.171875 -0.359375 
Q 5.90625 0.390625 4.484375 1.953125 
Q 3.078125 3.515625 3.078125 5.90625 
Q 3.078125 8.25 4.703125 10.171875 
Q 6.34375 12.109375 8.796875 12.109375 
Q 10.453125 12.109375 11.578125 11.109375 
Q 12.703125 10.109375 12.703125 8.5 
Q 12.703125 6.390625 11.296875 4.828125 
Q 9.90625 3.265625 7.8125 2.875 
" id="Cmmi10-78"/>
       <path d="M 25 -2.203125 
Q 12.75 -2.203125 8.328125 7.875 
Q 3.90625 17.96875 3.90625 31.890625 
Q 3.90625 40.578125 5.484375 48.234375 
Q 7.078125 55.90625 11.78125 61.25 
Q 16.5 66.609375 25 66.609375 
Q 31.59375 66.609375 35.78125 63.375 
Q 39.984375 60.15625 42.1875 55.046875 
Q 44.390625 49.953125 45.1875 44.109375 
Q 46 38.28125 46 31.890625 
Q 46 23.296875 44.40625 15.796875 
Q 42.828125 8.296875 38.1875 3.046875 
Q 33.546875 -2.203125 25 -2.203125 
M 25 0.390625 
Q 30.5625 0.390625 33.296875 6.09375 
Q 36.03125 11.8125 36.671875 18.75 
Q 37.3125 25.6875 37.3125 33.5 
Q 37.3125 41.015625 36.671875 47.359375 
Q 36.03125 53.71875 33.3125 58.859375 
Q 30.609375 64.015625 25 64.015625 
Q 19.34375 64.015625 16.609375 58.828125 
Q 13.875 53.65625 13.234375 47.328125 
Q 12.59375 41.015625 12.59375 33.5 
Q 12.59375 27.9375 12.859375 23 
Q 13.140625 18.0625 14.3125 12.8125 
Q 15.484375 7.5625 18.09375 3.96875 
Q 20.703125 0.390625 25 0.390625 
" id="Cmr10-30"/>
      </defs>
      <g transform="translate(86.3509090909 383.403839286)scale(0.12 -0.12)">
       <use transform="translate(0.0 0.8125)" xlink:href="#Cmmi10-78"/>
       <use transform="translate(57.080078125 -16.19375)scale(0.7)" xlink:href="#Cmr10-30"/>
      </g>
     </g>
    </g>
    <g id="xtick_2">
     <g id="text_2">
      <!-- $x_1$ -->
      <defs>
       <path d="M 9.28125 0 
L 9.28125 3.515625 
Q 21.78125 3.515625 21.78125 6.6875 
L 21.78125 59.1875 
Q 16.609375 56.6875 8.6875 56.6875 
L 8.6875 60.203125 
Q 20.953125 60.203125 27.203125 66.609375 
L 28.609375 66.609375 
Q 28.953125 66.609375 29.265625 66.328125 
Q 29.59375 66.0625 29.59375 65.71875 
L 29.59375 6.6875 
Q 29.59375 3.515625 42.09375 3.515625 
L 42.09375 0 
z
" id="Cmr10-31"/>
      </defs>
      <g transform="translate(153.987272727 383.403839286)scale(0.12 -0.12)">
       <use transform="translate(0.0 0.8125)" xlink:href="#Cmmi10-78"/>
       <use transform="translate(57.080078125 -16.19375)scale(0.7)" xlink:href="#Cmr10-31"/>
      </g>
     </g>
    </g>
    <g id="xtick_3">
     <g id="text_3">
      <!-- $x_2$ -->
      <defs>
       <path d="M 4.984375 0 
L 4.984375 2.6875 
Q 4.984375 2.9375 5.171875 3.21875 
L 20.703125 20.40625 
Q 24.21875 24.21875 26.40625 26.796875 
Q 28.609375 29.390625 30.75 32.765625 
Q 32.90625 36.140625 34.15625 39.625 
Q 35.40625 43.109375 35.40625 47.015625 
Q 35.40625 51.125 33.890625 54.859375 
Q 32.375 58.59375 29.375 60.84375 
Q 26.375 63.09375 22.125 63.09375 
Q 17.78125 63.09375 14.3125 60.46875 
Q 10.84375 57.859375 9.421875 53.71875 
Q 9.8125 53.8125 10.5 53.8125 
Q 12.75 53.8125 14.328125 52.296875 
Q 15.921875 50.78125 15.921875 48.390625 
Q 15.921875 46.09375 14.328125 44.5 
Q 12.75 42.921875 10.5 42.921875 
Q 8.15625 42.921875 6.5625 44.546875 
Q 4.984375 46.1875 4.984375 48.390625 
Q 4.984375 52.15625 6.390625 55.4375 
Q 7.8125 58.734375 10.46875 61.296875 
Q 13.140625 63.875 16.484375 65.234375 
Q 19.828125 66.609375 23.578125 66.609375 
Q 29.296875 66.609375 34.21875 64.1875 
Q 39.15625 61.765625 42.03125 57.34375 
Q 44.921875 52.9375 44.921875 47.015625 
Q 44.921875 42.671875 43.015625 38.765625 
Q 41.109375 34.859375 38.125 31.65625 
Q 35.15625 28.46875 30.515625 24.40625 
Q 25.875 20.359375 24.421875 19 
L 13.09375 8.109375 
L 22.703125 8.109375 
Q 29.78125 8.109375 34.546875 8.21875 
Q 39.3125 8.34375 39.59375 8.59375 
Q 40.765625 9.859375 42 17.828125 
L 44.921875 17.828125 
L 42.09375 0 
z
" id="Cmr10-32"/>
      </defs>
      <g transform="translate(221.623636364 383.403839286)scale(0.12 -0.12)">
       <use transform="translate(0.0 0.8125)" xlink:href="#Cmmi10-78"/>
       <use transform="translate(57.080078125 -16.19375)scale(0.7)" xlink:href="#Cmr10-32"/>
      </g>
     </g>
    </g>
    <g id="xtick_4">
     <g id="text_4">
      <!-- $x_3$ -->
      <defs>
       <path d="M 9.515625 7.71875 
Q 11.859375 4.296875 15.8125 2.640625 
Q 19.78125 0.984375 24.3125 0.984375 
Q 30.125 0.984375 32.5625 5.9375 
Q 35.015625 10.890625 35.015625 17.1875 
Q 35.015625 20.015625 34.5 22.84375 
Q 33.984375 25.6875 32.765625 28.125 
Q 31.546875 30.5625 29.421875 32.03125 
Q 27.296875 33.5 24.21875 33.5 
L 17.578125 33.5 
Q 16.703125 33.5 16.703125 34.421875 
L 16.703125 35.296875 
Q 16.703125 36.078125 17.578125 36.078125 
L 23.09375 36.53125 
Q 26.609375 36.53125 28.921875 39.15625 
Q 31.25 41.796875 32.328125 45.578125 
Q 33.40625 49.359375 33.40625 52.78125 
Q 33.40625 57.5625 31.15625 60.640625 
Q 28.90625 63.71875 24.3125 63.71875 
Q 20.515625 63.71875 17.046875 62.28125 
Q 13.578125 60.84375 11.53125 57.90625 
Q 11.71875 57.953125 11.859375 57.984375 
Q 12.015625 58.015625 12.203125 58.015625 
Q 14.453125 58.015625 15.96875 56.453125 
Q 17.484375 54.890625 17.484375 52.6875 
Q 17.484375 50.53125 15.96875 48.96875 
Q 14.453125 47.40625 12.203125 47.40625 
Q 10.015625 47.40625 8.453125 48.96875 
Q 6.890625 50.53125 6.890625 52.6875 
Q 6.890625 56.984375 9.46875 60.15625 
Q 12.0625 63.328125 16.140625 64.96875 
Q 20.21875 66.609375 24.3125 66.609375 
Q 27.34375 66.609375 30.703125 65.703125 
Q 34.078125 64.796875 36.8125 63.109375 
Q 39.546875 61.421875 41.28125 58.78125 
Q 43.015625 56.15625 43.015625 52.78125 
Q 43.015625 48.578125 41.140625 45.015625 
Q 39.265625 41.453125 35.984375 38.859375 
Q 32.71875 36.28125 28.8125 35.015625 
Q 33.15625 34.1875 37.0625 31.734375 
Q 40.96875 29.296875 43.328125 25.484375 
Q 45.703125 21.6875 45.703125 17.28125 
Q 45.703125 11.765625 42.671875 7.296875 
Q 39.65625 2.828125 34.71875 0.3125 
Q 29.78125 -2.203125 24.3125 -2.203125 
Q 19.625 -2.203125 14.90625 -0.40625 
Q 10.203125 1.375 7.203125 4.9375 
Q 4.203125 8.5 4.203125 13.484375 
Q 4.203125 15.96875 5.859375 17.625 
Q 7.515625 19.28125 10.015625 19.28125 
Q 11.625 19.28125 12.96875 18.53125 
Q 14.3125 17.78125 15.0625 16.40625 
Q 15.828125 15.046875 15.828125 13.484375 
Q 15.828125 11.03125 14.109375 9.375 
Q 12.40625 7.71875 10.015625 7.71875 
z
" id="Cmr10-33"/>
      </defs>
      <g transform="translate(289.26 383.403839286)scale(0.12 -0.12)">
       <use transform="translate(0.0 0.8125)" xlink:href="#Cmmi10-78"/>
       <use transform="translate(57.080078125 -16.19375)scale(0.7)" xlink:href="#Cmr10-33"/>
      </g>
     </g>
    </g>
    <g id="xtick_5">
     <g id="text_5">
      <!-- $x_4$ -->
      <defs>
       <path d="M 2.78125 16.5 
L 2.78125 20.015625 
L 33.6875 66.109375 
Q 34.03125 66.609375 34.71875 66.609375 
L 36.1875 66.609375 
Q 37.3125 66.609375 37.3125 65.484375 
L 37.3125 20.015625 
L 47.125 20.015625 
L 47.125 16.5 
L 37.3125 16.5 
L 37.3125 6.6875 
Q 37.3125 4.640625 40.234375 4.078125 
Q 43.171875 3.515625 47.015625 3.515625 
L 47.015625 0 
L 19.484375 0 
L 19.484375 3.515625 
Q 23.34375 3.515625 26.265625 4.078125 
Q 29.203125 4.640625 29.203125 6.6875 
L 29.203125 16.5 
z
M 6.109375 20.015625 
L 29.78125 20.015625 
L 29.78125 55.421875 
z
" id="Cmr10-34"/>
      </defs>
      <g transform="translate(356.896363636 383.403839286)scale(0.12 -0.12)">
       <use transform="translate(0.0 0.8125)" xlink:href="#Cmmi10-78"/>
       <use transform="translate(57.080078125 -16.19375)scale(0.7)" xlink:href="#Cmr10-34"/>
      </g>
     </g>
    </g>
    <g id="xtick_6">
     <g id="text_6">
      <!-- $x_5$ -->
      <defs>
       <path d="M 8.6875 11.375 
Q 9.71875 8.453125 11.84375 6.046875 
Q 13.96875 3.65625 16.875 2.3125 
Q 19.78125 0.984375 22.90625 0.984375 
Q 30.125 0.984375 32.859375 6.59375 
Q 35.59375 12.203125 35.59375 20.21875 
Q 35.59375 23.6875 35.46875 26.046875 
Q 35.359375 28.421875 34.8125 30.609375 
Q 33.890625 34.125 31.5625 36.765625 
Q 29.25 39.40625 25.875 39.40625 
Q 22.515625 39.40625 20.09375 38.375 
Q 17.671875 37.359375 16.15625 35.984375 
Q 14.65625 34.625 13.484375 33.109375 
Q 12.3125 31.59375 12.015625 31.5 
L 10.890625 31.5 
Q 10.640625 31.5 10.265625 31.8125 
Q 9.90625 32.125 9.90625 32.421875 
L 9.90625 65.828125 
Q 9.90625 66.0625 10.21875 66.328125 
Q 10.546875 66.609375 10.890625 66.609375 
L 11.1875 66.609375 
Q 17.921875 63.375 25.484375 63.375 
Q 32.90625 63.375 39.796875 66.609375 
L 40.09375 66.609375 
Q 40.4375 66.609375 40.71875 66.359375 
Q 41.015625 66.109375 41.015625 65.828125 
L 41.015625 64.890625 
Q 41.015625 64.40625 40.828125 64.40625 
Q 37.40625 59.859375 32.25 57.3125 
Q 27.09375 54.78125 21.578125 54.78125 
Q 17.578125 54.78125 13.375 55.90625 
L 13.375 37.015625 
Q 16.703125 39.703125 19.3125 40.84375 
Q 21.921875 42 25.984375 42 
Q 31.5 42 35.859375 38.8125 
Q 40.234375 35.640625 42.578125 30.53125 
Q 44.921875 25.4375 44.921875 20.125 
Q 44.921875 14.109375 41.96875 8.984375 
Q 39.015625 3.859375 33.9375 0.828125 
Q 28.859375 -2.203125 22.90625 -2.203125 
Q 17.96875 -2.203125 13.84375 0.328125 
Q 9.71875 2.875 7.34375 7.171875 
Q 4.984375 11.46875 4.984375 16.3125 
Q 4.984375 18.5625 6.4375 19.96875 
Q 7.90625 21.390625 10.109375 21.390625 
Q 12.3125 21.390625 13.796875 19.9375 
Q 15.28125 18.5 15.28125 16.3125 
Q 15.28125 14.15625 13.796875 12.671875 
Q 12.3125 11.1875 10.109375 11.1875 
Q 9.765625 11.1875 9.328125 11.25 
Q 8.890625 11.328125 8.6875 11.375 
" id="Cmr10-35"/>
      </defs>
      <g transform="translate(424.532727273 383.403839286)scale(0.12 -0.12)">
       <use transform="translate(0.0 0.8125)" xlink:href="#Cmmi10-78"/>
       <use transform="translate(57.080078125 -16.19375)scale(0.7)" xlink:href="#Cmr10-35"/>
      </g>
     </g>
    </g>
    <g id="xtick_7">
     <g id="text_7">
      <!-- $x_6$ -->
      <defs>
       <path d="M 25 -2.203125 
Q 18.796875 -2.203125 14.640625 1.09375 
Q 10.5 4.390625 8.21875 9.640625 
Q 5.953125 14.890625 5.078125 20.65625 
Q 4.203125 26.421875 4.203125 32.328125 
Q 4.203125 40.234375 7.28125 48.1875 
Q 10.359375 56.15625 16.328125 61.375 
Q 22.3125 66.609375 30.515625 66.609375 
Q 33.9375 66.609375 36.890625 65.3125 
Q 39.84375 64.015625 41.53125 61.5 
Q 43.21875 58.984375 43.21875 55.421875 
Q 43.21875 53.375 41.828125 51.984375 
Q 40.4375 50.59375 38.375 50.59375 
Q 36.421875 50.59375 35 52 
Q 33.59375 53.421875 33.59375 55.421875 
Q 33.59375 57.375 35 58.78125 
Q 36.421875 60.203125 38.375 60.203125 
L 38.921875 60.203125 
Q 37.640625 62.015625 35.328125 62.859375 
Q 33.015625 63.71875 30.515625 63.71875 
Q 27.484375 63.71875 24.921875 62.390625 
Q 22.359375 61.078125 20.3125 58.828125 
Q 18.265625 56.59375 16.890625 53.875 
Q 15.53125 51.171875 14.765625 47.703125 
Q 14.015625 44.234375 13.8125 41.203125 
Q 13.625 38.1875 13.625 33.59375 
Q 15.375 37.703125 18.59375 40.3125 
Q 21.828125 42.921875 25.875 42.921875 
Q 30.328125 42.921875 33.984375 41.109375 
Q 37.640625 39.3125 40.28125 36.109375 
Q 42.921875 32.90625 44.3125 28.796875 
Q 45.703125 24.703125 45.703125 20.515625 
Q 45.703125 14.65625 43.09375 9.34375 
Q 40.484375 4.046875 35.734375 0.921875 
Q 31 -2.203125 25 -2.203125 
M 25 0.984375 
Q 28.859375 0.984375 31.203125 2.734375 
Q 33.546875 4.5 34.640625 7.390625 
Q 35.75 10.296875 36.015625 13.25 
Q 36.28125 16.21875 36.28125 20.515625 
Q 36.28125 26.171875 35.734375 30.171875 
Q 35.203125 34.1875 32.8125 37.234375 
Q 30.421875 40.28125 25.484375 40.28125 
Q 21.4375 40.28125 18.828125 37.546875 
Q 16.21875 34.8125 15.015625 30.640625 
Q 13.8125 26.46875 13.8125 22.609375 
Q 13.8125 21.296875 13.921875 20.609375 
Q 13.921875 20.453125 13.890625 20.359375 
Q 13.875 20.265625 13.8125 20.125 
Q 13.8125 15.828125 14.6875 11.421875 
Q 15.578125 7.03125 18.0625 4 
Q 20.5625 0.984375 25 0.984375 
" id="Cmr10-36"/>
      </defs>
      <g transform="translate(492.169090909 383.403839286)scale(0.12 -0.12)">
       <use transform="translate(0.0 0.8125)" xlink:href="#Cmmi10-78"/>
       <use transform="translate(57.080078125 -16.19375)scale(0.7)" xlink:href="#Cmr10-36"/>
      </g>
     </g>
    </g>
    <g id="text_8">
     <!-- $x$ -->
     <g transform="translate(514.92 406.558125)scale(0.12 -0.12)">
      <use transform="translate(0.0 0.8125)" xlink:href="#Cmmi10-78"/>
     </g>
    </g>
   </g>
   <g id="matplotlib.axis_2">
    <g id="ytick_1">
     <g id="text_9">
      <!-- $t_0$ -->
      <defs>
       <path d="M 6.203125 8.109375 
Q 6.203125 9.578125 6.5 10.890625 
L 13.71875 39.59375 
L 3.21875 39.59375 
Q 2.203125 39.59375 2.203125 40.921875 
Q 2.59375 43.109375 3.515625 43.109375 
L 14.59375 43.109375 
L 18.609375 59.421875 
Q 19 60.75 20.171875 61.671875 
Q 21.34375 62.59375 22.796875 62.59375 
Q 24.078125 62.59375 24.921875 61.828125 
Q 25.78125 61.078125 25.78125 59.8125 
Q 25.78125 59.515625 25.75 59.34375 
Q 25.734375 59.1875 25.6875 58.984375 
L 21.6875 43.109375 
L 31.984375 43.109375 
Q 33.015625 43.109375 33.015625 41.796875 
Q 32.953125 41.546875 32.8125 40.953125 
Q 32.671875 40.375 32.421875 39.984375 
Q 32.171875 39.59375 31.6875 39.59375 
L 20.796875 39.59375 
L 13.625 10.6875 
Q 12.890625 7.859375 12.890625 5.8125 
Q 12.890625 1.515625 15.828125 1.515625 
Q 20.21875 1.515625 23.609375 5.640625 
Q 27 9.765625 28.8125 14.703125 
Q 29.203125 15.28125 29.59375 15.28125 
L 30.8125 15.28125 
Q 31.203125 15.28125 31.4375 15.015625 
Q 31.6875 14.75 31.6875 14.40625 
Q 31.6875 14.203125 31.59375 14.109375 
Q 29.390625 8.0625 25.1875 3.46875 
Q 21 -1.125 15.578125 -1.125 
Q 11.625 -1.125 8.90625 1.453125 
Q 6.203125 4.046875 6.203125 8.109375 
" id="Cmmi10-74"/>
      </defs>
      <g transform="translate(78.9309090909 373.596964286)scale(0.12 -0.12)">
       <use transform="translate(0.0 0.40625)" xlink:href="#Cmmi10-74"/>
       <use transform="translate(36.083984375 -16.6)scale(0.7)" xlink:href="#Cmr10-30"/>
      </g>
     </g>
    </g>
    <g id="ytick_2">
     <g id="text_10">
      <!-- $t_1$ -->
      <g transform="translate(78.9309090909 311.882678571)scale(0.12 -0.12)">
       <use transform="translate(0.0 0.40625)" xlink:href="#Cmmi10-74"/>
       <use transform="translate(36.083984375 -16.6)scale(0.7)" xlink:href="#Cmr10-31"/>
      </g>
     </g>
    </g>
    <g id="ytick_3">
     <g id="text_11">
      <!-- $t_2$ -->
      <g transform="translate(78.9309090909 250.168392857)scale(0.12 -0.12)">
       <use transform="translate(0.0 0.40625)" xlink:href="#Cmmi10-74"/>
       <use transform="translate(36.083984375 -16.6)scale(0.7)" xlink:href="#Cmr10-32"/>
      </g>
     </g>
    </g>
    <g id="ytick_4">
     <g id="text_12">
      <!-- $t_3$ -->
      <g transform="translate(78.9309090909 188.454107143)scale(0.12 -0.12)">
       <use transform="translate(0.0 0.40625)" xlink:href="#Cmmi10-74"/>
       <use transform="translate(36.083984375 -16.6)scale(0.7)" xlink:href="#Cmr10-33"/>
      </g>
     </g>
    </g>
    <g id="ytick_5">
     <g id="text_13">
      <!-- $t_4$ -->
      <g transform="translate(78.9309090909 126.739821429)scale(0.12 -0.12)">
       <use transform="translate(0.0 0.40625)" xlink:href="#Cmmi10-74"/>
       <use transform="translate(36.083984375 -16.6)scale(0.7)" xlink:href="#Cmr10-34"/>
      </g>
     </g>
    </g>
    <g id="ytick_6">
     <g id="text_14">
      <!-- $t_5$ -->
      <g transform="translate(78.9309090909 65.0255357143)scale(0.12 -0.12)">
       <use transform="translate(0.0 0.40625)" xlink:href="#Cmmi10-74"/>
       <use transform="translate(36.083984375 -16.6)scale(0.7)" xlink:href="#Cmr10-35"/>
      </g>
     </g>
    </g>
    <g id="text_15">
     <!-- $t$ -->
     <g transform="translate(58.62 40.704375)scale(0.12 -0.12)">
      <use transform="translate(0.0 0.40625)" xlink:href="#Cmmi10-74"/>
     </g>
    </g>
   </g>
   <g id="text_16">
    <!-- $(x_i, t_{i+1})$ -->
    <defs>
     <path d="M 31 -24.8125 
Q 25.4375 -20.40625 21.40625 -14.71875 
Q 17.390625 -9.03125 14.8125 -2.578125 
Q 12.25 3.859375 10.984375 10.890625 
Q 9.71875 17.921875 9.71875 25 
Q 9.71875 32.171875 10.984375 39.203125 
Q 12.25 46.234375 14.859375 52.734375 
Q 17.484375 59.234375 21.53125 64.890625 
Q 25.59375 70.5625 31 74.8125 
Q 31 75 31.5 75 
L 32.421875 75 
Q 32.71875 75 32.953125 74.734375 
Q 33.203125 74.46875 33.203125 74.125 
Q 33.203125 73.6875 33.015625 73.484375 
Q 28.125 68.703125 24.875 63.234375 
Q 21.625 57.765625 19.640625 51.578125 
Q 17.671875 45.40625 16.796875 38.78125 
Q 15.921875 32.171875 15.921875 25 
Q 15.921875 -6.78125 32.90625 -23.296875 
Q 33.203125 -23.578125 33.203125 -24.125 
Q 33.203125 -24.359375 32.9375 -24.671875 
Q 32.671875 -25 32.421875 -25 
L 31.5 -25 
Q 31 -25 31 -24.8125 
" id="Cmr10-28"/>
     <path d="M 7.8125 7.171875 
Q 7.8125 9.03125 8.59375 11.078125 
L 16.703125 32.625 
Q 18.015625 36.28125 18.015625 38.625 
Q 18.015625 41.609375 15.828125 41.609375 
Q 11.859375 41.609375 9.296875 37.53125 
Q 6.734375 33.453125 5.515625 28.421875 
Q 5.328125 27.78125 4.6875 27.78125 
L 3.515625 27.78125 
Q 2.6875 27.78125 2.6875 28.71875 
L 2.6875 29 
Q 4.296875 34.96875 7.609375 39.578125 
Q 10.9375 44.1875 16.015625 44.1875 
Q 19.578125 44.1875 22.046875 41.84375 
Q 24.515625 39.5 24.515625 35.890625 
Q 24.515625 34.03125 23.6875 31.984375 
L 15.578125 10.5 
Q 14.203125 7.171875 14.203125 4.5 
Q 14.203125 1.515625 16.5 1.515625 
Q 20.40625 1.515625 23.015625 5.6875 
Q 25.640625 9.859375 26.703125 14.703125 
Q 26.90625 15.28125 27.484375 15.28125 
L 28.71875 15.28125 
Q 29.109375 15.28125 29.34375 15.015625 
Q 29.59375 14.75 29.59375 14.40625 
Q 29.59375 14.3125 29.5 14.109375 
Q 28.125 8.453125 24.734375 3.65625 
Q 21.34375 -1.125 16.3125 -1.125 
Q 12.796875 -1.125 10.296875 1.296875 
Q 7.8125 3.71875 7.8125 7.171875 
M 19.09375 60.59375 
Q 19.09375 62.703125 20.84375 64.40625 
Q 22.609375 66.109375 24.703125 66.109375 
Q 26.421875 66.109375 27.515625 65.0625 
Q 28.609375 64.015625 28.609375 62.40625 
Q 28.609375 60.15625 26.828125 58.46875 
Q 25.046875 56.78125 22.90625 56.78125 
Q 21.296875 56.78125 20.1875 57.875 
Q 19.09375 58.984375 19.09375 60.59375 
" id="Cmmi10-69"/>
     <path d="M 7.515625 23 
Q 6.6875 23 6.140625 23.625 
Q 5.609375 24.265625 5.609375 25 
Q 5.609375 25.734375 6.140625 26.359375 
Q 6.6875 27 7.515625 27 
L 36.921875 27 
L 36.921875 56.5 
Q 36.921875 57.28125 37.5 57.78125 
Q 38.09375 58.296875 38.921875 58.296875 
Q 39.65625 58.296875 40.28125 57.78125 
Q 40.921875 57.28125 40.921875 56.5 
L 40.921875 27 
L 70.3125 27 
Q 71.046875 27 71.578125 26.359375 
Q 72.125 25.734375 72.125 25 
Q 72.125 24.265625 71.578125 23.625 
Q 71.046875 23 70.3125 23 
L 40.921875 23 
L 40.921875 -6.5 
Q 40.921875 -7.28125 40.28125 -7.78125 
Q 39.65625 -8.296875 38.921875 -8.296875 
Q 38.09375 -8.296875 37.5 -7.78125 
Q 36.921875 -7.28125 36.921875 -6.5 
L 36.921875 23 
z
" id="Cmr10-2b"/>
     <path d="M 9.90625 -18.015625 
Q 9.90625 -17.578125 10.296875 -17.1875 
Q 13.921875 -13.71875 15.921875 -9.171875 
Q 17.921875 -4.640625 17.921875 0.390625 
L 17.921875 1.609375 
Q 16.3125 0 13.921875 0 
Q 11.625 0 10.015625 1.609375 
Q 8.40625 3.21875 8.40625 5.515625 
Q 8.40625 7.859375 10.015625 9.421875 
Q 11.625 10.984375 13.921875 10.984375 
Q 17.484375 10.984375 19 7.6875 
Q 20.515625 4.390625 20.515625 0.390625 
Q 20.515625 -5.171875 18.28125 -10.171875 
Q 16.0625 -15.1875 12.015625 -19.1875 
Q 11.625 -19.390625 11.375 -19.390625 
Q 10.890625 -19.390625 10.390625 -18.9375 
Q 9.90625 -18.5 9.90625 -18.015625 
" id="Cmmi10-3b"/>
     <path d="M 6.5 -25 
Q 5.609375 -25 5.609375 -24.125 
Q 5.609375 -23.6875 5.8125 -23.484375 
Q 22.90625 -6.78125 22.90625 25 
Q 22.90625 56.78125 6 73.296875 
Q 5.609375 73.53125 5.609375 74.125 
Q 5.609375 74.46875 5.875 74.734375 
Q 6.15625 75 6.5 75 
L 7.421875 75 
Q 7.71875 75 7.90625 74.8125 
Q 15.09375 69.140625 19.875 61.03125 
Q 24.65625 52.9375 26.875 43.75 
Q 29.109375 34.578125 29.109375 25 
Q 29.109375 17.921875 27.90625 11.0625 
Q 26.703125 4.203125 24.09375 -2.453125 
Q 21.484375 -9.125 17.484375 -14.765625 
Q 13.484375 -20.40625 7.90625 -24.8125 
Q 7.71875 -25 7.421875 -25 
z
" id="Cmr10-29"/>
    </defs>
    <g transform="translate(231.621818182 235.748571429)scale(0.12 -0.12)">
     <use xlink:href="#Cmr10-28"/>
     <use transform="translate(38.818359375 0.0)" xlink:href="#Cmmi10-78"/>
     <use transform="translate(95.8984375 -17.00625)scale(0.7)" xlink:href="#Cmmi10-69"/>
     <use transform="translate(126.372460937 0.0)" xlink:href="#Cmmi10-3b"/>
     <use transform="translate(171.616601562 0.0)" xlink:href="#Cmmi10-74"/>
     <use transform="translate(207.700585937 -17.00625)scale(0.7)" xlink:href="#Cmmi10-69"/>
     <use transform="translate(244.08828125 -17.00625)scale(0.7)" xlink:href="#Cmr10-2b"/>
     <use transform="translate(310.759179687 -17.00625)scale(0.7)" xlink:href="#Cmr10-31"/>
     <use transform="translate(352.136523437 0.0)" xlink:href="#Cmr10-29"/>
    </g>
   </g>
   <g id="text_17">
    <!-- $(x_{i -1}, t_{i})$ -->
    <defs>
     <path d="M 10.203125 23 
Q 9.375 23 8.828125 23.625 
Q 8.296875 24.265625 8.296875 25 
Q 8.296875 25.734375 8.828125 26.359375 
Q 9.375 27 10.203125 27 
L 67.578125 27 
Q 68.359375 27 68.875 26.359375 
Q 69.390625 25.734375 69.390625 25 
Q 69.390625 24.265625 68.875 23.625 
Q 68.359375 23 67.578125 23 
z
" id="Cmsy10-a1"/>
    </defs>
    <g transform="translate(163.985454545 327.085714286)scale(0.12 -0.12)">
     <use xlink:href="#Cmr10-28"/>
     <use transform="translate(38.818359375 0.0)" xlink:href="#Cmmi10-78"/>
     <use transform="translate(95.8984375 -17.00625)scale(0.7)" xlink:href="#Cmmi10-69"/>
     <use transform="translate(132.286132812 -17.00625)scale(0.7)" xlink:href="#Cmsy10-a1"/>
     <use transform="translate(198.95703125 -17.00625)scale(0.7)" xlink:href="#Cmr10-31"/>
     <use transform="translate(240.334375 0.0)" xlink:href="#Cmmi10-3b"/>
     <use transform="translate(285.578515625 0.0)" xlink:href="#Cmmi10-74"/>
     <use transform="translate(321.6625 -17.00625)scale(0.7)" xlink:href="#Cmmi10-69"/>
     <use transform="translate(352.136523438 0.0)" xlink:href="#Cmr10-29"/>
    </g>
   </g>
   <g id="text_18">
    <!-- $(x_{i}, t_{i})$ -->
    <g transform="translate(231.621818182 327.085714286)scale(0.12 -0.12)">
     <use xlink:href="#Cmr10-28"/>
     <use transform="translate(38.818359375 0.0)" xlink:href="#Cmmi10-78"/>
     <use transform="translate(95.8984375 -17.00625)scale(0.7)" xlink:href="#Cmmi10-69"/>
     <use transform="translate(126.372460937 0.0)" xlink:href="#Cmmi10-3b"/>
     <use transform="translate(171.616601562 0.0)" xlink:href="#Cmmi10-74"/>
     <use transform="translate(207.700585937 -17.00625)scale(0.7)" xlink:href="#Cmmi10-69"/>
     <use transform="translate(238.174609375 0.0)" xlink:href="#Cmr10-29"/>
    </g>
   </g>
   <g id="text_19">
    <!-- $(x_{i + 1}, t_{i})$ -->
    <g transform="translate(299.258181818 327.085714286)scale(0.12 -0.12)">
     <use xlink:href="#Cmr10-28"/>
     <use transform="translate(38.818359375 0.0)" xlink:href="#Cmmi10-78"/>
     <use transform="translate(95.8984375 -17.00625)scale(0.7)" xlink:href="#Cmmi10-69"/>
     <use transform="translate(132.286132812 -17.00625)scale(0.7)" xlink:href="#Cmr10-2b"/>
     <use transform="translate(198.95703125 -17.00625)scale(0.7)" xlink:href="#Cmr10-31"/>
     <use transform="translate(240.334375 0.0)" xlink:href="#Cmmi10-3b"/>
     <use transform="translate(285.578515625 0.0)" xlink:href="#Cmmi10-74"/>
     <use transform="translate(321.6625 -17.00625)scale(0.7)" xlink:href="#Cmmi10-69"/>
     <use transform="translate(352.136523438 0.0)" xlink:href="#Cmr10-29"/>
    </g>
   </g>
  </g>
 </g>
 <defs>
  <clipPath id="p599cc61b4c">
   <rect height="345.6" width="446.4" x="72.0" y="43.2"/>
  </clipPath>
 </defs>
</svg>
