<?xml version="1.0" encoding="utf-8" standalone="no"?>
<!DOCTYPE svg PUBLIC "-//W3C//DTD SVG 1.1//EN"
  "http://www.w3.org/Graphics/SVG/1.1/DTD/svg11.dtd">
<!-- Created with matplotlib (http://matplotlib.org/) -->
<svg height="432pt" version="1.1" viewBox="0 0 576 432" width="576pt" xmlns="http://www.w3.org/2000/svg" xmlns:xlink="http://www.w3.org/1999/xlink">
 <defs>
  <style type="text/css">
*{stroke-linecap:butt;stroke-linejoin:round;stroke-miterlimit:100000;}
  </style>
 </defs>
 <g id="figure_1">
  <g id="patch_1">
   <path d="M 0 432 
L 576 432 
L 576 0 
L 0 0 
z
" style="fill:#ffffff;"/>
  </g>
  <g id="axes_1">
   <g id="patch_2">
    <path d="M 72 388.8 
L 518.4 388.8 
L 518.4 43.2 
L 72 43.2 
z
" style="fill:#ffffff;"/>
   </g>
   <g id="line2d_1">
    <path clip-path="url(#pbc91e4c313)" d="M 82.628571 184.969697 
L 86.922944 187.950967 
L 91.217316 190.645809 
L 95.511688 193.081741 
L 99.806061 195.283638 
L 104.100433 197.273985 
L 108.394805 199.073107 
L 112.689177 200.699377 
L 116.98355 202.169401 
L 121.277922 203.498191 
L 125.572294 204.699316 
L 129.866667 205.785042 
L 134.161039 206.766455 
L 138.455411 207.653578 
L 142.749784 208.45547 
L 147.044156 209.180319 
L 151.338528 209.835527 
L 155.6329 210.427786 
L 159.927273 210.963142 
L 164.221645 211.447064 
L 168.516017 211.884492 
L 172.81039 212.279894 
L 177.104762 212.637307 
L 181.399134 212.960382 
L 185.693506 213.252416 
L 189.987879 213.516394 
L 194.282251 213.755009 
L 198.576623 213.970699 
L 202.870996 214.165666 
L 207.165368 214.341902 
L 211.45974 214.501205 
L 215.754113 214.645204 
L 220.048485 214.775367 
L 224.342857 214.893025 
L 228.637229 214.999379 
L 232.931602 215.095515 
L 237.225974 215.182414 
L 241.520346 215.260965 
L 245.814719 215.331968 
L 250.109091 215.39615 
L 254.403463 215.454166 
L 258.697835 215.506607 
L 262.992208 215.554011 
L 267.28658 215.596859 
L 271.580952 215.635592 
L 275.875325 215.670603 
L 280.169697 215.70225 
L 284.464069 215.730856 
L 288.758442 215.756715 
L 293.052814 215.780089 
L 297.347186 215.801217 
L 301.641558 215.820315 
L 305.935931 215.837579 
L 310.230303 215.853183 
L 314.524675 215.867289 
L 318.819048 215.880039 
L 323.11342 215.891565 
L 327.407792 215.901983 
L 331.702165 215.9114 
L 335.996537 215.919912 
L 340.290909 215.927607 
L 344.585281 215.934562 
L 348.879654 215.940849 
L 353.174026 215.946532 
L 357.468398 215.951669 
L 361.762771 215.956312 
L 366.057143 215.96051 
L 370.351515 215.964304 
L 374.645887 215.967733 
L 378.94026 215.970833 
L 383.234632 215.973636 
L 387.529004 215.976169 
L 391.823377 215.978458 
L 396.117749 215.980528 
L 400.412121 215.982399 
L 404.706494 215.98409 
L 409.000866 215.985618 
L 413.295238 215.987 
L 417.58961 215.988249 
L 421.883983 215.989378 
L 426.178355 215.990399 
L 430.472727 215.991321 
L 434.7671 215.992155 
L 439.061472 215.992909 
L 443.355844 215.99359 
L 447.650216 215.994206 
L 451.944589 215.994762 
L 456.238961 215.995266 
L 460.533333 215.995721 
L 464.827706 215.996132 
L 469.122078 215.996503 
L 473.41645 215.996839 
L 477.710823 215.997143 
L 482.005195 215.997417 
L 486.299567 215.997666 
L 490.593939 215.99789 
L 494.888312 215.998093 
L 499.182684 215.998276 
L 503.477056 215.998441 
L 507.771429 215.998591 
" style="fill:none;stroke:#0000ff;stroke-linecap:square;stroke-width:2.0;"/>
   </g>
   <g id="line2d_2">
    <path clip-path="url(#pbc91e4c313)" d="M 82.628571 184.969697 
L 188.914286 262.545455 
L 295.2 146.181818 
L 401.485714 320.727273 
L 507.771429 58.909091 
" style="fill:none;stroke:#008000;stroke-linecap:square;"/>
    <defs>
     <path d="M 0 2.5 
C 0.663008 2.5 1.29895 2.236584 1.767767 1.767767 
C 2.236584 1.29895 2.5 0.663008 2.5 0 
C 2.5 -0.663008 2.236584 -1.29895 1.767767 -1.767767 
C 1.29895 -2.236584 0.663008 -2.5 0 -2.5 
C -0.663008 -2.5 -1.29895 -2.236584 -1.767767 -1.767767 
C -2.236584 -1.29895 -2.5 -0.663008 -2.5 0 
C -2.5 0.663008 -2.236584 1.29895 -1.767767 1.767767 
C -1.29895 2.236584 -0.663008 2.5 0 2.5 
z
" id="md49b8a192e" style="stroke:#008000;stroke-width:0.5;"/>
    </defs>
    <g clip-path="url(#pbc91e4c313)">
     <use style="fill:#008000;stroke:#008000;stroke-width:0.5;" x="82.6285714286" xlink:href="#md49b8a192e" y="184.96969697"/>
     <use style="fill:#008000;stroke:#008000;stroke-width:0.5;" x="188.914285714" xlink:href="#md49b8a192e" y="262.545454545"/>
     <use style="fill:#008000;stroke:#008000;stroke-width:0.5;" x="295.2" xlink:href="#md49b8a192e" y="146.181818182"/>
     <use style="fill:#008000;stroke:#008000;stroke-width:0.5;" x="401.485714286" xlink:href="#md49b8a192e" y="320.727272727"/>
     <use style="fill:#008000;stroke:#008000;stroke-width:0.5;" x="507.771428571" xlink:href="#md49b8a192e" y="58.9090909091"/>
    </g>
   </g>
   <g id="line2d_3">
    <path clip-path="url(#pbc91e4c313)" d="M 82.628571 783.039719 
M 123.519078 433 
L 125.572294 422.505768 
L 129.866667 402.665499 
L 134.161039 384.731407 
L 138.455411 368.520351 
L 142.749784 353.866791 
L 147.044156 340.621088 
L 151.338528 328.64798 
L 155.6329 317.825202 
L 159.927273 308.042234 
L 164.221645 299.199175 
L 168.516017 291.205723 
L 172.81039 283.980251 
L 177.104762 277.448973 
L 181.399134 271.545196 
L 185.693506 266.20863 
L 189.987879 261.384781 
L 194.282251 257.024388 
L 198.576623 253.082925 
L 202.870996 249.520142 
L 207.165368 246.299658 
L 211.45974 243.388585 
L 215.754113 240.757197 
L 220.048485 238.378622 
L 224.342857 236.228571 
L 228.637229 234.285089 
L 232.931602 232.528329 
L 237.225974 230.940352 
L 241.520346 229.504941 
L 245.814719 228.207439 
L 250.109091 227.034596 
L 254.403463 225.974435 
L 258.697835 225.01613 
L 262.992208 224.149896 
L 267.28658 223.366885 
L 271.580952 222.659104 
L 275.875325 222.019323 
L 280.169697 221.44101 
L 284.464069 220.918259 
L 288.758442 220.445732 
L 293.052814 220.018603 
L 297.347186 219.632512 
L 301.641558 219.283514 
L 305.935931 218.968047 
L 310.230303 218.682888 
L 314.524675 218.425127 
L 318.819048 218.19213 
L 323.11342 217.981519 
L 327.407792 217.791142 
L 331.702165 217.619056 
L 335.996537 217.463504 
L 340.290909 217.322896 
L 344.585281 217.195797 
L 348.879654 217.08091 
L 353.174026 216.97706 
L 357.468398 216.883188 
L 361.762771 216.798335 
L 366.057143 216.721634 
L 370.351515 216.652302 
L 374.645887 216.589631 
L 378.94026 216.532982 
L 383.234632 216.481775 
L 387.529004 216.435488 
L 391.823377 216.393648 
L 396.117749 216.355828 
L 400.412121 216.321641 
L 404.706494 216.290739 
L 409.000866 216.262806 
L 413.295238 216.237557 
L 417.58961 216.214733 
L 421.883983 216.194103 
L 426.178355 216.175454 
L 430.472727 216.158597 
L 434.7671 216.14336 
L 439.061472 216.129586 
L 443.355844 216.117136 
L 447.650216 216.105882 
L 451.944589 216.095709 
L 456.238961 216.086514 
L 460.533333 216.078202 
L 464.827706 216.070689 
L 469.122078 216.063897 
L 473.41645 216.057758 
L 477.710823 216.052209 
L 482.005195 216.047193 
L 486.299567 216.042659 
L 490.593939 216.03856 
L 494.888312 216.034856 
L 499.182684 216.031507 
L 503.477056 216.02848 
L 507.771429 216.025744 
" style="fill:none;stroke:#ff0000;stroke-dasharray:6.000000,6.000000;stroke-dashoffset:0.0;"/>
   </g>
   <g id="line2d_4">
    <path clip-path="url(#pbc91e4c313)" d="M 82.628571 -10145.936926 
M 247.032081 -1 
L 250.109091 14.356654 
L 254.403463 33.72976 
L 258.697835 51.241574 
L 262.992208 67.07092 
L 267.28658 81.379445 
L 271.580952 94.313263 
L 275.875325 106.00445 
L 280.169697 116.572393 
L 284.464069 126.125009 
L 288.758442 134.759848 
L 293.052814 142.565084 
L 297.347186 149.620425 
L 301.641558 155.997915 
L 305.935931 161.762681 
L 310.230303 166.973591 
L 314.524675 171.683857 
L 318.819048 175.941579 
L 323.11342 179.790236 
L 327.407792 183.269129 
L 331.702165 186.413783 
L 335.996537 189.256312 
L 340.290909 191.825741 
L 344.585281 194.148309 
L 348.879654 196.247734 
L 353.174026 198.145455 
L 357.468398 199.86085 
L 361.762771 201.411437 
L 366.057143 202.813049 
L 370.351515 204.08 
L 374.645887 205.225227 
L 378.94026 206.260425 
L 383.234632 207.196165 
L 387.529004 208.042003 
L 391.823377 208.806577 
L 396.117749 209.497693 
L 400.412121 210.122409 
L 404.706494 210.687105 
L 409.000866 211.197547 
L 413.295238 211.658948 
L 417.58961 212.076019 
L 421.883983 212.45302 
L 426.178355 212.7938 
L 430.472727 213.101839 
L 434.7671 213.380283 
L 439.061472 213.631975 
L 443.355844 213.859486 
L 447.650216 214.065138 
L 451.944589 214.251032 
L 456.238961 214.419066 
L 460.533333 214.570956 
L 464.827706 214.708253 
L 469.122078 214.832359 
L 473.41645 214.944542 
L 477.710823 215.045946 
L 482.005195 215.137608 
L 486.299567 215.220463 
L 490.593939 215.295358 
L 494.888312 215.363057 
L 499.182684 215.424252 
L 503.477056 215.479568 
L 507.771429 215.529569 
" style="fill:none;stroke:#00bfbf;stroke-dasharray:6.000000,6.000000;stroke-dashoffset:0.0;"/>
   </g>
   <g id="line2d_5">
    <path clip-path="url(#pbc91e4c313)" d="M 82.628571 189567.351041 
M 370.520396 433 
L 374.645887 412.895415 
L 378.94026 393.978472 
L 383.234632 376.878995 
L 387.529004 361.422369 
L 391.823377 347.450755 
L 396.117749 334.82148 
L 400.412121 323.405575 
L 404.706494 313.086467 
L 409.000866 303.758778 
L 413.295238 295.327257 
L 417.58961 287.705804 
L 421.883983 280.81659 
L 426.178355 274.589265 
L 430.472727 268.960237 
L 434.7671 263.872024 
L 439.061472 259.272667 
L 443.355844 255.115198 
L 447.650216 251.357162 
L 451.944589 247.960184 
L 456.238961 244.889574 
L 460.533333 242.113977 
L 464.827706 239.605048 
L 469.122078 237.337167 
L 473.41645 235.287175 
L 477.710823 233.434139 
L 482.005195 231.759135 
L 486.299567 230.245058 
L 490.593939 228.876449 
L 494.888312 227.63933 
L 499.182684 226.521068 
L 503.477056 225.510245 
L 507.771429 224.596538 
" style="fill:none;stroke:#bf00bf;stroke-dasharray:6.000000,6.000000;stroke-dashoffset:0.0;"/>
   </g>
   <g id="patch_3">
    <path d="M 82.628571 388.8 
L 507.771429 388.8 
" style="fill:none;stroke:#000000;stroke-linecap:square;stroke-linejoin:miter;"/>
   </g>
   <g id="patch_4">
    <path d="M 72 388.8 
L 72 43.2 
" style="fill:none;stroke:#000000;stroke-linecap:square;stroke-linejoin:miter;"/>
   </g>
   <g id="matplotlib.axis_1">
    <g id="xtick_1">
     <g id="line2d_6">
      <defs>
       <path d="M 0 0 
L 0 -4 
" id="m0ad68c5e34" style="stroke:#000000;stroke-width:0.5;"/>
      </defs>
      <g>
       <use style="stroke:#000000;stroke-width:0.5;" x="82.6285714286" xlink:href="#m0ad68c5e34" y="388.8"/>
      </g>
     </g>
     <g id="text_1">
      <!-- $t_0$ -->
      <defs>
       <path d="M 25 -2.203125 
Q 12.75 -2.203125 8.328125 7.875 
Q 3.90625 17.96875 3.90625 31.890625 
Q 3.90625 40.578125 5.484375 48.234375 
Q 7.078125 55.90625 11.78125 61.25 
Q 16.5 66.609375 25 66.609375 
Q 31.59375 66.609375 35.78125 63.375 
Q 39.984375 60.15625 42.1875 55.046875 
Q 44.390625 49.953125 45.1875 44.109375 
Q 46 38.28125 46 31.890625 
Q 46 23.296875 44.40625 15.796875 
Q 42.828125 8.296875 38.1875 3.046875 
Q 33.546875 -2.203125 25 -2.203125 
M 25 0.390625 
Q 30.5625 0.390625 33.296875 6.09375 
Q 36.03125 11.8125 36.671875 18.75 
Q 37.3125 25.6875 37.3125 33.5 
Q 37.3125 41.015625 36.671875 47.359375 
Q 36.03125 53.71875 33.3125 58.859375 
Q 30.609375 64.015625 25 64.015625 
Q 19.34375 64.015625 16.609375 58.828125 
Q 13.875 53.65625 13.234375 47.328125 
Q 12.59375 41.015625 12.59375 33.5 
Q 12.59375 27.9375 12.859375 23 
Q 13.140625 18.0625 14.3125 12.8125 
Q 15.484375 7.5625 18.09375 3.96875 
Q 20.703125 0.390625 25 0.390625 
" id="Cmr10-30"/>
       <path d="M 6.203125 8.109375 
Q 6.203125 9.578125 6.5 10.890625 
L 13.71875 39.59375 
L 3.21875 39.59375 
Q 2.203125 39.59375 2.203125 40.921875 
Q 2.59375 43.109375 3.515625 43.109375 
L 14.59375 43.109375 
L 18.609375 59.421875 
Q 19 60.75 20.171875 61.671875 
Q 21.34375 62.59375 22.796875 62.59375 
Q 24.078125 62.59375 24.921875 61.828125 
Q 25.78125 61.078125 25.78125 59.8125 
Q 25.78125 59.515625 25.75 59.34375 
Q 25.734375 59.1875 25.6875 58.984375 
L 21.6875 43.109375 
L 31.984375 43.109375 
Q 33.015625 43.109375 33.015625 41.796875 
Q 32.953125 41.546875 32.8125 40.953125 
Q 32.671875 40.375 32.421875 39.984375 
Q 32.171875 39.59375 31.6875 39.59375 
L 20.796875 39.59375 
L 13.625 10.6875 
Q 12.890625 7.859375 12.890625 5.8125 
Q 12.890625 1.515625 15.828125 1.515625 
Q 20.21875 1.515625 23.609375 5.640625 
Q 27 9.765625 28.8125 14.703125 
Q 29.203125 15.28125 29.59375 15.28125 
L 30.8125 15.28125 
Q 31.203125 15.28125 31.4375 15.015625 
Q 31.6875 14.75 31.6875 14.40625 
Q 31.6875 14.203125 31.59375 14.109375 
Q 29.390625 8.0625 25.1875 3.46875 
Q 21 -1.125 15.578125 -1.125 
Q 11.625 -1.125 8.90625 1.453125 
Q 6.203125 4.046875 6.203125 8.109375 
" id="Cmmi10-74"/>
      </defs>
      <g transform="translate(77.9485714286 401.918125)scale(0.12 -0.12)">
       <use transform="translate(0.0 0.40625)" xlink:href="#Cmmi10-74"/>
       <use transform="translate(36.083984375 -16.6)scale(0.7)" xlink:href="#Cmr10-30"/>
      </g>
     </g>
    </g>
    <g id="xtick_2">
     <g id="line2d_7">
      <g>
       <use style="stroke:#000000;stroke-width:0.5;" x="188.914285714" xlink:href="#m0ad68c5e34" y="388.8"/>
      </g>
     </g>
     <g id="text_2">
      <!-- $t_1$ -->
      <defs>
       <path d="M 9.28125 0 
L 9.28125 3.515625 
Q 21.78125 3.515625 21.78125 6.6875 
L 21.78125 59.1875 
Q 16.609375 56.6875 8.6875 56.6875 
L 8.6875 60.203125 
Q 20.953125 60.203125 27.203125 66.609375 
L 28.609375 66.609375 
Q 28.953125 66.609375 29.265625 66.328125 
Q 29.59375 66.0625 29.59375 65.71875 
L 29.59375 6.6875 
Q 29.59375 3.515625 42.09375 3.515625 
L 42.09375 0 
z
" id="Cmr10-31"/>
      </defs>
      <g transform="translate(184.234285714 401.918125)scale(0.12 -0.12)">
       <use transform="translate(0.0 0.40625)" xlink:href="#Cmmi10-74"/>
       <use transform="translate(36.083984375 -16.6)scale(0.7)" xlink:href="#Cmr10-31"/>
      </g>
     </g>
    </g>
    <g id="xtick_3">
     <g id="line2d_8">
      <g>
       <use style="stroke:#000000;stroke-width:0.5;" x="295.2" xlink:href="#m0ad68c5e34" y="388.8"/>
      </g>
     </g>
     <g id="text_3">
      <!-- $t_2$ -->
      <defs>
       <path d="M 4.984375 0 
L 4.984375 2.6875 
Q 4.984375 2.9375 5.171875 3.21875 
L 20.703125 20.40625 
Q 24.21875 24.21875 26.40625 26.796875 
Q 28.609375 29.390625 30.75 32.765625 
Q 32.90625 36.140625 34.15625 39.625 
Q 35.40625 43.109375 35.40625 47.015625 
Q 35.40625 51.125 33.890625 54.859375 
Q 32.375 58.59375 29.375 60.84375 
Q 26.375 63.09375 22.125 63.09375 
Q 17.78125 63.09375 14.3125 60.46875 
Q 10.84375 57.859375 9.421875 53.71875 
Q 9.8125 53.8125 10.5 53.8125 
Q 12.75 53.8125 14.328125 52.296875 
Q 15.921875 50.78125 15.921875 48.390625 
Q 15.921875 46.09375 14.328125 44.5 
Q 12.75 42.921875 10.5 42.921875 
Q 8.15625 42.921875 6.5625 44.546875 
Q 4.984375 46.1875 4.984375 48.390625 
Q 4.984375 52.15625 6.390625 55.4375 
Q 7.8125 58.734375 10.46875 61.296875 
Q 13.140625 63.875 16.484375 65.234375 
Q 19.828125 66.609375 23.578125 66.609375 
Q 29.296875 66.609375 34.21875 64.1875 
Q 39.15625 61.765625 42.03125 57.34375 
Q 44.921875 52.9375 44.921875 47.015625 
Q 44.921875 42.671875 43.015625 38.765625 
Q 41.109375 34.859375 38.125 31.65625 
Q 35.15625 28.46875 30.515625 24.40625 
Q 25.875 20.359375 24.421875 19 
L 13.09375 8.109375 
L 22.703125 8.109375 
Q 29.78125 8.109375 34.546875 8.21875 
Q 39.3125 8.34375 39.59375 8.59375 
Q 40.765625 9.859375 42 17.828125 
L 44.921875 17.828125 
L 42.09375 0 
z
" id="Cmr10-32"/>
      </defs>
      <g transform="translate(290.52 401.918125)scale(0.12 -0.12)">
       <use transform="translate(0.0 0.40625)" xlink:href="#Cmmi10-74"/>
       <use transform="translate(36.083984375 -16.6)scale(0.7)" xlink:href="#Cmr10-32"/>
      </g>
     </g>
    </g>
    <g id="xtick_4">
     <g id="line2d_9">
      <g>
       <use style="stroke:#000000;stroke-width:0.5;" x="401.485714286" xlink:href="#m0ad68c5e34" y="388.8"/>
      </g>
     </g>
     <g id="text_4">
      <!-- $t_3$ -->
      <defs>
       <path d="M 9.515625 7.71875 
Q 11.859375 4.296875 15.8125 2.640625 
Q 19.78125 0.984375 24.3125 0.984375 
Q 30.125 0.984375 32.5625 5.9375 
Q 35.015625 10.890625 35.015625 17.1875 
Q 35.015625 20.015625 34.5 22.84375 
Q 33.984375 25.6875 32.765625 28.125 
Q 31.546875 30.5625 29.421875 32.03125 
Q 27.296875 33.5 24.21875 33.5 
L 17.578125 33.5 
Q 16.703125 33.5 16.703125 34.421875 
L 16.703125 35.296875 
Q 16.703125 36.078125 17.578125 36.078125 
L 23.09375 36.53125 
Q 26.609375 36.53125 28.921875 39.15625 
Q 31.25 41.796875 32.328125 45.578125 
Q 33.40625 49.359375 33.40625 52.78125 
Q 33.40625 57.5625 31.15625 60.640625 
Q 28.90625 63.71875 24.3125 63.71875 
Q 20.515625 63.71875 17.046875 62.28125 
Q 13.578125 60.84375 11.53125 57.90625 
Q 11.71875 57.953125 11.859375 57.984375 
Q 12.015625 58.015625 12.203125 58.015625 
Q 14.453125 58.015625 15.96875 56.453125 
Q 17.484375 54.890625 17.484375 52.6875 
Q 17.484375 50.53125 15.96875 48.96875 
Q 14.453125 47.40625 12.203125 47.40625 
Q 10.015625 47.40625 8.453125 48.96875 
Q 6.890625 50.53125 6.890625 52.6875 
Q 6.890625 56.984375 9.46875 60.15625 
Q 12.0625 63.328125 16.140625 64.96875 
Q 20.21875 66.609375 24.3125 66.609375 
Q 27.34375 66.609375 30.703125 65.703125 
Q 34.078125 64.796875 36.8125 63.109375 
Q 39.546875 61.421875 41.28125 58.78125 
Q 43.015625 56.15625 43.015625 52.78125 
Q 43.015625 48.578125 41.140625 45.015625 
Q 39.265625 41.453125 35.984375 38.859375 
Q 32.71875 36.28125 28.8125 35.015625 
Q 33.15625 34.1875 37.0625 31.734375 
Q 40.96875 29.296875 43.328125 25.484375 
Q 45.703125 21.6875 45.703125 17.28125 
Q 45.703125 11.765625 42.671875 7.296875 
Q 39.65625 2.828125 34.71875 0.3125 
Q 29.78125 -2.203125 24.3125 -2.203125 
Q 19.625 -2.203125 14.90625 -0.40625 
Q 10.203125 1.375 7.203125 4.9375 
Q 4.203125 8.5 4.203125 13.484375 
Q 4.203125 15.96875 5.859375 17.625 
Q 7.515625 19.28125 10.015625 19.28125 
Q 11.625 19.28125 12.96875 18.53125 
Q 14.3125 17.78125 15.0625 16.40625 
Q 15.828125 15.046875 15.828125 13.484375 
Q 15.828125 11.03125 14.109375 9.375 
Q 12.40625 7.71875 10.015625 7.71875 
z
" id="Cmr10-33"/>
      </defs>
      <g transform="translate(396.805714286 401.918125)scale(0.12 -0.12)">
       <use transform="translate(0.0 0.40625)" xlink:href="#Cmmi10-74"/>
       <use transform="translate(36.083984375 -16.6)scale(0.7)" xlink:href="#Cmr10-33"/>
      </g>
     </g>
    </g>
    <g id="xtick_5">
     <g id="line2d_10">
      <g>
       <use style="stroke:#000000;stroke-width:0.5;" x="507.771428571" xlink:href="#m0ad68c5e34" y="388.8"/>
      </g>
     </g>
     <g id="text_5">
      <!-- $t_4$ -->
      <defs>
       <path d="M 2.78125 16.5 
L 2.78125 20.015625 
L 33.6875 66.109375 
Q 34.03125 66.609375 34.71875 66.609375 
L 36.1875 66.609375 
Q 37.3125 66.609375 37.3125 65.484375 
L 37.3125 20.015625 
L 47.125 20.015625 
L 47.125 16.5 
L 37.3125 16.5 
L 37.3125 6.6875 
Q 37.3125 4.640625 40.234375 4.078125 
Q 43.171875 3.515625 47.015625 3.515625 
L 47.015625 0 
L 19.484375 0 
L 19.484375 3.515625 
Q 23.34375 3.515625 26.265625 4.078125 
Q 29.203125 4.640625 29.203125 6.6875 
L 29.203125 16.5 
z
M 6.109375 20.015625 
L 29.78125 20.015625 
L 29.78125 55.421875 
z
" id="Cmr10-34"/>
      </defs>
      <g transform="translate(503.091428571 401.918125)scale(0.12 -0.12)">
       <use transform="translate(0.0 0.40625)" xlink:href="#Cmmi10-74"/>
       <use transform="translate(36.083984375 -16.6)scale(0.7)" xlink:href="#Cmr10-34"/>
      </g>
     </g>
    </g>
   </g>
   <g id="matplotlib.axis_2">
    <g id="ytick_1">
     <g id="line2d_11">
      <defs>
       <path d="M 0 0 
L 4 0 
" id="m4f7d49e62f" style="stroke:#000000;stroke-width:0.5;"/>
      </defs>
      <g>
       <use style="stroke:#000000;stroke-width:0.5;" x="72.0" xlink:href="#m4f7d49e62f" y="340.121212121"/>
      </g>
     </g>
    </g>
    <g id="ytick_2">
     <g id="line2d_12">
      <g>
       <use style="stroke:#000000;stroke-width:0.5;" x="72.0" xlink:href="#m4f7d49e62f" y="278.060606061"/>
      </g>
     </g>
    </g>
    <g id="ytick_3">
     <g id="line2d_13">
      <g>
       <use style="stroke:#000000;stroke-width:0.5;" x="72.0" xlink:href="#m4f7d49e62f" y="216.0"/>
      </g>
     </g>
    </g>
    <g id="ytick_4">
     <g id="line2d_14">
      <g>
       <use style="stroke:#000000;stroke-width:0.5;" x="72.0" xlink:href="#m4f7d49e62f" y="153.939393939"/>
      </g>
     </g>
    </g>
    <g id="ytick_5">
     <g id="line2d_15">
      <g>
       <use style="stroke:#000000;stroke-width:0.5;" x="72.0" xlink:href="#m4f7d49e62f" y="91.8787878788"/>
      </g>
     </g>
    </g>
    <g id="text_6">
     <!-- $x$ -->
     <defs>
      <path d="M 7.8125 2.875 
Q 9.578125 1.515625 12.796875 1.515625 
Q 15.921875 1.515625 18.3125 4.515625 
Q 20.703125 7.515625 21.578125 11.078125 
L 26.125 28.8125 
Q 27.203125 33.640625 27.203125 35.40625 
Q 27.203125 37.890625 25.8125 39.75 
Q 24.421875 41.609375 21.921875 41.609375 
Q 18.75 41.609375 15.96875 39.625 
Q 13.1875 37.640625 11.28125 34.59375 
Q 9.375 31.546875 8.59375 28.421875 
Q 8.40625 27.78125 7.8125 27.78125 
L 6.59375 27.78125 
Q 5.8125 27.78125 5.8125 28.71875 
L 5.8125 29 
Q 6.78125 32.71875 9.125 36.25 
Q 11.46875 39.796875 14.859375 41.984375 
Q 18.265625 44.1875 22.125 44.1875 
Q 25.78125 44.1875 28.734375 42.234375 
Q 31.6875 40.28125 32.90625 36.921875 
Q 34.625 39.984375 37.28125 42.078125 
Q 39.9375 44.1875 43.109375 44.1875 
Q 45.265625 44.1875 47.5 43.421875 
Q 49.75 42.671875 51.171875 41.109375 
Q 52.59375 39.546875 52.59375 37.203125 
Q 52.59375 34.671875 50.953125 32.828125 
Q 49.3125 31 46.78125 31 
Q 45.171875 31 44.09375 32.03125 
Q 43.015625 33.0625 43.015625 34.625 
Q 43.015625 36.71875 44.453125 38.296875 
Q 45.90625 39.890625 47.90625 40.1875 
Q 46.09375 41.609375 42.921875 41.609375 
Q 39.703125 41.609375 37.328125 38.625 
Q 34.96875 35.640625 33.984375 31.984375 
L 29.59375 14.3125 
Q 28.515625 10.296875 28.515625 7.71875 
Q 28.515625 5.171875 29.953125 3.34375 
Q 31.390625 1.515625 33.796875 1.515625 
Q 38.484375 1.515625 42.15625 5.640625 
Q 45.84375 9.765625 47.015625 14.703125 
Q 47.21875 15.28125 47.796875 15.28125 
L 49.03125 15.28125 
Q 49.421875 15.28125 49.65625 15.015625 
Q 49.90625 14.75 49.90625 14.40625 
Q 49.90625 14.3125 49.8125 14.109375 
Q 48.390625 8.15625 43.84375 3.515625 
Q 39.3125 -1.125 33.59375 -1.125 
Q 29.9375 -1.125 26.984375 0.84375 
Q 24.03125 2.828125 22.796875 6.203125 
Q 21.234375 3.265625 18.46875 1.0625 
Q 15.71875 -1.125 12.59375 -1.125 
Q 10.453125 -1.125 8.171875 -0.359375 
Q 5.90625 0.390625 4.484375 1.953125 
Q 3.078125 3.515625 3.078125 5.90625 
Q 3.078125 8.25 4.703125 10.171875 
Q 6.34375 12.109375 8.796875 12.109375 
Q 10.453125 12.109375 11.578125 11.109375 
Q 12.703125 10.109375 12.703125 8.5 
Q 12.703125 6.390625 11.296875 4.828125 
Q 9.90625 3.265625 7.8125 2.875 
" id="Cmmi10-78"/>
     </defs>
     <g transform="translate(57.36 40.704375)scale(0.12 -0.12)">
      <use transform="translate(0.0 0.8125)" xlink:href="#Cmmi10-78"/>
     </g>
    </g>
   </g>
   <g id="legend_1">
    <g id="line2d_16">
     <path d="M 89.28 62.06175 
L 109.44 62.06175 
" style="fill:none;stroke:#0000ff;stroke-linecap:square;stroke-width:2.0;"/>
    </g>
    <g id="line2d_17"/>
    <g id="text_7">
     <!-- $x(t)$ -->
     <defs>
      <path d="M 31 -24.8125 
Q 25.4375 -20.40625 21.40625 -14.71875 
Q 17.390625 -9.03125 14.8125 -2.578125 
Q 12.25 3.859375 10.984375 10.890625 
Q 9.71875 17.921875 9.71875 25 
Q 9.71875 32.171875 10.984375 39.203125 
Q 12.25 46.234375 14.859375 52.734375 
Q 17.484375 59.234375 21.53125 64.890625 
Q 25.59375 70.5625 31 74.8125 
Q 31 75 31.5 75 
L 32.421875 75 
Q 32.71875 75 32.953125 74.734375 
Q 33.203125 74.46875 33.203125 74.125 
Q 33.203125 73.6875 33.015625 73.484375 
Q 28.125 68.703125 24.875 63.234375 
Q 21.625 57.765625 19.640625 51.578125 
Q 17.671875 45.40625 16.796875 38.78125 
Q 15.921875 32.171875 15.921875 25 
Q 15.921875 -6.78125 32.90625 -23.296875 
Q 33.203125 -23.578125 33.203125 -24.125 
Q 33.203125 -24.359375 32.9375 -24.671875 
Q 32.671875 -25 32.421875 -25 
L 31.5 -25 
Q 31 -25 31 -24.8125 
" id="Cmr10-28"/>
      <path d="M 6.5 -25 
Q 5.609375 -25 5.609375 -24.125 
Q 5.609375 -23.6875 5.8125 -23.484375 
Q 22.90625 -6.78125 22.90625 25 
Q 22.90625 56.78125 6 73.296875 
Q 5.609375 73.53125 5.609375 74.125 
Q 5.609375 74.46875 5.875 74.734375 
Q 6.15625 75 6.5 75 
L 7.421875 75 
Q 7.71875 75 7.90625 74.8125 
Q 15.09375 69.140625 19.875 61.03125 
Q 24.65625 52.9375 26.875 43.75 
Q 29.109375 34.578125 29.109375 25 
Q 29.109375 17.921875 27.90625 11.0625 
Q 26.703125 4.203125 24.09375 -2.453125 
Q 21.484375 -9.125 17.484375 -14.765625 
Q 13.484375 -20.40625 7.90625 -24.8125 
Q 7.71875 -25 7.421875 -25 
z
" id="Cmr10-29"/>
     </defs>
     <g transform="translate(125.28 67.10175)scale(0.144 -0.144)">
      <use xlink:href="#Cmmi10-78"/>
      <use transform="translate(57.080078125 0.0)" xlink:href="#Cmr10-28"/>
      <use transform="translate(95.8984375 0.0)" xlink:href="#Cmmi10-74"/>
      <use transform="translate(131.982421875 0.0)" xlink:href="#Cmr10-29"/>
     </g>
    </g>
    <g id="line2d_18">
     <path d="M 89.28 83.8035 
L 109.44 83.8035 
" style="fill:none;stroke:#008000;stroke-linecap:square;"/>
    </g>
    <g id="line2d_19">
     <g>
      <use style="fill:#008000;stroke:#008000;stroke-width:0.5;" x="89.28" xlink:href="#md49b8a192e" y="83.8035"/>
      <use style="fill:#008000;stroke:#008000;stroke-width:0.5;" x="109.44" xlink:href="#md49b8a192e" y="83.8035"/>
     </g>
    </g>
    <g id="text_8">
     <!-- $x_i$ -->
     <defs>
      <path d="M 7.8125 7.171875 
Q 7.8125 9.03125 8.59375 11.078125 
L 16.703125 32.625 
Q 18.015625 36.28125 18.015625 38.625 
Q 18.015625 41.609375 15.828125 41.609375 
Q 11.859375 41.609375 9.296875 37.53125 
Q 6.734375 33.453125 5.515625 28.421875 
Q 5.328125 27.78125 4.6875 27.78125 
L 3.515625 27.78125 
Q 2.6875 27.78125 2.6875 28.71875 
L 2.6875 29 
Q 4.296875 34.96875 7.609375 39.578125 
Q 10.9375 44.1875 16.015625 44.1875 
Q 19.578125 44.1875 22.046875 41.84375 
Q 24.515625 39.5 24.515625 35.890625 
Q 24.515625 34.03125 23.6875 31.984375 
L 15.578125 10.5 
Q 14.203125 7.171875 14.203125 4.5 
Q 14.203125 1.515625 16.5 1.515625 
Q 20.40625 1.515625 23.015625 5.6875 
Q 25.640625 9.859375 26.703125 14.703125 
Q 26.90625 15.28125 27.484375 15.28125 
L 28.71875 15.28125 
Q 29.109375 15.28125 29.34375 15.015625 
Q 29.59375 14.75 29.59375 14.40625 
Q 29.59375 14.3125 29.5 14.109375 
Q 28.125 8.453125 24.734375 3.65625 
Q 21.34375 -1.125 16.3125 -1.125 
Q 12.796875 -1.125 10.296875 1.296875 
Q 7.8125 3.71875 7.8125 7.171875 
M 19.09375 60.59375 
Q 19.09375 62.703125 20.84375 64.40625 
Q 22.609375 66.109375 24.703125 66.109375 
Q 26.421875 66.109375 27.515625 65.0625 
Q 28.609375 64.015625 28.609375 62.40625 
Q 28.609375 60.15625 26.828125 58.46875 
Q 25.046875 56.78125 22.90625 56.78125 
Q 21.296875 56.78125 20.1875 57.875 
Q 19.09375 58.984375 19.09375 60.59375 
" id="Cmmi10-69"/>
     </defs>
     <g transform="translate(125.28 88.8435)scale(0.144 -0.144)">
      <use transform="translate(0.0 0.8125)" xlink:href="#Cmmi10-78"/>
      <use transform="translate(57.080078125 -16.19375)scale(0.7)" xlink:href="#Cmmi10-69"/>
     </g>
    </g>
   </g>
  </g>
 </g>
 <defs>
  <clipPath id="pbc91e4c313">
   <rect height="345.6" width="446.4" x="72.0" y="43.2"/>
  </clipPath>
 </defs>
</svg>
