<?xml version="1.0" encoding="utf-8" standalone="no"?>
<!DOCTYPE svg PUBLIC "-//W3C//DTD SVG 1.1//EN"
  "http://www.w3.org/Graphics/SVG/1.1/DTD/svg11.dtd">
<!-- Created with matplotlib (http://matplotlib.org/) -->
<svg height="432pt" version="1.1" viewBox="0 0 576 432" width="576pt" xmlns="http://www.w3.org/2000/svg" xmlns:xlink="http://www.w3.org/1999/xlink">
 <defs>
  <style type="text/css">
*{stroke-linecap:butt;stroke-linejoin:round;stroke-miterlimit:100000;}
  </style>
 </defs>
 <g id="figure_1">
  <g id="patch_1">
   <path d="M 0 432 
L 576 432 
L 576 0 
L 0 0 
z
" style="fill:#ffffff;"/>
  </g>
  <g id="axes_1">
   <g id="patch_2">
    <path d="M 72 388.8 
L 518.4 388.8 
L 518.4 43.2 
L 72 43.2 
z
" style="fill:#ffffff;"/>
   </g>
   <g id="PathCollection_1">
    <defs>
     <path d="M 0 2.236068 
C 0.593012 2.236068 1.161816 2.000462 1.581139 1.581139 
C 2.000462 1.161816 2.236068 0.593012 2.236068 0 
C 2.236068 -0.593012 2.000462 -1.161816 1.581139 -1.581139 
C 1.161816 -2.000462 0.593012 -2.236068 0 -2.236068 
C -0.593012 -2.236068 -1.161816 -2.000462 -1.581139 -1.581139 
C -2.000462 -1.161816 -2.236068 -0.593012 -2.236068 0 
C -2.236068 0.593012 -2.000462 1.161816 -1.581139 1.581139 
C -1.161816 2.000462 -0.593012 2.236068 0 2.236068 
z
" id="m7ccb4a01d2" style="stroke:#000000;"/>
    </defs>
    <g clip-path="url(#p3c81bd398e)">
     <use style="fill:#0000ff;stroke:#000000;" x="477.818181818" xlink:href="#m7ccb4a01d2" y="169.098187609"/>
     <use style="fill:#0000ff;stroke:#000000;" x="382.57136479" xlink:href="#m7ccb4a01d2" y="293.832562"/>
     <use style="fill:#0000ff;stroke:#000000;" x="300.95187051" xlink:href="#m7ccb4a01d2" y="336.6825249"/>
     <use style="fill:#0000ff;stroke:#000000;" x="233.71106696" xlink:href="#m7ccb4a01d2" y="351.378208816"/>
     <use style="fill:#0000ff;stroke:#000000;" x="184.143890701" xlink:href="#m7ccb4a01d2" y="356.353217819"/>
    </g>
   </g>
   <g id="line2d_1">
    <path clip-path="url(#p3c81bd398e)" d="M 72 360 
L 76.509091 359.949968 
L 81.018182 359.895477 
L 85.527273 359.836192 
L 90.036364 359.771754 
L 94.545455 359.701786 
L 99.054545 359.625885 
L 103.563636 359.543625 
L 108.072727 359.454555 
L 112.581818 359.358196 
L 117.090909 359.254045 
L 121.6 359.141566 
L 126.109091 359.020195 
L 130.618182 358.889336 
L 135.127273 358.748362 
L 139.636364 358.596608 
L 144.145455 358.433375 
L 148.654545 358.257929 
L 153.163636 358.069492 
L 157.672727 357.86725 
L 162.181818 357.650344 
L 166.690909 357.417873 
L 171.2 357.168888 
L 175.709091 356.902395 
L 180.218182 356.617347 
L 184.727273 356.31265 
L 189.236364 355.987152 
L 193.745455 355.63965 
L 198.254545 355.268878 
L 202.763636 354.873516 
L 207.272727 354.452177 
L 211.781818 354.003412 
L 216.290909 353.525706 
L 220.8 353.017472 
L 225.309091 352.477055 
L 229.818182 351.902721 
L 234.327273 351.292664 
L 238.836364 350.644994 
L 243.345455 349.957742 
L 247.854545 349.228852 
L 252.363636 348.456181 
L 256.872727 347.637492 
L 261.381818 346.770457 
L 265.890909 345.852649 
L 270.4 344.881541 
L 274.909091 343.8545 
L 279.418182 342.768788 
L 283.927273 341.621556 
L 288.436364 340.409839 
L 292.945455 339.130555 
L 297.454545 337.780499 
L 301.963636 336.356344 
L 306.472727 334.854628 
L 310.981818 333.271759 
L 315.490909 331.604008 
L 320 329.847501 
L 324.509091 327.998221 
L 329.018182 326.051999 
L 333.527273 324.004511 
L 338.036364 321.851274 
L 342.545455 319.587641 
L 347.054545 317.208795 
L 351.563636 314.709746 
L 356.072727 312.085324 
L 360.581818 309.330178 
L 365.090909 306.438765 
L 369.6 303.405348 
L 374.109091 300.223991 
L 378.618182 296.888552 
L 383.127273 293.392679 
L 387.636364 289.729802 
L 392.145455 285.893128 
L 396.654545 281.875637 
L 401.163636 277.670073 
L 405.672727 273.26894 
L 410.181818 268.664493 
L 414.690909 263.848734 
L 419.2 258.813404 
L 423.709091 253.54998 
L 428.218182 248.049659 
L 432.727273 242.303362 
L 437.236364 236.301719 
L 441.745455 230.035066 
L 446.254545 223.493435 
L 450.763636 216.666548 
L 455.272727 209.543808 
L 459.781818 202.114294 
L 464.290909 194.36675 
L 468.8 186.289576 
L 473.309091 177.870824 
L 477.818182 169.098188 
L 482.327273 159.958991 
L 486.836364 150.440183 
L 491.345455 140.528328 
L 495.854545 130.209597 
L 500.363636 119.469757 
L 504.872727 108.294161 
L 509.381818 96.667742 
L 513.890909 84.575002 
L 518.4 72 
" style="fill:none;stroke:#0000ff;stroke-linecap:square;stroke-width:2.0;"/>
   </g>
   <g id="line2d_2">
    <path clip-path="url(#p3c81bd398e)" d="M 72 974.937782 
M 344.918093 433 
L 347.054545 428.757612 
L 351.563636 419.803839 
L 356.072727 410.850066 
L 360.581818 401.896293 
L 365.090909 392.942519 
L 369.6 383.988746 
L 374.109091 375.034973 
L 378.618182 366.0812 
L 383.127273 357.127426 
L 387.636364 348.173653 
L 392.145455 339.21988 
L 396.654545 330.266107 
L 401.163636 321.312333 
L 405.672727 312.35856 
L 410.181818 303.404787 
L 414.690909 294.451013 
L 419.2 285.49724 
L 423.709091 276.543467 
L 428.218182 267.589694 
L 432.727273 258.63592 
L 437.236364 249.682147 
L 441.745455 240.728374 
L 446.254545 231.774601 
L 450.763636 222.820827 
L 455.272727 213.867054 
L 459.781818 204.913281 
L 464.290909 195.959507 
L 468.8 187.005734 
L 473.309091 178.051961 
L 477.818182 169.098188 
L 482.327273 160.144414 
L 486.836364 151.190641 
L 491.345455 142.236868 
L 495.854545 133.283095 
L 500.363636 124.329321 
L 504.872727 115.375548 
L 509.381818 106.421775 
L 513.890909 97.468001 
L 518.4 88.514228 
" style="fill:none;stroke:#008000;stroke-dasharray:6.000000,6.000000;stroke-dashoffset:0.0;"/>
   </g>
   <g id="line2d_3">
    <path clip-path="url(#p3c81bd398e)" d="M 72 538.877016 
M 206.189405 433 
L 207.272727 432.145246 
L 211.781818 428.58752 
L 216.290909 425.029794 
L 220.8 421.472069 
L 225.309091 417.914343 
L 229.818182 414.356617 
L 234.327273 410.798892 
L 238.836364 407.241166 
L 243.345455 403.68344 
L 247.854545 400.125715 
L 252.363636 396.567989 
L 256.872727 393.010263 
L 261.381818 389.452538 
L 265.890909 385.894812 
L 270.4 382.337086 
L 274.909091 378.77936 
L 279.418182 375.221635 
L 283.927273 371.663909 
L 288.436364 368.106183 
L 292.945455 364.548458 
L 297.454545 360.990732 
L 301.963636 357.433006 
L 306.472727 353.875281 
L 310.981818 350.317555 
L 315.490909 346.759829 
L 320 343.202104 
L 324.509091 339.644378 
L 329.018182 336.086652 
L 333.527273 332.528927 
L 338.036364 328.971201 
L 342.545455 325.413475 
L 347.054545 321.85575 
L 351.563636 318.298024 
L 356.072727 314.740298 
L 360.581818 311.182573 
L 365.090909 307.624847 
L 369.6 304.067121 
L 374.109091 300.509395 
L 378.618182 296.95167 
L 383.127273 293.393944 
L 387.636364 289.836218 
L 392.145455 286.278493 
L 396.654545 282.720767 
L 401.163636 279.163041 
L 405.672727 275.605316 
L 410.181818 272.04759 
L 414.690909 268.489864 
L 419.2 264.932139 
L 423.709091 261.374413 
L 428.218182 257.816687 
L 432.727273 254.258962 
L 437.236364 250.701236 
L 441.745455 247.14351 
L 446.254545 243.585785 
L 450.763636 240.028059 
L 455.272727 236.470333 
L 459.781818 232.912608 
L 464.290909 229.354882 
L 468.8 225.797156 
L 473.309091 222.23943 
L 477.818182 218.681705 
L 482.327273 215.123979 
L 486.836364 211.566253 
L 491.345455 208.008528 
L 495.854545 204.450802 
L 500.363636 200.893076 
L 504.872727 197.335351 
L 509.381818 193.777625 
L 513.890909 190.219899 
L 518.4 186.662174 
" style="fill:none;stroke:#ff0000;stroke-dasharray:6.000000,6.000000;stroke-dashoffset:0.0;"/>
   </g>
   <g id="line2d_4">
    <path clip-path="url(#p3c81bd398e)" d="M 72 410.055127 
L 76.509091 408.610091 
L 81.018182 407.165055 
L 85.527273 405.720018 
L 90.036364 404.274982 
L 94.545455 402.829946 
L 99.054545 401.38491 
L 103.563636 399.939874 
L 108.072727 398.494838 
L 112.581818 397.049801 
L 117.090909 395.604765 
L 121.6 394.159729 
L 126.109091 392.714693 
L 130.618182 391.269657 
L 135.127273 389.824621 
L 139.636364 388.379584 
L 144.145455 386.934548 
L 148.654545 385.489512 
L 153.163636 384.044476 
L 157.672727 382.59944 
L 162.181818 381.154404 
L 166.690909 379.709367 
L 171.2 378.264331 
L 175.709091 376.819295 
L 180.218182 375.374259 
L 184.727273 373.929223 
L 189.236364 372.484187 
L 193.745455 371.03915 
L 198.254545 369.594114 
L 202.763636 368.149078 
L 207.272727 366.704042 
L 211.781818 365.259006 
L 216.290909 363.81397 
L 220.8 362.368933 
L 225.309091 360.923897 
L 229.818182 359.478861 
L 234.327273 358.033825 
L 238.836364 356.588789 
L 243.345455 355.143753 
L 247.854545 353.698717 
L 252.363636 352.25368 
L 256.872727 350.808644 
L 261.381818 349.363608 
L 265.890909 347.918572 
L 270.4 346.473536 
L 274.909091 345.0285 
L 279.418182 343.583463 
L 283.927273 342.138427 
L 288.436364 340.693391 
L 292.945455 339.248355 
L 297.454545 337.803319 
L 301.963636 336.358283 
L 306.472727 334.913246 
L 310.981818 333.46821 
L 315.490909 332.023174 
L 320 330.578138 
L 324.509091 329.133102 
L 329.018182 327.688066 
L 333.527273 326.243029 
L 338.036364 324.797993 
L 342.545455 323.352957 
L 347.054545 321.907921 
L 351.563636 320.462885 
L 356.072727 319.017849 
L 360.581818 317.572812 
L 365.090909 316.127776 
L 369.6 314.68274 
L 374.109091 313.237704 
L 378.618182 311.792668 
L 383.127273 310.347632 
L 387.636364 308.902595 
L 392.145455 307.457559 
L 396.654545 306.012523 
L 401.163636 304.567487 
L 405.672727 303.122451 
L 410.181818 301.677415 
L 414.690909 300.232378 
L 419.2 298.787342 
L 423.709091 297.342306 
L 428.218182 295.89727 
L 432.727273 294.452234 
L 437.236364 293.007198 
L 441.745455 291.562161 
L 446.254545 290.117125 
L 450.763636 288.672089 
L 455.272727 287.227053 
L 459.781818 285.782017 
L 464.290909 284.336981 
L 468.8 282.891945 
L 473.309091 281.446908 
L 477.818182 280.001872 
L 482.327273 278.556836 
L 486.836364 277.1118 
L 491.345455 275.666764 
L 495.854545 274.221728 
L 500.363636 272.776691 
L 504.872727 271.331655 
L 509.381818 269.886619 
L 513.890909 268.441583 
L 518.4 266.996547 
" style="fill:none;stroke:#00bfbf;stroke-dasharray:6.000000,6.000000;stroke-dashoffset:0.0;"/>
   </g>
   <g id="line2d_5">
    <path clip-path="url(#p3c81bd398e)" d="M 72 373.736169 
L 76.509091 373.112748 
L 81.018182 372.489327 
L 85.527273 371.865906 
L 90.036364 371.242485 
L 94.545455 370.619064 
L 99.054545 369.995643 
L 103.563636 369.372222 
L 108.072727 368.748801 
L 112.581818 368.12538 
L 117.090909 367.501959 
L 121.6 366.878538 
L 126.109091 366.255117 
L 130.618182 365.631696 
L 135.127273 365.008275 
L 139.636364 364.384854 
L 144.145455 363.761433 
L 148.654545 363.138012 
L 153.163636 362.514591 
L 157.672727 361.89117 
L 162.181818 361.267749 
L 166.690909 360.644328 
L 171.2 360.020907 
L 175.709091 359.397486 
L 180.218182 358.774065 
L 184.727273 358.150644 
L 189.236364 357.527223 
L 193.745455 356.903802 
L 198.254545 356.280381 
L 202.763636 355.65696 
L 207.272727 355.033539 
L 211.781818 354.410118 
L 216.290909 353.786697 
L 220.8 353.163276 
L 225.309091 352.539855 
L 229.818182 351.916434 
L 234.327273 351.293013 
L 238.836364 350.669592 
L 243.345455 350.046171 
L 247.854545 349.42275 
L 252.363636 348.799329 
L 256.872727 348.175908 
L 261.381818 347.552487 
L 265.890909 346.929066 
L 270.4 346.305645 
L 274.909091 345.682224 
L 279.418182 345.058803 
L 283.927273 344.435382 
L 288.436364 343.811961 
L 292.945455 343.18854 
L 297.454545 342.565119 
L 301.963636 341.941698 
L 306.472727 341.318277 
L 310.981818 340.694856 
L 315.490909 340.071435 
L 320 339.448014 
L 324.509091 338.824593 
L 329.018182 338.201172 
L 333.527273 337.577751 
L 338.036364 336.95433 
L 342.545455 336.330909 
L 347.054545 335.707488 
L 351.563636 335.084067 
L 356.072727 334.460646 
L 360.581818 333.837225 
L 365.090909 333.213804 
L 369.6 332.590383 
L 374.109091 331.966962 
L 378.618182 331.343541 
L 383.127273 330.72012 
L 387.636364 330.096699 
L 392.145455 329.473278 
L 396.654545 328.849857 
L 401.163636 328.226436 
L 405.672727 327.603015 
L 410.181818 326.979594 
L 414.690909 326.356173 
L 419.2 325.732752 
L 423.709091 325.109331 
L 428.218182 324.485911 
L 432.727273 323.86249 
L 437.236364 323.239069 
L 441.745455 322.615648 
L 446.254545 321.992227 
L 450.763636 321.368806 
L 455.272727 320.745385 
L 459.781818 320.121964 
L 464.290909 319.498543 
L 468.8 318.875122 
L 473.309091 318.251701 
L 477.818182 317.62828 
L 482.327273 317.004859 
L 486.836364 316.381438 
L 491.345455 315.758017 
L 495.854545 315.134596 
L 500.363636 314.511175 
L 504.872727 313.887754 
L 509.381818 313.264333 
L 513.890909 312.640912 
L 518.4 312.017491 
" style="fill:none;stroke:#bf00bf;stroke-dasharray:6.000000,6.000000;stroke-dashoffset:0.0;"/>
   </g>
   <g id="patch_3">
    <path d="M 72 358.231302 
L 518.4 358.231302 
" style="fill:none;stroke:#000000;stroke-linecap:square;stroke-linejoin:miter;"/>
   </g>
   <g id="patch_4">
    <path d="M 72 388.8 
L 72 43.2 
" style="fill:none;stroke:#000000;stroke-linecap:square;stroke-linejoin:miter;"/>
   </g>
   <g id="matplotlib.axis_1">
    <g id="xtick_1">
     <g id="line2d_6">
      <defs>
       <path d="M 0 0 
L 0 -4 
" id="md2c1b51280" style="stroke:#000000;stroke-width:0.5;"/>
      </defs>
      <g>
       <use style="stroke:#000000;stroke-width:0.5;" x="477.818181818" xlink:href="#md2c1b51280" y="358.231301523"/>
      </g>
     </g>
     <g id="text_1">
      <!-- $y_0$ -->
      <defs>
       <path d="M 8.40625 -14.3125 
Q 10.5 -17.921875 15.71875 -17.921875 
Q 20.453125 -17.921875 23.921875 -14.59375 
Q 27.390625 -11.28125 29.515625 -6.5625 
Q 31.640625 -1.859375 32.8125 3.078125 
Q 28.375 -1.125 23.1875 -1.125 
Q 19.234375 -1.125 16.453125 0.234375 
Q 13.671875 1.609375 12.125 4.3125 
Q 10.59375 7.03125 10.59375 10.890625 
Q 10.59375 14.15625 11.46875 17.59375 
Q 12.359375 21.046875 13.9375 25.265625 
Q 15.53125 29.5 16.703125 32.625 
Q 18.015625 36.28125 18.015625 38.625 
Q 18.015625 41.609375 15.828125 41.609375 
Q 11.859375 41.609375 9.296875 37.53125 
Q 6.734375 33.453125 5.515625 28.421875 
Q 5.328125 27.78125 4.6875 27.78125 
L 3.515625 27.78125 
Q 2.6875 27.78125 2.6875 28.71875 
L 2.6875 29 
Q 4.296875 34.96875 7.609375 39.578125 
Q 10.9375 44.1875 16.015625 44.1875 
Q 19.578125 44.1875 22.046875 41.84375 
Q 24.515625 39.5 24.515625 35.890625 
Q 24.515625 34.03125 23.6875 31.984375 
Q 23.25 30.765625 21.6875 26.65625 
Q 20.125 22.5625 19.28125 19.875 
Q 18.453125 17.1875 17.921875 14.59375 
Q 17.390625 12.015625 17.390625 9.421875 
Q 17.390625 6.109375 18.796875 3.8125 
Q 20.21875 1.515625 23.296875 1.515625 
Q 29.5 1.515625 34.421875 9.078125 
L 42 39.890625 
Q 42.328125 41.21875 43.546875 42.15625 
Q 44.78125 43.109375 46.1875 43.109375 
Q 47.40625 43.109375 48.3125 42.328125 
Q 49.21875 41.546875 49.21875 40.28125 
Q 49.21875 39.703125 49.125 39.5 
L 39.203125 -0.296875 
Q 37.890625 -5.421875 34.375 -10.109375 
Q 30.859375 -14.796875 25.90625 -17.65625 
Q 20.953125 -20.515625 15.578125 -20.515625 
Q 12.984375 -20.515625 10.4375 -19.5 
Q 7.90625 -18.5 6.34375 -16.5 
Q 4.78125 -14.5 4.78125 -11.8125 
Q 4.78125 -9.078125 6.390625 -7.078125 
Q 8.015625 -5.078125 10.6875 -5.078125 
Q 12.3125 -5.078125 13.40625 -6.078125 
Q 14.5 -7.078125 14.5 -8.6875 
Q 14.5 -10.984375 12.78125 -12.6875 
Q 11.078125 -14.40625 8.796875 -14.40625 
Q 8.6875 -14.359375 8.59375 -14.328125 
Q 8.5 -14.3125 8.40625 -14.3125 
" id="Cmmi10-79"/>
       <path d="M 25 -2.203125 
Q 12.75 -2.203125 8.328125 7.875 
Q 3.90625 17.96875 3.90625 31.890625 
Q 3.90625 40.578125 5.484375 48.234375 
Q 7.078125 55.90625 11.78125 61.25 
Q 16.5 66.609375 25 66.609375 
Q 31.59375 66.609375 35.78125 63.375 
Q 39.984375 60.15625 42.1875 55.046875 
Q 44.390625 49.953125 45.1875 44.109375 
Q 46 38.28125 46 31.890625 
Q 46 23.296875 44.40625 15.796875 
Q 42.828125 8.296875 38.1875 3.046875 
Q 33.546875 -2.203125 25 -2.203125 
M 25 0.390625 
Q 30.5625 0.390625 33.296875 6.09375 
Q 36.03125 11.8125 36.671875 18.75 
Q 37.3125 25.6875 37.3125 33.5 
Q 37.3125 41.015625 36.671875 47.359375 
Q 36.03125 53.71875 33.3125 58.859375 
Q 30.609375 64.015625 25 64.015625 
Q 19.34375 64.015625 16.609375 58.828125 
Q 13.875 53.65625 13.234375 47.328125 
Q 12.59375 41.015625 12.59375 33.5 
Q 12.59375 27.9375 12.859375 23 
Q 13.140625 18.0625 14.3125 12.8125 
Q 15.484375 7.5625 18.09375 3.96875 
Q 20.703125 0.390625 25 0.390625 
" id="Cmr10-30"/>
      </defs>
      <g transform="translate(472.358181818 371.325051523)scale(0.12 -0.12)">
       <use transform="translate(0.0 0.8125)" xlink:href="#Cmmi10-79"/>
       <use transform="translate(49.0234375 -16.19375)scale(0.7)" xlink:href="#Cmr10-30"/>
      </g>
     </g>
    </g>
    <g id="xtick_2">
     <g id="line2d_7">
      <g>
       <use style="stroke:#000000;stroke-width:0.5;" x="382.57136479" xlink:href="#md2c1b51280" y="358.231301523"/>
      </g>
     </g>
     <g id="text_2">
      <!-- $y_1$ -->
      <defs>
       <path d="M 9.28125 0 
L 9.28125 3.515625 
Q 21.78125 3.515625 21.78125 6.6875 
L 21.78125 59.1875 
Q 16.609375 56.6875 8.6875 56.6875 
L 8.6875 60.203125 
Q 20.953125 60.203125 27.203125 66.609375 
L 28.609375 66.609375 
Q 28.953125 66.609375 29.265625 66.328125 
Q 29.59375 66.0625 29.59375 65.71875 
L 29.59375 6.6875 
Q 29.59375 3.515625 42.09375 3.515625 
L 42.09375 0 
z
" id="Cmr10-31"/>
      </defs>
      <g transform="translate(377.11136479 371.325051523)scale(0.12 -0.12)">
       <use transform="translate(0.0 0.8125)" xlink:href="#Cmmi10-79"/>
       <use transform="translate(49.0234375 -16.19375)scale(0.7)" xlink:href="#Cmr10-31"/>
      </g>
     </g>
    </g>
    <g id="xtick_3">
     <g id="line2d_8">
      <g>
       <use style="stroke:#000000;stroke-width:0.5;" x="300.95187051" xlink:href="#md2c1b51280" y="358.231301523"/>
      </g>
     </g>
     <g id="text_3">
      <!-- $y_2$ -->
      <defs>
       <path d="M 4.984375 0 
L 4.984375 2.6875 
Q 4.984375 2.9375 5.171875 3.21875 
L 20.703125 20.40625 
Q 24.21875 24.21875 26.40625 26.796875 
Q 28.609375 29.390625 30.75 32.765625 
Q 32.90625 36.140625 34.15625 39.625 
Q 35.40625 43.109375 35.40625 47.015625 
Q 35.40625 51.125 33.890625 54.859375 
Q 32.375 58.59375 29.375 60.84375 
Q 26.375 63.09375 22.125 63.09375 
Q 17.78125 63.09375 14.3125 60.46875 
Q 10.84375 57.859375 9.421875 53.71875 
Q 9.8125 53.8125 10.5 53.8125 
Q 12.75 53.8125 14.328125 52.296875 
Q 15.921875 50.78125 15.921875 48.390625 
Q 15.921875 46.09375 14.328125 44.5 
Q 12.75 42.921875 10.5 42.921875 
Q 8.15625 42.921875 6.5625 44.546875 
Q 4.984375 46.1875 4.984375 48.390625 
Q 4.984375 52.15625 6.390625 55.4375 
Q 7.8125 58.734375 10.46875 61.296875 
Q 13.140625 63.875 16.484375 65.234375 
Q 19.828125 66.609375 23.578125 66.609375 
Q 29.296875 66.609375 34.21875 64.1875 
Q 39.15625 61.765625 42.03125 57.34375 
Q 44.921875 52.9375 44.921875 47.015625 
Q 44.921875 42.671875 43.015625 38.765625 
Q 41.109375 34.859375 38.125 31.65625 
Q 35.15625 28.46875 30.515625 24.40625 
Q 25.875 20.359375 24.421875 19 
L 13.09375 8.109375 
L 22.703125 8.109375 
Q 29.78125 8.109375 34.546875 8.21875 
Q 39.3125 8.34375 39.59375 8.59375 
Q 40.765625 9.859375 42 17.828125 
L 44.921875 17.828125 
L 42.09375 0 
z
" id="Cmr10-32"/>
      </defs>
      <g transform="translate(295.49187051 371.325051523)scale(0.12 -0.12)">
       <use transform="translate(0.0 0.8125)" xlink:href="#Cmmi10-79"/>
       <use transform="translate(49.0234375 -16.19375)scale(0.7)" xlink:href="#Cmr10-32"/>
      </g>
     </g>
    </g>
    <g id="xtick_4">
     <g id="line2d_9">
      <g>
       <use style="stroke:#000000;stroke-width:0.5;" x="233.71106696" xlink:href="#md2c1b51280" y="358.231301523"/>
      </g>
     </g>
     <g id="text_4">
      <!-- $y_3$ -->
      <defs>
       <path d="M 9.515625 7.71875 
Q 11.859375 4.296875 15.8125 2.640625 
Q 19.78125 0.984375 24.3125 0.984375 
Q 30.125 0.984375 32.5625 5.9375 
Q 35.015625 10.890625 35.015625 17.1875 
Q 35.015625 20.015625 34.5 22.84375 
Q 33.984375 25.6875 32.765625 28.125 
Q 31.546875 30.5625 29.421875 32.03125 
Q 27.296875 33.5 24.21875 33.5 
L 17.578125 33.5 
Q 16.703125 33.5 16.703125 34.421875 
L 16.703125 35.296875 
Q 16.703125 36.078125 17.578125 36.078125 
L 23.09375 36.53125 
Q 26.609375 36.53125 28.921875 39.15625 
Q 31.25 41.796875 32.328125 45.578125 
Q 33.40625 49.359375 33.40625 52.78125 
Q 33.40625 57.5625 31.15625 60.640625 
Q 28.90625 63.71875 24.3125 63.71875 
Q 20.515625 63.71875 17.046875 62.28125 
Q 13.578125 60.84375 11.53125 57.90625 
Q 11.71875 57.953125 11.859375 57.984375 
Q 12.015625 58.015625 12.203125 58.015625 
Q 14.453125 58.015625 15.96875 56.453125 
Q 17.484375 54.890625 17.484375 52.6875 
Q 17.484375 50.53125 15.96875 48.96875 
Q 14.453125 47.40625 12.203125 47.40625 
Q 10.015625 47.40625 8.453125 48.96875 
Q 6.890625 50.53125 6.890625 52.6875 
Q 6.890625 56.984375 9.46875 60.15625 
Q 12.0625 63.328125 16.140625 64.96875 
Q 20.21875 66.609375 24.3125 66.609375 
Q 27.34375 66.609375 30.703125 65.703125 
Q 34.078125 64.796875 36.8125 63.109375 
Q 39.546875 61.421875 41.28125 58.78125 
Q 43.015625 56.15625 43.015625 52.78125 
Q 43.015625 48.578125 41.140625 45.015625 
Q 39.265625 41.453125 35.984375 38.859375 
Q 32.71875 36.28125 28.8125 35.015625 
Q 33.15625 34.1875 37.0625 31.734375 
Q 40.96875 29.296875 43.328125 25.484375 
Q 45.703125 21.6875 45.703125 17.28125 
Q 45.703125 11.765625 42.671875 7.296875 
Q 39.65625 2.828125 34.71875 0.3125 
Q 29.78125 -2.203125 24.3125 -2.203125 
Q 19.625 -2.203125 14.90625 -0.40625 
Q 10.203125 1.375 7.203125 4.9375 
Q 4.203125 8.5 4.203125 13.484375 
Q 4.203125 15.96875 5.859375 17.625 
Q 7.515625 19.28125 10.015625 19.28125 
Q 11.625 19.28125 12.96875 18.53125 
Q 14.3125 17.78125 15.0625 16.40625 
Q 15.828125 15.046875 15.828125 13.484375 
Q 15.828125 11.03125 14.109375 9.375 
Q 12.40625 7.71875 10.015625 7.71875 
z
" id="Cmr10-33"/>
      </defs>
      <g transform="translate(228.25106696 371.325051523)scale(0.12 -0.12)">
       <use transform="translate(0.0 0.8125)" xlink:href="#Cmmi10-79"/>
       <use transform="translate(49.0234375 -16.19375)scale(0.7)" xlink:href="#Cmr10-33"/>
      </g>
     </g>
    </g>
    <g id="xtick_5">
     <g id="line2d_10">
      <g>
       <use style="stroke:#000000;stroke-width:0.5;" x="184.143890701" xlink:href="#md2c1b51280" y="358.231301523"/>
      </g>
     </g>
     <g id="text_5">
      <!-- $y_4$ -->
      <defs>
       <path d="M 2.78125 16.5 
L 2.78125 20.015625 
L 33.6875 66.109375 
Q 34.03125 66.609375 34.71875 66.609375 
L 36.1875 66.609375 
Q 37.3125 66.609375 37.3125 65.484375 
L 37.3125 20.015625 
L 47.125 20.015625 
L 47.125 16.5 
L 37.3125 16.5 
L 37.3125 6.6875 
Q 37.3125 4.640625 40.234375 4.078125 
Q 43.171875 3.515625 47.015625 3.515625 
L 47.015625 0 
L 19.484375 0 
L 19.484375 3.515625 
Q 23.34375 3.515625 26.265625 4.078125 
Q 29.203125 4.640625 29.203125 6.6875 
L 29.203125 16.5 
z
M 6.109375 20.015625 
L 29.78125 20.015625 
L 29.78125 55.421875 
z
" id="Cmr10-34"/>
      </defs>
      <g transform="translate(178.683890701 371.325051523)scale(0.12 -0.12)">
       <use transform="translate(0.0 0.8125)" xlink:href="#Cmmi10-79"/>
       <use transform="translate(49.0234375 -16.19375)scale(0.7)" xlink:href="#Cmr10-34"/>
      </g>
     </g>
    </g>
    <g id="xtick_6">
     <g id="line2d_11">
      <g>
       <use style="stroke:#000000;stroke-width:0.5;" x="149.311501693" xlink:href="#md2c1b51280" y="358.231301523"/>
      </g>
     </g>
     <g id="text_6">
      <!-- $y_\infty$ -->
      <defs>
       <path d="M 24.609375 -1.125 
Q 18.953125 -1.125 14.578125 2.1875 
Q 10.203125 5.515625 7.90625 10.78125 
Q 5.609375 16.0625 5.609375 21.578125 
Q 5.609375 25.828125 6.953125 29.875 
Q 8.296875 33.9375 10.828125 37.15625 
Q 13.375 40.375 16.96875 42.28125 
Q 20.5625 44.1875 24.90625 44.1875 
Q 29.390625 44.1875 33.59375 42.46875 
Q 37.796875 40.765625 41.28125 37.9375 
Q 44.78125 35.109375 47.796875 31.390625 
L 50.78125 27.390625 
Q 53.765625 32.125 57.375 35.859375 
Q 60.984375 39.59375 65.546875 41.890625 
Q 70.125 44.1875 75.296875 44.1875 
Q 79.640625 44.1875 83.203125 42.25 
Q 86.765625 40.328125 89.25 37 
Q 91.75 33.6875 93.015625 29.65625 
Q 94.28125 25.640625 94.28125 21.578125 
Q 94.28125 15.921875 91.90625 10.671875 
Q 89.546875 5.421875 85.171875 2.140625 
Q 80.8125 -1.125 75 -1.125 
Q 68.453125 -1.125 62.5625 2.390625 
Q 56.6875 5.90625 52.09375 11.71875 
L 49.125 15.71875 
Q 44.53125 8.25 38.296875 3.5625 
Q 32.078125 -1.125 24.609375 -1.125 
M 23.578125 2.390625 
Q 36.28125 2.390625 46.296875 19.390625 
L 41.015625 26.125 
Q 36.421875 32.171875 32.46875 35.59375 
Q 28.515625 39.015625 23.296875 39.015625 
Q 18.84375 39.015625 15.40625 36.5 
Q 11.96875 33.984375 10.078125 29.921875 
Q 8.203125 25.875 8.203125 21.484375 
Q 8.203125 18.109375 9.25 14.71875 
Q 10.296875 11.328125 12.296875 8.546875 
Q 14.3125 5.765625 17.15625 4.078125 
Q 20.015625 2.390625 23.578125 2.390625 
M 58.890625 17 
Q 63.484375 10.9375 67.4375 7.515625 
Q 71.390625 4.109375 76.609375 4.109375 
Q 79.9375 4.109375 82.71875 5.5625 
Q 85.5 7.03125 87.515625 9.515625 
Q 89.546875 12.015625 90.625 15.140625 
Q 91.703125 18.265625 91.703125 21.578125 
Q 91.703125 26.21875 89.84375 30.640625 
Q 87.984375 35.0625 84.484375 37.890625 
Q 81 40.71875 76.3125 40.71875 
Q 63.625 40.71875 53.609375 23.6875 
z
" id="Cmsy10-31"/>
      </defs>
      <g transform="translate(141.751501693 371.325051523)scale(0.12 -0.12)">
       <use transform="translate(0.0 0.8125)" xlink:href="#Cmmi10-79"/>
       <use transform="translate(49.0234375 -16.19375)scale(0.7)" xlink:href="#Cmsy10-31"/>
      </g>
     </g>
    </g>
    <g id="text_7">
     <!-- $y$ -->
     <g transform="translate(515.4 406.53375)scale(0.12 -0.12)">
      <use transform="translate(0.0 0.8125)" xlink:href="#Cmmi10-79"/>
     </g>
    </g>
   </g>
   <g id="matplotlib.axis_2">
    <g id="ytick_1">
     <g id="line2d_12">
      <defs>
       <path d="M 0 0 
L 4 0 
" id="m494824c86e" style="stroke:#000000;stroke-width:0.5;"/>
      </defs>
      <g>
       <use style="stroke:#000000;stroke-width:0.5;" x="72.0" xlink:href="#m494824c86e" y="358.231301523"/>
      </g>
     </g>
     <g id="text_8">
      <!-- $0$ -->
      <g transform="translate(62.0 361.542551523)scale(0.12 -0.12)">
       <use transform="translate(0.0 0.390625)" xlink:href="#Cmr10-30"/>
      </g>
     </g>
    </g>
    <g id="text_9">
     <!-- $g$ -->
     <defs>
      <path d="M 1.421875 -14.3125 
Q 1.421875 -11.859375 3.09375 -10.03125 
Q 4.78125 -8.203125 7.171875 -8.203125 
Q 8.796875 -8.203125 9.890625 -9.203125 
Q 10.984375 -10.203125 10.984375 -11.8125 
Q 10.984375 -13.625 9.953125 -15.0625 
Q 8.9375 -16.5 7.328125 -17.09375 
Q 10.015625 -17.921875 15.71875 -17.921875 
Q 20.3125 -17.921875 24.125 -14.375 
Q 27.9375 -10.84375 29.109375 -6.203125 
L 31.984375 5.515625 
Q 26.5625 0 20.703125 0 
Q 16.40625 0 13.34375 2.1875 
Q 10.296875 4.390625 8.6875 8.046875 
Q 7.078125 11.71875 7.078125 15.828125 
Q 7.078125 20.40625 8.953125 25.4375 
Q 10.84375 30.46875 14.234375 34.765625 
Q 17.625 39.0625 22.015625 41.625 
Q 26.421875 44.1875 31.296875 44.1875 
Q 34.234375 44.1875 36.578125 42.578125 
Q 38.921875 40.96875 40.28125 38.28125 
Q 41.265625 42.1875 44.578125 42.1875 
Q 45.84375 42.1875 46.71875 41.421875 
Q 47.609375 40.671875 47.609375 39.40625 
Q 47.609375 39.109375 47.578125 38.953125 
Q 47.5625 38.8125 47.515625 38.625 
L 36.078125 -6.78125 
Q 35.296875 -9.90625 33.203125 -12.5 
Q 31.109375 -15.09375 28.265625 -16.828125 
Q 25.4375 -18.5625 22.0625 -19.53125 
Q 18.703125 -20.515625 15.578125 -20.515625 
Q 9.859375 -20.515625 5.640625 -19.40625 
Q 1.421875 -18.3125 1.421875 -14.3125 
M 20.90625 2.59375 
Q 27.296875 2.59375 33.5 11.375 
L 39.015625 33.203125 
Q 38.328125 36.671875 36.28125 39.140625 
Q 34.234375 41.609375 31.109375 41.609375 
Q 27.78125 41.609375 24.828125 38.890625 
Q 21.875 36.1875 19.921875 32.421875 
Q 18.0625 28.8125 16.328125 22.046875 
Q 14.59375 15.28125 14.59375 11.375 
Q 14.59375 7.953125 16.15625 5.265625 
Q 17.71875 2.59375 20.90625 2.59375 
" id="Cmmi10-67"/>
     </defs>
     <g transform="translate(57.96 40.68)scale(0.12 -0.12)">
      <use transform="translate(0.0 0.8125)" xlink:href="#Cmmi10-67"/>
     </g>
    </g>
   </g>
   <g id="legend_1">
    <g id="line2d_13">
     <path d="M 444.24 62.06175 
L 464.4 62.06175 
" style="fill:none;stroke:#0000ff;stroke-linecap:square;stroke-width:2.0;"/>
    </g>
    <g id="line2d_14"/>
    <g id="text_10">
     <!-- $g(y)$ -->
     <defs>
      <path d="M 31 -24.8125 
Q 25.4375 -20.40625 21.40625 -14.71875 
Q 17.390625 -9.03125 14.8125 -2.578125 
Q 12.25 3.859375 10.984375 10.890625 
Q 9.71875 17.921875 9.71875 25 
Q 9.71875 32.171875 10.984375 39.203125 
Q 12.25 46.234375 14.859375 52.734375 
Q 17.484375 59.234375 21.53125 64.890625 
Q 25.59375 70.5625 31 74.8125 
Q 31 75 31.5 75 
L 32.421875 75 
Q 32.71875 75 32.953125 74.734375 
Q 33.203125 74.46875 33.203125 74.125 
Q 33.203125 73.6875 33.015625 73.484375 
Q 28.125 68.703125 24.875 63.234375 
Q 21.625 57.765625 19.640625 51.578125 
Q 17.671875 45.40625 16.796875 38.78125 
Q 15.921875 32.171875 15.921875 25 
Q 15.921875 -6.78125 32.90625 -23.296875 
Q 33.203125 -23.578125 33.203125 -24.125 
Q 33.203125 -24.359375 32.9375 -24.671875 
Q 32.671875 -25 32.421875 -25 
L 31.5 -25 
Q 31 -25 31 -24.8125 
" id="Cmr10-28"/>
      <path d="M 6.5 -25 
Q 5.609375 -25 5.609375 -24.125 
Q 5.609375 -23.6875 5.8125 -23.484375 
Q 22.90625 -6.78125 22.90625 25 
Q 22.90625 56.78125 6 73.296875 
Q 5.609375 73.53125 5.609375 74.125 
Q 5.609375 74.46875 5.875 74.734375 
Q 6.15625 75 6.5 75 
L 7.421875 75 
Q 7.71875 75 7.90625 74.8125 
Q 15.09375 69.140625 19.875 61.03125 
Q 24.65625 52.9375 26.875 43.75 
Q 29.109375 34.578125 29.109375 25 
Q 29.109375 17.921875 27.90625 11.0625 
Q 26.703125 4.203125 24.09375 -2.453125 
Q 21.484375 -9.125 17.484375 -14.765625 
Q 13.484375 -20.40625 7.90625 -24.8125 
Q 7.71875 -25 7.421875 -25 
z
" id="Cmr10-29"/>
     </defs>
     <g transform="translate(480.24 67.10175)scale(0.144 -0.144)">
      <use xlink:href="#Cmmi10-67"/>
      <use transform="translate(47.705078125 0.0)" xlink:href="#Cmr10-28"/>
      <use transform="translate(86.5234375 0.0)" xlink:href="#Cmmi10-79"/>
      <use transform="translate(135.546875 0.0)" xlink:href="#Cmr10-29"/>
     </g>
    </g>
   </g>
  </g>
 </g>
 <defs>
  <clipPath id="p3c81bd398e">
   <rect height="345.6" width="446.4" x="72.0" y="43.2"/>
  </clipPath>
 </defs>
</svg>
